M48
;GenerationSoftware,Autodesk,EAGLE,9.3.0*%
;CreationDate,2019-09-25T13:54:05Z*%
FMAT,2
ICI,OFF
METRIC,TZ,000.000
T3C0.350
T2C0.813
T1C1.000
%
G90
M71
T1
X11430Y30480
X13970Y30480
X16510Y30480
X46990Y30480
X44450Y30480
X41910Y30480
X39370Y30480
X29210Y13970
X26670Y13970
X27940Y46990
X25400Y46990
X8890Y30480
T2
X13970Y15240
X16510Y15240
X40640Y20320
X43180Y20320
X40640Y15240
X43180Y15240
X30480Y24130
X25400Y21590
X25400Y24130
X22860Y21590
X22860Y24130
X25400Y38100
X25400Y40640
X21590Y40640
X21590Y38100
X16510Y20320
X30480Y21590
X33020Y21590
X33020Y24130
X30480Y38100
X30480Y40640
X34290Y38100
X34290Y40640
X13970Y20320
T3
X8890Y38100
X35560Y29210
X35560Y7620
X10160Y7620
X11430Y52070
X36830Y52070
X27940Y26670
X16510Y25400
X26670Y43180
X46990Y43180
X29210Y26670
X27940Y31750
X41910Y26670
X36830Y31750
X36830Y20320
X3810Y11430
X3810Y43180
X19050Y26670
X19050Y46990
M30