G04 EAGLE Gerber RS-274X export*
G75*
%MOMM*%
%FSLAX34Y34*%
%LPD*%
%INBottom Copper*%
%IPPOS*%
%AMOC8*
5,1,8,0,0,1.08239X$1,22.5*%
G01*
%ADD10P,1.429621X8X112.500000*%
%ADD11P,1.429621X8X292.500000*%
%ADD12C,1.508000*%
%ADD13P,1.429621X8X22.500000*%
%ADD14C,0.508000*%
%ADD15C,0.756400*%


D10*
X254000Y215900D03*
X254000Y241300D03*
X228600Y215900D03*
X228600Y241300D03*
X254000Y381000D03*
X254000Y406400D03*
D11*
X215900Y406400D03*
X215900Y381000D03*
X304800Y241300D03*
X304800Y215900D03*
D10*
X330200Y215900D03*
X330200Y241300D03*
X304800Y381000D03*
X304800Y406400D03*
X342900Y381000D03*
X342900Y406400D03*
D12*
X393700Y312340D02*
X393700Y297260D01*
X419100Y297260D02*
X419100Y312340D01*
X444500Y312340D02*
X444500Y297260D01*
X469900Y297260D02*
X469900Y312340D01*
X165100Y312340D02*
X165100Y297260D01*
X139700Y297260D02*
X139700Y312340D01*
X114300Y312340D02*
X114300Y297260D01*
X88900Y297260D02*
X88900Y312340D01*
X254000Y462360D02*
X254000Y477440D01*
X279400Y477440D02*
X279400Y462360D01*
X266700Y147240D02*
X266700Y132160D01*
X292100Y132160D02*
X292100Y147240D01*
D13*
X139700Y203200D03*
X165100Y203200D03*
X139700Y152400D03*
X165100Y152400D03*
X406400Y203200D03*
X431800Y203200D03*
X406400Y152400D03*
X431800Y152400D03*
D14*
X254000Y241300D02*
X228600Y215900D01*
X254000Y241300D02*
X254000Y292100D01*
X254000Y342900D02*
X254000Y381000D01*
X228600Y406400D02*
X215900Y406400D01*
X228600Y406400D02*
X254000Y381000D01*
X304800Y292100D02*
X304800Y241300D01*
X330200Y215900D01*
X330200Y406400D02*
X342900Y406400D01*
X330200Y406400D02*
X304800Y381000D01*
X304800Y342900D01*
X88900Y304800D02*
X88900Y381000D01*
D15*
X88900Y381000D03*
D14*
X215900Y381000D02*
X241300Y342900D01*
X241300Y292100D02*
X228600Y241300D01*
X330200Y241300D02*
X317500Y292100D01*
D15*
X355600Y292100D03*
D14*
X355600Y76200D01*
D15*
X355600Y76200D03*
X101600Y76200D03*
D14*
X101600Y266700D01*
X139700Y266700D01*
X139700Y304800D01*
X317500Y342900D02*
X342900Y381000D01*
X114300Y304800D02*
X114300Y520700D01*
D15*
X114300Y520700D03*
X368300Y520700D03*
D14*
X368300Y381000D01*
X342900Y381000D01*
X419100Y304800D02*
X419100Y266700D01*
D15*
X419100Y266700D03*
X292100Y266700D03*
D14*
X292100Y292100D01*
X469900Y304800D02*
X469900Y431800D01*
D15*
X469900Y431800D03*
X266700Y431800D03*
D14*
X266700Y342900D01*
X165100Y203200D02*
X165100Y152400D01*
X165100Y203200D02*
X165100Y254000D01*
D15*
X165100Y254000D03*
X279400Y266700D03*
D14*
X279400Y292100D01*
D15*
X190500Y469900D03*
X190500Y266700D03*
D14*
X190500Y469900D01*
X292100Y203200D02*
X292100Y139700D01*
X292100Y203200D02*
X304800Y215900D01*
X292100Y203200D02*
X254000Y215900D01*
D15*
X38100Y431800D03*
D14*
X38100Y114300D01*
D15*
X38100Y114300D03*
D14*
X139700Y152400D02*
X139700Y203200D01*
X431800Y203200D02*
X431800Y152400D01*
X406400Y152400D02*
X406400Y203200D01*
D15*
X368300Y203200D03*
D14*
X368300Y317500D01*
D15*
X368300Y317500D03*
X279400Y317500D03*
D14*
X279400Y469900D01*
M02*
