G04 EAGLE Gerber RS-274X export*
G75*
%MOMM*%
%FSLAX34Y34*%
%LPD*%
%INTop Copper*%
%IPPOS*%
%AMOC8*
5,1,8,0,0,1.08239X$1,22.5*%
G01*
%ADD10R,0.600000X1.550000*%
%ADD11P,1.429621X8X112.500000*%
%ADD12P,1.429621X8X292.500000*%
%ADD13C,1.508000*%
%ADD14P,1.429621X8X22.500000*%
%ADD15C,0.152400*%
%ADD16C,0.756400*%
%ADD17C,0.508000*%


D10*
X241300Y344500D03*
X254000Y344500D03*
X266700Y344500D03*
X279400Y344500D03*
X241300Y290500D03*
X254000Y290500D03*
X266700Y290500D03*
X279400Y290500D03*
X292100Y290500D03*
X304800Y290500D03*
X317500Y290500D03*
X317500Y344500D03*
X304800Y344500D03*
X292100Y344500D03*
D11*
X254000Y215900D03*
X254000Y241300D03*
X228600Y215900D03*
X228600Y241300D03*
X254000Y381000D03*
X254000Y406400D03*
D12*
X215900Y406400D03*
X215900Y381000D03*
X304800Y241300D03*
X304800Y215900D03*
D11*
X330200Y215900D03*
X330200Y241300D03*
X304800Y381000D03*
X304800Y406400D03*
X342900Y381000D03*
X342900Y406400D03*
D13*
X393700Y312340D02*
X393700Y297260D01*
X419100Y297260D02*
X419100Y312340D01*
X444500Y312340D02*
X444500Y297260D01*
X469900Y297260D02*
X469900Y312340D01*
X165100Y312340D02*
X165100Y297260D01*
X139700Y297260D02*
X139700Y312340D01*
X114300Y312340D02*
X114300Y297260D01*
X88900Y297260D02*
X88900Y312340D01*
X254000Y462360D02*
X254000Y477440D01*
X279400Y477440D02*
X279400Y462360D01*
X266700Y147240D02*
X266700Y132160D01*
X292100Y132160D02*
X292100Y147240D01*
D14*
X139700Y203200D03*
X165100Y203200D03*
X139700Y152400D03*
X165100Y152400D03*
X406400Y203200D03*
X431800Y203200D03*
X406400Y152400D03*
X431800Y152400D03*
D15*
X342900Y398986D02*
X342900Y406400D01*
D16*
X88900Y381000D03*
D17*
X215900Y381000D01*
X165100Y304800D02*
X179400Y290500D01*
X241300Y290500D01*
X317500Y290500D02*
X355600Y292100D01*
D16*
X355600Y292100D03*
X355600Y76200D03*
D17*
X101600Y76200D01*
D16*
X101600Y76200D03*
X114300Y520700D03*
D17*
X368300Y520700D01*
D16*
X368300Y520700D03*
D17*
X393700Y304800D02*
X266700Y304800D01*
X266700Y290500D01*
D16*
X419100Y266700D03*
D17*
X292100Y266700D01*
D16*
X292100Y266700D03*
D17*
X444500Y304800D02*
X444500Y330200D01*
X292100Y330200D01*
X292100Y344500D01*
D16*
X469900Y431800D03*
D17*
X266700Y431800D01*
D16*
X266700Y431800D03*
X165100Y254000D03*
D17*
X177800Y266700D01*
X190500Y266700D01*
D16*
X279400Y266700D03*
D17*
X190500Y266700D01*
X190500Y469900D02*
X254000Y469900D01*
D16*
X190500Y469900D03*
X190500Y266700D03*
D17*
X266700Y139700D02*
X292100Y139700D01*
X304800Y406400D02*
X254000Y406400D01*
X254000Y431800D01*
X38100Y431800D01*
D16*
X38100Y431800D03*
X38100Y114300D03*
D17*
X266700Y114300D01*
X266700Y139700D01*
X368300Y203200D02*
X406400Y203200D01*
D16*
X368300Y203200D03*
X368300Y317500D03*
D17*
X279400Y317500D01*
D16*
X279400Y317500D03*
M02*
