G04 EAGLE Gerber RS-274X export*
G75*
%MOMM*%
%FSLAX34Y34*%
%LPD*%
%INSilkscreen Top*%
%IPPOS*%
%AMOC8*
5,1,8,0,0,1.08239X$1,22.5*%
G01*
%ADD10C,0.076200*%
%ADD11C,0.127000*%
%ADD12C,0.101600*%
%ADD13C,0.508000*%
%ADD14C,0.254000*%


D10*
X254381Y515747D02*
X256836Y508381D01*
X259292Y515747D01*
X262184Y511246D02*
X267095Y511246D01*
X264639Y513701D02*
X264639Y508790D01*
X273888Y515747D02*
X276343Y508381D01*
X278799Y515747D01*
X281691Y511246D02*
X286602Y511246D01*
X236827Y131473D02*
X236827Y130246D01*
X236827Y131473D02*
X240919Y131473D01*
X240919Y129018D01*
X240917Y128940D01*
X240912Y128862D01*
X240902Y128785D01*
X240889Y128708D01*
X240873Y128632D01*
X240853Y128557D01*
X240829Y128483D01*
X240802Y128410D01*
X240771Y128338D01*
X240737Y128268D01*
X240700Y128200D01*
X240659Y128133D01*
X240615Y128068D01*
X240569Y128006D01*
X240519Y127946D01*
X240467Y127888D01*
X240412Y127833D01*
X240354Y127781D01*
X240294Y127731D01*
X240232Y127685D01*
X240167Y127641D01*
X240101Y127600D01*
X240032Y127563D01*
X239962Y127529D01*
X239890Y127498D01*
X239817Y127471D01*
X239743Y127447D01*
X239668Y127427D01*
X239592Y127411D01*
X239515Y127398D01*
X239438Y127388D01*
X239360Y127383D01*
X239282Y127381D01*
X235190Y127381D01*
X235110Y127383D01*
X235030Y127389D01*
X234950Y127399D01*
X234871Y127412D01*
X234792Y127430D01*
X234715Y127451D01*
X234639Y127477D01*
X234564Y127506D01*
X234490Y127538D01*
X234418Y127574D01*
X234348Y127614D01*
X234281Y127657D01*
X234215Y127703D01*
X234152Y127753D01*
X234091Y127805D01*
X234032Y127860D01*
X233977Y127919D01*
X233925Y127979D01*
X233875Y128043D01*
X233829Y128108D01*
X233786Y128176D01*
X233746Y128246D01*
X233710Y128318D01*
X233678Y128392D01*
X233649Y128466D01*
X233624Y128543D01*
X233602Y128620D01*
X233584Y128699D01*
X233571Y128778D01*
X233561Y128857D01*
X233555Y128938D01*
X233553Y129018D01*
X233553Y131473D01*
X236008Y135105D02*
X240919Y135105D01*
X236008Y135105D02*
X236008Y137152D01*
X236010Y137221D01*
X236016Y137289D01*
X236025Y137358D01*
X236039Y137425D01*
X236056Y137492D01*
X236077Y137558D01*
X236101Y137622D01*
X236130Y137685D01*
X236161Y137746D01*
X236196Y137805D01*
X236234Y137863D01*
X236276Y137918D01*
X236320Y137970D01*
X236368Y138020D01*
X236418Y138068D01*
X236470Y138112D01*
X236525Y138154D01*
X236583Y138192D01*
X236642Y138227D01*
X236703Y138258D01*
X236766Y138287D01*
X236830Y138311D01*
X236896Y138332D01*
X236963Y138349D01*
X237030Y138363D01*
X237099Y138372D01*
X237167Y138378D01*
X237236Y138380D01*
X237236Y138379D02*
X240919Y138379D01*
X240919Y144922D02*
X233553Y144922D01*
X240919Y144922D02*
X240919Y142876D01*
X240917Y142807D01*
X240911Y142739D01*
X240902Y142670D01*
X240888Y142603D01*
X240871Y142536D01*
X240850Y142470D01*
X240826Y142406D01*
X240797Y142343D01*
X240766Y142282D01*
X240731Y142223D01*
X240693Y142165D01*
X240651Y142110D01*
X240607Y142058D01*
X240559Y142008D01*
X240509Y141960D01*
X240457Y141916D01*
X240402Y141875D01*
X240344Y141836D01*
X240285Y141801D01*
X240224Y141770D01*
X240161Y141741D01*
X240097Y141717D01*
X240031Y141696D01*
X239964Y141679D01*
X239897Y141665D01*
X239829Y141656D01*
X239760Y141650D01*
X239691Y141648D01*
X237236Y141648D01*
X237167Y141650D01*
X237099Y141656D01*
X237030Y141665D01*
X236963Y141679D01*
X236896Y141696D01*
X236830Y141717D01*
X236766Y141741D01*
X236703Y141770D01*
X236642Y141801D01*
X236583Y141836D01*
X236525Y141874D01*
X236470Y141916D01*
X236418Y141960D01*
X236368Y142008D01*
X236320Y142058D01*
X236276Y142110D01*
X236234Y142165D01*
X236196Y142223D01*
X236161Y142282D01*
X236130Y142343D01*
X236101Y142406D01*
X236077Y142470D01*
X236056Y142536D01*
X236039Y142603D01*
X236025Y142670D01*
X236016Y142739D01*
X236010Y142807D01*
X236008Y142876D01*
X236008Y144922D01*
X321155Y138570D02*
X321155Y137343D01*
X321155Y138570D02*
X325247Y138570D01*
X325247Y136115D01*
X325245Y136037D01*
X325240Y135959D01*
X325230Y135882D01*
X325217Y135805D01*
X325201Y135729D01*
X325181Y135654D01*
X325157Y135580D01*
X325130Y135507D01*
X325099Y135435D01*
X325065Y135365D01*
X325028Y135297D01*
X324987Y135230D01*
X324943Y135165D01*
X324897Y135103D01*
X324847Y135043D01*
X324795Y134985D01*
X324740Y134930D01*
X324682Y134878D01*
X324622Y134828D01*
X324560Y134782D01*
X324495Y134738D01*
X324429Y134697D01*
X324360Y134660D01*
X324290Y134626D01*
X324218Y134595D01*
X324145Y134568D01*
X324071Y134544D01*
X323996Y134524D01*
X323920Y134508D01*
X323843Y134495D01*
X323766Y134485D01*
X323688Y134480D01*
X323610Y134478D01*
X319518Y134478D01*
X319438Y134480D01*
X319358Y134486D01*
X319278Y134496D01*
X319199Y134509D01*
X319120Y134527D01*
X319043Y134548D01*
X318967Y134574D01*
X318892Y134603D01*
X318818Y134635D01*
X318746Y134671D01*
X318676Y134711D01*
X318609Y134754D01*
X318543Y134800D01*
X318480Y134850D01*
X318419Y134902D01*
X318360Y134957D01*
X318305Y135016D01*
X318253Y135076D01*
X318203Y135140D01*
X318157Y135205D01*
X318114Y135273D01*
X318074Y135343D01*
X318038Y135415D01*
X318006Y135489D01*
X317977Y135563D01*
X317952Y135640D01*
X317930Y135717D01*
X317912Y135796D01*
X317899Y135875D01*
X317889Y135954D01*
X317883Y136035D01*
X317881Y136115D01*
X317881Y138570D01*
X320336Y142203D02*
X325247Y142203D01*
X320336Y142203D02*
X320336Y144249D01*
X320338Y144318D01*
X320344Y144386D01*
X320353Y144455D01*
X320367Y144522D01*
X320384Y144589D01*
X320405Y144655D01*
X320429Y144719D01*
X320458Y144782D01*
X320489Y144843D01*
X320524Y144902D01*
X320562Y144960D01*
X320604Y145015D01*
X320648Y145067D01*
X320696Y145117D01*
X320746Y145165D01*
X320798Y145209D01*
X320853Y145251D01*
X320911Y145289D01*
X320970Y145324D01*
X321031Y145355D01*
X321094Y145384D01*
X321158Y145408D01*
X321224Y145429D01*
X321291Y145446D01*
X321358Y145460D01*
X321427Y145469D01*
X321495Y145475D01*
X321564Y145477D01*
X321564Y145476D02*
X325247Y145476D01*
X325247Y152019D02*
X317881Y152019D01*
X325247Y152019D02*
X325247Y149973D01*
X325245Y149904D01*
X325239Y149836D01*
X325230Y149767D01*
X325216Y149700D01*
X325199Y149633D01*
X325178Y149567D01*
X325154Y149503D01*
X325125Y149440D01*
X325094Y149379D01*
X325059Y149320D01*
X325021Y149262D01*
X324979Y149207D01*
X324935Y149155D01*
X324887Y149105D01*
X324837Y149057D01*
X324785Y149013D01*
X324730Y148972D01*
X324672Y148933D01*
X324613Y148898D01*
X324552Y148867D01*
X324489Y148838D01*
X324425Y148814D01*
X324359Y148793D01*
X324292Y148776D01*
X324225Y148762D01*
X324157Y148753D01*
X324088Y148747D01*
X324019Y148745D01*
X321564Y148745D01*
X321495Y148747D01*
X321427Y148753D01*
X321358Y148762D01*
X321291Y148776D01*
X321224Y148793D01*
X321158Y148814D01*
X321094Y148838D01*
X321031Y148867D01*
X320970Y148898D01*
X320911Y148933D01*
X320853Y148971D01*
X320798Y149013D01*
X320746Y149057D01*
X320696Y149105D01*
X320648Y149155D01*
X320604Y149207D01*
X320562Y149262D01*
X320524Y149320D01*
X320489Y149379D01*
X320458Y149440D01*
X320429Y149503D01*
X320405Y149567D01*
X320384Y149633D01*
X320367Y149700D01*
X320353Y149767D01*
X320344Y149836D01*
X320338Y149904D01*
X320336Y149973D01*
X320336Y152019D01*
X333036Y482981D02*
X333114Y482983D01*
X333192Y482988D01*
X333269Y482998D01*
X333346Y483011D01*
X333422Y483027D01*
X333497Y483047D01*
X333571Y483071D01*
X333644Y483098D01*
X333716Y483129D01*
X333786Y483163D01*
X333855Y483200D01*
X333921Y483241D01*
X333986Y483285D01*
X334048Y483331D01*
X334108Y483381D01*
X334166Y483433D01*
X334221Y483488D01*
X334273Y483546D01*
X334323Y483606D01*
X334369Y483668D01*
X334413Y483733D01*
X334454Y483800D01*
X334491Y483868D01*
X334525Y483938D01*
X334556Y484010D01*
X334583Y484083D01*
X334607Y484157D01*
X334627Y484232D01*
X334643Y484308D01*
X334656Y484385D01*
X334666Y484462D01*
X334671Y484540D01*
X334673Y484618D01*
X333036Y482981D02*
X332922Y482983D01*
X332809Y482988D01*
X332695Y482998D01*
X332582Y483011D01*
X332470Y483028D01*
X332358Y483048D01*
X332247Y483072D01*
X332136Y483100D01*
X332027Y483131D01*
X331919Y483166D01*
X331812Y483205D01*
X331706Y483247D01*
X331602Y483292D01*
X331499Y483341D01*
X331398Y483394D01*
X331299Y483449D01*
X331201Y483508D01*
X331106Y483570D01*
X331013Y483635D01*
X330921Y483703D01*
X330833Y483774D01*
X330746Y483848D01*
X330662Y483925D01*
X330581Y484004D01*
X330785Y488710D02*
X330787Y488788D01*
X330792Y488866D01*
X330802Y488943D01*
X330815Y489020D01*
X330831Y489096D01*
X330851Y489171D01*
X330875Y489245D01*
X330902Y489318D01*
X330933Y489390D01*
X330967Y489460D01*
X331004Y489529D01*
X331045Y489595D01*
X331089Y489660D01*
X331135Y489722D01*
X331185Y489782D01*
X331237Y489840D01*
X331292Y489895D01*
X331350Y489947D01*
X331410Y489997D01*
X331472Y490043D01*
X331537Y490087D01*
X331604Y490128D01*
X331672Y490165D01*
X331742Y490199D01*
X331814Y490230D01*
X331887Y490257D01*
X331961Y490281D01*
X332036Y490301D01*
X332112Y490317D01*
X332189Y490330D01*
X332266Y490340D01*
X332344Y490345D01*
X332422Y490347D01*
X332532Y490345D01*
X332641Y490339D01*
X332751Y490329D01*
X332859Y490316D01*
X332968Y490298D01*
X333075Y490277D01*
X333182Y490251D01*
X333288Y490222D01*
X333393Y490190D01*
X333496Y490153D01*
X333598Y490113D01*
X333699Y490069D01*
X333798Y490021D01*
X333895Y489971D01*
X333990Y489916D01*
X334083Y489858D01*
X334174Y489797D01*
X334263Y489733D01*
X331604Y487277D02*
X331537Y487319D01*
X331472Y487363D01*
X331410Y487411D01*
X331350Y487461D01*
X331292Y487514D01*
X331237Y487570D01*
X331185Y487629D01*
X331135Y487689D01*
X331088Y487753D01*
X331045Y487818D01*
X331004Y487885D01*
X330967Y487954D01*
X330933Y488025D01*
X330902Y488097D01*
X330875Y488171D01*
X330851Y488245D01*
X330831Y488321D01*
X330815Y488398D01*
X330802Y488475D01*
X330792Y488553D01*
X330787Y488632D01*
X330785Y488710D01*
X333855Y486050D02*
X333921Y486008D01*
X333986Y485964D01*
X334048Y485917D01*
X334108Y485866D01*
X334166Y485813D01*
X334221Y485757D01*
X334274Y485699D01*
X334323Y485638D01*
X334370Y485575D01*
X334413Y485510D01*
X334454Y485443D01*
X334491Y485374D01*
X334525Y485303D01*
X334556Y485231D01*
X334583Y485157D01*
X334607Y485082D01*
X334627Y485007D01*
X334643Y484930D01*
X334656Y484853D01*
X334666Y484775D01*
X334671Y484696D01*
X334673Y484618D01*
X333855Y486050D02*
X331604Y487278D01*
X337504Y487892D02*
X337504Y482981D01*
X337299Y489938D02*
X337299Y490347D01*
X337709Y490347D01*
X337709Y489938D01*
X337299Y489938D01*
X340744Y487892D02*
X340744Y482981D01*
X340744Y487892D02*
X342790Y487892D01*
X342859Y487890D01*
X342927Y487884D01*
X342996Y487875D01*
X343063Y487861D01*
X343130Y487844D01*
X343196Y487823D01*
X343260Y487799D01*
X343323Y487770D01*
X343384Y487739D01*
X343443Y487704D01*
X343501Y487666D01*
X343556Y487624D01*
X343608Y487580D01*
X343658Y487532D01*
X343706Y487482D01*
X343750Y487430D01*
X343792Y487375D01*
X343830Y487317D01*
X343865Y487258D01*
X343896Y487197D01*
X343925Y487134D01*
X343949Y487070D01*
X343970Y487004D01*
X343987Y486937D01*
X344001Y486870D01*
X344010Y486801D01*
X344016Y486733D01*
X344018Y486664D01*
X344018Y482981D01*
X348514Y482981D02*
X350560Y482981D01*
X348514Y482981D02*
X348445Y482983D01*
X348377Y482989D01*
X348308Y482998D01*
X348241Y483012D01*
X348174Y483029D01*
X348108Y483050D01*
X348044Y483074D01*
X347981Y483103D01*
X347920Y483134D01*
X347861Y483169D01*
X347803Y483207D01*
X347748Y483249D01*
X347696Y483293D01*
X347646Y483341D01*
X347598Y483391D01*
X347554Y483443D01*
X347512Y483498D01*
X347474Y483556D01*
X347439Y483615D01*
X347408Y483676D01*
X347379Y483739D01*
X347355Y483803D01*
X347334Y483869D01*
X347317Y483936D01*
X347303Y484003D01*
X347294Y484072D01*
X347288Y484140D01*
X347286Y484209D01*
X347287Y484209D02*
X347287Y486664D01*
X347286Y486664D02*
X347288Y486733D01*
X347294Y486801D01*
X347303Y486870D01*
X347317Y486937D01*
X347334Y487004D01*
X347355Y487070D01*
X347379Y487134D01*
X347408Y487197D01*
X347439Y487258D01*
X347474Y487317D01*
X347512Y487375D01*
X347554Y487430D01*
X347598Y487482D01*
X347646Y487532D01*
X347696Y487580D01*
X347748Y487624D01*
X347803Y487666D01*
X347861Y487704D01*
X347920Y487739D01*
X347981Y487770D01*
X348044Y487799D01*
X348108Y487823D01*
X348174Y487844D01*
X348241Y487861D01*
X348308Y487875D01*
X348377Y487884D01*
X348445Y487890D01*
X348514Y487892D01*
X350560Y487892D01*
X350560Y481753D01*
X350561Y481753D02*
X350559Y481684D01*
X350553Y481616D01*
X350544Y481547D01*
X350530Y481480D01*
X350513Y481413D01*
X350492Y481347D01*
X350468Y481283D01*
X350439Y481220D01*
X350408Y481159D01*
X350373Y481100D01*
X350335Y481042D01*
X350293Y480987D01*
X350249Y480935D01*
X350201Y480885D01*
X350151Y480837D01*
X350099Y480793D01*
X350044Y480752D01*
X349986Y480713D01*
X349927Y480678D01*
X349866Y480647D01*
X349803Y480618D01*
X349739Y480594D01*
X349673Y480573D01*
X349606Y480556D01*
X349539Y480542D01*
X349471Y480533D01*
X349402Y480527D01*
X349333Y480525D01*
X349333Y480526D02*
X347696Y480526D01*
X353994Y484209D02*
X353994Y490347D01*
X353994Y484209D02*
X353996Y484140D01*
X354002Y484072D01*
X354011Y484003D01*
X354025Y483936D01*
X354042Y483869D01*
X354063Y483803D01*
X354087Y483739D01*
X354116Y483676D01*
X354147Y483615D01*
X354182Y483556D01*
X354220Y483498D01*
X354262Y483443D01*
X354306Y483391D01*
X354354Y483341D01*
X354404Y483293D01*
X354456Y483249D01*
X354511Y483207D01*
X354569Y483169D01*
X354628Y483134D01*
X354689Y483103D01*
X354752Y483074D01*
X354816Y483050D01*
X354882Y483029D01*
X354949Y483012D01*
X355016Y482998D01*
X355085Y482989D01*
X355153Y482983D01*
X355222Y482981D01*
X359040Y482981D02*
X361086Y482981D01*
X359040Y482981D02*
X358971Y482983D01*
X358903Y482989D01*
X358834Y482998D01*
X358767Y483012D01*
X358700Y483029D01*
X358634Y483050D01*
X358570Y483074D01*
X358507Y483103D01*
X358446Y483134D01*
X358387Y483169D01*
X358329Y483207D01*
X358274Y483249D01*
X358222Y483293D01*
X358172Y483341D01*
X358124Y483391D01*
X358080Y483443D01*
X358038Y483498D01*
X358000Y483556D01*
X357965Y483615D01*
X357934Y483676D01*
X357905Y483739D01*
X357881Y483803D01*
X357860Y483869D01*
X357843Y483936D01*
X357829Y484003D01*
X357820Y484072D01*
X357814Y484140D01*
X357812Y484209D01*
X357813Y484209D02*
X357813Y486255D01*
X357812Y486255D02*
X357814Y486334D01*
X357820Y486413D01*
X357829Y486492D01*
X357842Y486570D01*
X357860Y486647D01*
X357880Y486723D01*
X357905Y486798D01*
X357933Y486872D01*
X357964Y486945D01*
X358000Y487016D01*
X358038Y487085D01*
X358080Y487152D01*
X358125Y487217D01*
X358173Y487280D01*
X358224Y487341D01*
X358278Y487398D01*
X358334Y487454D01*
X358393Y487506D01*
X358455Y487556D01*
X358519Y487602D01*
X358585Y487646D01*
X358653Y487686D01*
X358723Y487722D01*
X358795Y487756D01*
X358869Y487786D01*
X358943Y487812D01*
X359019Y487835D01*
X359096Y487853D01*
X359173Y487869D01*
X359252Y487880D01*
X359330Y487888D01*
X359409Y487892D01*
X359489Y487892D01*
X359568Y487888D01*
X359646Y487880D01*
X359725Y487869D01*
X359802Y487853D01*
X359879Y487835D01*
X359955Y487812D01*
X360029Y487786D01*
X360103Y487756D01*
X360175Y487722D01*
X360245Y487686D01*
X360313Y487646D01*
X360379Y487602D01*
X360443Y487556D01*
X360505Y487506D01*
X360564Y487454D01*
X360620Y487398D01*
X360674Y487341D01*
X360725Y487280D01*
X360773Y487217D01*
X360818Y487152D01*
X360860Y487085D01*
X360898Y487016D01*
X360934Y486945D01*
X360965Y486872D01*
X360993Y486798D01*
X361018Y486723D01*
X361038Y486647D01*
X361056Y486570D01*
X361069Y486492D01*
X361078Y486413D01*
X361084Y486334D01*
X361086Y486255D01*
X361086Y485436D01*
X357813Y485436D01*
X367723Y490347D02*
X370178Y482981D01*
X372634Y490347D01*
X376760Y485846D02*
X378602Y485846D01*
X376760Y485845D02*
X376685Y485843D01*
X376610Y485837D01*
X376536Y485827D01*
X376462Y485814D01*
X376389Y485796D01*
X376317Y485775D01*
X376247Y485750D01*
X376178Y485721D01*
X376110Y485689D01*
X376044Y485653D01*
X375980Y485614D01*
X375918Y485572D01*
X375859Y485526D01*
X375802Y485477D01*
X375747Y485426D01*
X375696Y485371D01*
X375647Y485314D01*
X375601Y485255D01*
X375559Y485193D01*
X375520Y485129D01*
X375484Y485063D01*
X375452Y484995D01*
X375423Y484926D01*
X375398Y484856D01*
X375377Y484784D01*
X375359Y484711D01*
X375346Y484637D01*
X375336Y484563D01*
X375330Y484488D01*
X375328Y484413D01*
X375330Y484338D01*
X375336Y484263D01*
X375346Y484189D01*
X375359Y484115D01*
X375377Y484042D01*
X375398Y483970D01*
X375423Y483900D01*
X375452Y483831D01*
X375484Y483763D01*
X375520Y483697D01*
X375559Y483633D01*
X375601Y483571D01*
X375647Y483512D01*
X375696Y483455D01*
X375747Y483400D01*
X375802Y483349D01*
X375859Y483300D01*
X375918Y483254D01*
X375980Y483212D01*
X376044Y483173D01*
X376110Y483137D01*
X376178Y483105D01*
X376247Y483076D01*
X376317Y483051D01*
X376389Y483030D01*
X376462Y483012D01*
X376536Y482999D01*
X376610Y482989D01*
X376685Y482983D01*
X376760Y482981D01*
X378602Y482981D01*
X378602Y486664D01*
X378600Y486733D01*
X378594Y486801D01*
X378585Y486870D01*
X378571Y486937D01*
X378554Y487004D01*
X378533Y487070D01*
X378509Y487134D01*
X378480Y487197D01*
X378449Y487258D01*
X378414Y487317D01*
X378376Y487375D01*
X378334Y487430D01*
X378290Y487482D01*
X378242Y487532D01*
X378192Y487580D01*
X378140Y487624D01*
X378085Y487666D01*
X378027Y487704D01*
X377968Y487739D01*
X377907Y487770D01*
X377844Y487799D01*
X377780Y487823D01*
X377714Y487844D01*
X377647Y487861D01*
X377580Y487875D01*
X377511Y487884D01*
X377443Y487890D01*
X377374Y487892D01*
X375737Y487892D01*
X382243Y487892D02*
X382243Y482981D01*
X382243Y487892D02*
X384698Y487892D01*
X384698Y487073D01*
X388464Y485846D02*
X390306Y485846D01*
X388464Y485845D02*
X388389Y485843D01*
X388314Y485837D01*
X388240Y485827D01*
X388166Y485814D01*
X388093Y485796D01*
X388021Y485775D01*
X387951Y485750D01*
X387882Y485721D01*
X387814Y485689D01*
X387748Y485653D01*
X387684Y485614D01*
X387622Y485572D01*
X387563Y485526D01*
X387506Y485477D01*
X387451Y485426D01*
X387400Y485371D01*
X387351Y485314D01*
X387305Y485255D01*
X387263Y485193D01*
X387224Y485129D01*
X387188Y485063D01*
X387156Y484995D01*
X387127Y484926D01*
X387102Y484856D01*
X387081Y484784D01*
X387063Y484711D01*
X387050Y484637D01*
X387040Y484563D01*
X387034Y484488D01*
X387032Y484413D01*
X387034Y484338D01*
X387040Y484263D01*
X387050Y484189D01*
X387063Y484115D01*
X387081Y484042D01*
X387102Y483970D01*
X387127Y483900D01*
X387156Y483831D01*
X387188Y483763D01*
X387224Y483697D01*
X387263Y483633D01*
X387305Y483571D01*
X387351Y483512D01*
X387400Y483455D01*
X387451Y483400D01*
X387506Y483349D01*
X387563Y483300D01*
X387622Y483254D01*
X387684Y483212D01*
X387748Y483173D01*
X387814Y483137D01*
X387882Y483105D01*
X387951Y483076D01*
X388021Y483051D01*
X388093Y483030D01*
X388166Y483012D01*
X388240Y482999D01*
X388314Y482989D01*
X388389Y482983D01*
X388464Y482981D01*
X390306Y482981D01*
X390306Y486664D01*
X390304Y486733D01*
X390298Y486801D01*
X390289Y486870D01*
X390275Y486937D01*
X390258Y487004D01*
X390237Y487070D01*
X390213Y487134D01*
X390184Y487197D01*
X390153Y487258D01*
X390118Y487317D01*
X390080Y487375D01*
X390038Y487430D01*
X389994Y487482D01*
X389946Y487532D01*
X389896Y487580D01*
X389844Y487624D01*
X389789Y487666D01*
X389731Y487704D01*
X389672Y487739D01*
X389611Y487770D01*
X389548Y487799D01*
X389484Y487823D01*
X389418Y487844D01*
X389351Y487861D01*
X389284Y487875D01*
X389215Y487884D01*
X389147Y487890D01*
X389078Y487892D01*
X387441Y487892D01*
X394894Y482981D02*
X396531Y482981D01*
X394894Y482981D02*
X394825Y482983D01*
X394757Y482989D01*
X394688Y482998D01*
X394621Y483012D01*
X394554Y483029D01*
X394488Y483050D01*
X394424Y483074D01*
X394361Y483103D01*
X394300Y483134D01*
X394241Y483169D01*
X394183Y483207D01*
X394128Y483249D01*
X394076Y483293D01*
X394026Y483341D01*
X393978Y483391D01*
X393934Y483443D01*
X393892Y483498D01*
X393854Y483556D01*
X393819Y483615D01*
X393788Y483676D01*
X393759Y483739D01*
X393735Y483803D01*
X393714Y483869D01*
X393697Y483936D01*
X393683Y484003D01*
X393674Y484072D01*
X393668Y484140D01*
X393666Y484209D01*
X393666Y486664D01*
X393668Y486733D01*
X393674Y486801D01*
X393683Y486870D01*
X393697Y486937D01*
X393714Y487004D01*
X393735Y487070D01*
X393759Y487134D01*
X393788Y487197D01*
X393819Y487258D01*
X393854Y487317D01*
X393892Y487375D01*
X393934Y487430D01*
X393978Y487482D01*
X394026Y487532D01*
X394076Y487580D01*
X394128Y487624D01*
X394183Y487666D01*
X394241Y487704D01*
X394300Y487739D01*
X394361Y487770D01*
X394424Y487799D01*
X394488Y487823D01*
X394554Y487844D01*
X394621Y487861D01*
X394688Y487875D01*
X394757Y487884D01*
X394825Y487890D01*
X394894Y487892D01*
X396531Y487892D01*
X398635Y487892D02*
X401090Y487892D01*
X399453Y490347D02*
X399453Y484209D01*
X399455Y484140D01*
X399461Y484072D01*
X399470Y484003D01*
X399484Y483936D01*
X399501Y483869D01*
X399522Y483803D01*
X399546Y483739D01*
X399575Y483676D01*
X399606Y483615D01*
X399641Y483556D01*
X399679Y483498D01*
X399721Y483443D01*
X399765Y483391D01*
X399813Y483341D01*
X399863Y483293D01*
X399915Y483249D01*
X399970Y483207D01*
X400028Y483169D01*
X400087Y483134D01*
X400148Y483103D01*
X400211Y483074D01*
X400275Y483050D01*
X400341Y483029D01*
X400408Y483012D01*
X400475Y482998D01*
X400544Y482989D01*
X400612Y482983D01*
X400681Y482981D01*
X401090Y482981D01*
X403898Y484618D02*
X403898Y486255D01*
X403900Y486334D01*
X403906Y486413D01*
X403915Y486492D01*
X403928Y486570D01*
X403946Y486647D01*
X403966Y486723D01*
X403991Y486798D01*
X404019Y486872D01*
X404050Y486945D01*
X404086Y487016D01*
X404124Y487085D01*
X404166Y487152D01*
X404211Y487217D01*
X404259Y487280D01*
X404310Y487341D01*
X404364Y487398D01*
X404420Y487454D01*
X404479Y487506D01*
X404541Y487556D01*
X404605Y487602D01*
X404671Y487646D01*
X404739Y487686D01*
X404809Y487722D01*
X404881Y487756D01*
X404955Y487786D01*
X405029Y487812D01*
X405105Y487835D01*
X405182Y487853D01*
X405259Y487869D01*
X405338Y487880D01*
X405416Y487888D01*
X405495Y487892D01*
X405575Y487892D01*
X405654Y487888D01*
X405732Y487880D01*
X405811Y487869D01*
X405888Y487853D01*
X405965Y487835D01*
X406041Y487812D01*
X406115Y487786D01*
X406189Y487756D01*
X406261Y487722D01*
X406331Y487686D01*
X406399Y487646D01*
X406465Y487602D01*
X406529Y487556D01*
X406591Y487506D01*
X406650Y487454D01*
X406706Y487398D01*
X406760Y487341D01*
X406811Y487280D01*
X406859Y487217D01*
X406904Y487152D01*
X406946Y487085D01*
X406984Y487016D01*
X407020Y486945D01*
X407051Y486872D01*
X407079Y486798D01*
X407104Y486723D01*
X407124Y486647D01*
X407142Y486570D01*
X407155Y486492D01*
X407164Y486413D01*
X407170Y486334D01*
X407172Y486255D01*
X407172Y484618D01*
X407170Y484539D01*
X407164Y484460D01*
X407155Y484381D01*
X407142Y484303D01*
X407124Y484226D01*
X407104Y484150D01*
X407079Y484075D01*
X407051Y484001D01*
X407020Y483928D01*
X406984Y483857D01*
X406946Y483788D01*
X406904Y483721D01*
X406859Y483656D01*
X406811Y483593D01*
X406760Y483532D01*
X406706Y483475D01*
X406650Y483419D01*
X406591Y483367D01*
X406529Y483317D01*
X406465Y483271D01*
X406399Y483227D01*
X406331Y483187D01*
X406261Y483151D01*
X406189Y483117D01*
X406115Y483087D01*
X406041Y483061D01*
X405965Y483038D01*
X405888Y483020D01*
X405811Y483004D01*
X405732Y482993D01*
X405654Y482985D01*
X405575Y482981D01*
X405495Y482981D01*
X405416Y482985D01*
X405338Y482993D01*
X405259Y483004D01*
X405182Y483020D01*
X405105Y483038D01*
X405029Y483061D01*
X404955Y483087D01*
X404881Y483117D01*
X404809Y483151D01*
X404739Y483187D01*
X404671Y483227D01*
X404605Y483271D01*
X404541Y483317D01*
X404479Y483367D01*
X404420Y483419D01*
X404364Y483475D01*
X404310Y483532D01*
X404259Y483593D01*
X404211Y483656D01*
X404166Y483721D01*
X404124Y483788D01*
X404086Y483857D01*
X404050Y483928D01*
X404019Y484001D01*
X403991Y484075D01*
X403966Y484150D01*
X403946Y484226D01*
X403928Y484303D01*
X403915Y484381D01*
X403906Y484460D01*
X403900Y484539D01*
X403898Y484618D01*
X410528Y482981D02*
X410528Y487892D01*
X412983Y487892D01*
X412983Y487073D01*
X420897Y490347D02*
X420897Y482981D01*
X418851Y490347D02*
X422943Y490347D01*
X425844Y487892D02*
X425844Y484209D01*
X425843Y484209D02*
X425845Y484140D01*
X425851Y484072D01*
X425860Y484003D01*
X425874Y483936D01*
X425891Y483869D01*
X425912Y483803D01*
X425936Y483739D01*
X425965Y483676D01*
X425996Y483615D01*
X426031Y483556D01*
X426069Y483498D01*
X426111Y483443D01*
X426155Y483391D01*
X426203Y483341D01*
X426253Y483293D01*
X426305Y483249D01*
X426360Y483207D01*
X426418Y483169D01*
X426477Y483134D01*
X426538Y483103D01*
X426601Y483074D01*
X426665Y483050D01*
X426731Y483029D01*
X426798Y483012D01*
X426865Y482998D01*
X426934Y482989D01*
X427002Y482983D01*
X427071Y482981D01*
X429117Y482981D01*
X429117Y487892D01*
X432671Y487892D02*
X432671Y482981D01*
X432671Y487892D02*
X434717Y487892D01*
X434786Y487890D01*
X434854Y487884D01*
X434923Y487875D01*
X434990Y487861D01*
X435057Y487844D01*
X435123Y487823D01*
X435187Y487799D01*
X435250Y487770D01*
X435311Y487739D01*
X435370Y487704D01*
X435428Y487666D01*
X435483Y487624D01*
X435535Y487580D01*
X435585Y487532D01*
X435633Y487482D01*
X435677Y487430D01*
X435719Y487375D01*
X435757Y487317D01*
X435792Y487258D01*
X435823Y487197D01*
X435852Y487134D01*
X435876Y487070D01*
X435897Y487004D01*
X435914Y486937D01*
X435928Y486870D01*
X435937Y486801D01*
X435943Y486733D01*
X435945Y486664D01*
X435945Y482981D01*
X440482Y482981D02*
X442528Y482981D01*
X440482Y482981D02*
X440413Y482983D01*
X440345Y482989D01*
X440276Y482998D01*
X440209Y483012D01*
X440142Y483029D01*
X440076Y483050D01*
X440012Y483074D01*
X439949Y483103D01*
X439888Y483134D01*
X439829Y483169D01*
X439771Y483207D01*
X439716Y483249D01*
X439664Y483293D01*
X439614Y483341D01*
X439566Y483391D01*
X439522Y483443D01*
X439480Y483498D01*
X439442Y483556D01*
X439407Y483615D01*
X439376Y483676D01*
X439347Y483739D01*
X439323Y483803D01*
X439302Y483869D01*
X439285Y483936D01*
X439271Y484003D01*
X439262Y484072D01*
X439256Y484140D01*
X439254Y484209D01*
X439255Y484209D02*
X439255Y486255D01*
X439257Y486334D01*
X439263Y486413D01*
X439272Y486492D01*
X439285Y486570D01*
X439303Y486647D01*
X439323Y486723D01*
X439348Y486798D01*
X439376Y486872D01*
X439407Y486945D01*
X439443Y487016D01*
X439481Y487085D01*
X439523Y487152D01*
X439568Y487217D01*
X439616Y487280D01*
X439667Y487341D01*
X439721Y487398D01*
X439777Y487454D01*
X439836Y487506D01*
X439898Y487556D01*
X439962Y487602D01*
X440028Y487646D01*
X440096Y487686D01*
X440166Y487722D01*
X440238Y487756D01*
X440312Y487786D01*
X440386Y487812D01*
X440462Y487835D01*
X440539Y487853D01*
X440616Y487869D01*
X440695Y487880D01*
X440773Y487888D01*
X440852Y487892D01*
X440932Y487892D01*
X441011Y487888D01*
X441089Y487880D01*
X441168Y487869D01*
X441245Y487853D01*
X441322Y487835D01*
X441398Y487812D01*
X441472Y487786D01*
X441546Y487756D01*
X441618Y487722D01*
X441688Y487686D01*
X441756Y487646D01*
X441822Y487602D01*
X441886Y487556D01*
X441948Y487506D01*
X442007Y487454D01*
X442063Y487398D01*
X442117Y487341D01*
X442168Y487280D01*
X442216Y487217D01*
X442261Y487152D01*
X442303Y487085D01*
X442341Y487016D01*
X442377Y486945D01*
X442408Y486872D01*
X442436Y486798D01*
X442461Y486723D01*
X442481Y486647D01*
X442499Y486570D01*
X442512Y486492D01*
X442521Y486413D01*
X442527Y486334D01*
X442529Y486255D01*
X442528Y486255D02*
X442528Y485436D01*
X439255Y485436D01*
X445884Y482981D02*
X445884Y487892D01*
X448340Y487892D01*
X448340Y487073D01*
X333036Y477647D02*
X330581Y470281D01*
X335492Y470281D02*
X333036Y477647D01*
X331195Y472123D02*
X334878Y472123D01*
X341460Y470281D02*
X341460Y477647D01*
X341460Y470281D02*
X339414Y470281D01*
X339345Y470283D01*
X339277Y470289D01*
X339208Y470298D01*
X339141Y470312D01*
X339074Y470329D01*
X339008Y470350D01*
X338944Y470374D01*
X338881Y470403D01*
X338820Y470434D01*
X338761Y470469D01*
X338703Y470507D01*
X338648Y470549D01*
X338596Y470593D01*
X338546Y470641D01*
X338498Y470691D01*
X338454Y470743D01*
X338412Y470798D01*
X338374Y470856D01*
X338339Y470915D01*
X338308Y470976D01*
X338279Y471039D01*
X338255Y471103D01*
X338234Y471169D01*
X338217Y471236D01*
X338203Y471303D01*
X338194Y471372D01*
X338188Y471440D01*
X338186Y471509D01*
X338186Y473964D01*
X338188Y474033D01*
X338194Y474101D01*
X338203Y474170D01*
X338217Y474237D01*
X338234Y474304D01*
X338255Y474370D01*
X338279Y474434D01*
X338308Y474497D01*
X338339Y474558D01*
X338374Y474617D01*
X338412Y474675D01*
X338454Y474730D01*
X338498Y474782D01*
X338546Y474832D01*
X338596Y474880D01*
X338648Y474924D01*
X338703Y474966D01*
X338761Y475004D01*
X338820Y475039D01*
X338881Y475070D01*
X338944Y475099D01*
X339008Y475123D01*
X339074Y475144D01*
X339141Y475161D01*
X339208Y475175D01*
X339277Y475184D01*
X339345Y475190D01*
X339414Y475192D01*
X341460Y475192D01*
X344567Y475192D02*
X346204Y470281D01*
X347841Y475192D01*
X352054Y473146D02*
X353896Y473146D01*
X352054Y473145D02*
X351979Y473143D01*
X351904Y473137D01*
X351830Y473127D01*
X351756Y473114D01*
X351683Y473096D01*
X351611Y473075D01*
X351541Y473050D01*
X351472Y473021D01*
X351404Y472989D01*
X351338Y472953D01*
X351274Y472914D01*
X351212Y472872D01*
X351153Y472826D01*
X351096Y472777D01*
X351041Y472726D01*
X350990Y472671D01*
X350941Y472614D01*
X350895Y472555D01*
X350853Y472493D01*
X350814Y472429D01*
X350778Y472363D01*
X350746Y472295D01*
X350717Y472226D01*
X350692Y472156D01*
X350671Y472084D01*
X350653Y472011D01*
X350640Y471937D01*
X350630Y471863D01*
X350624Y471788D01*
X350622Y471713D01*
X350624Y471638D01*
X350630Y471563D01*
X350640Y471489D01*
X350653Y471415D01*
X350671Y471342D01*
X350692Y471270D01*
X350717Y471200D01*
X350746Y471131D01*
X350778Y471063D01*
X350814Y470997D01*
X350853Y470933D01*
X350895Y470871D01*
X350941Y470812D01*
X350990Y470755D01*
X351041Y470700D01*
X351096Y470649D01*
X351153Y470600D01*
X351212Y470554D01*
X351274Y470512D01*
X351338Y470473D01*
X351404Y470437D01*
X351472Y470405D01*
X351541Y470376D01*
X351611Y470351D01*
X351683Y470330D01*
X351756Y470312D01*
X351830Y470299D01*
X351904Y470289D01*
X351979Y470283D01*
X352054Y470281D01*
X353896Y470281D01*
X353896Y473964D01*
X353894Y474033D01*
X353888Y474101D01*
X353879Y474170D01*
X353865Y474237D01*
X353848Y474304D01*
X353827Y474370D01*
X353803Y474434D01*
X353774Y474497D01*
X353743Y474558D01*
X353708Y474617D01*
X353670Y474675D01*
X353628Y474730D01*
X353584Y474782D01*
X353536Y474832D01*
X353486Y474880D01*
X353434Y474924D01*
X353379Y474966D01*
X353321Y475004D01*
X353262Y475039D01*
X353201Y475070D01*
X353138Y475099D01*
X353074Y475123D01*
X353008Y475144D01*
X352941Y475161D01*
X352874Y475175D01*
X352805Y475184D01*
X352737Y475190D01*
X352668Y475192D01*
X351031Y475192D01*
X357490Y475192D02*
X357490Y470281D01*
X357490Y475192D02*
X359536Y475192D01*
X359605Y475190D01*
X359673Y475184D01*
X359742Y475175D01*
X359809Y475161D01*
X359876Y475144D01*
X359942Y475123D01*
X360006Y475099D01*
X360069Y475070D01*
X360130Y475039D01*
X360189Y475004D01*
X360247Y474966D01*
X360302Y474924D01*
X360354Y474880D01*
X360404Y474832D01*
X360452Y474782D01*
X360496Y474730D01*
X360538Y474675D01*
X360576Y474617D01*
X360611Y474558D01*
X360642Y474497D01*
X360671Y474434D01*
X360695Y474370D01*
X360716Y474304D01*
X360733Y474237D01*
X360747Y474170D01*
X360756Y474101D01*
X360762Y474033D01*
X360764Y473964D01*
X360764Y470281D01*
X365311Y470281D02*
X366948Y470281D01*
X365311Y470281D02*
X365242Y470283D01*
X365174Y470289D01*
X365105Y470298D01*
X365038Y470312D01*
X364971Y470329D01*
X364905Y470350D01*
X364841Y470374D01*
X364778Y470403D01*
X364717Y470434D01*
X364658Y470469D01*
X364600Y470507D01*
X364545Y470549D01*
X364493Y470593D01*
X364443Y470641D01*
X364395Y470691D01*
X364351Y470743D01*
X364309Y470798D01*
X364271Y470856D01*
X364236Y470915D01*
X364205Y470976D01*
X364176Y471039D01*
X364152Y471103D01*
X364131Y471169D01*
X364114Y471236D01*
X364100Y471303D01*
X364091Y471372D01*
X364085Y471440D01*
X364083Y471509D01*
X364083Y473964D01*
X364085Y474033D01*
X364091Y474101D01*
X364100Y474170D01*
X364114Y474237D01*
X364131Y474304D01*
X364152Y474370D01*
X364176Y474434D01*
X364205Y474497D01*
X364236Y474558D01*
X364271Y474617D01*
X364309Y474675D01*
X364351Y474730D01*
X364395Y474782D01*
X364443Y474832D01*
X364493Y474880D01*
X364545Y474924D01*
X364600Y474966D01*
X364658Y475004D01*
X364717Y475039D01*
X364778Y475070D01*
X364841Y475099D01*
X364905Y475123D01*
X364971Y475144D01*
X365038Y475161D01*
X365105Y475175D01*
X365174Y475184D01*
X365242Y475190D01*
X365311Y475192D01*
X366948Y475192D01*
X370910Y470281D02*
X372956Y470281D01*
X370910Y470281D02*
X370841Y470283D01*
X370773Y470289D01*
X370704Y470298D01*
X370637Y470312D01*
X370570Y470329D01*
X370504Y470350D01*
X370440Y470374D01*
X370377Y470403D01*
X370316Y470434D01*
X370257Y470469D01*
X370199Y470507D01*
X370144Y470549D01*
X370092Y470593D01*
X370042Y470641D01*
X369994Y470691D01*
X369950Y470743D01*
X369908Y470798D01*
X369870Y470856D01*
X369835Y470915D01*
X369804Y470976D01*
X369775Y471039D01*
X369751Y471103D01*
X369730Y471169D01*
X369713Y471236D01*
X369699Y471303D01*
X369690Y471372D01*
X369684Y471440D01*
X369682Y471509D01*
X369682Y473555D01*
X369684Y473634D01*
X369690Y473713D01*
X369699Y473792D01*
X369712Y473870D01*
X369730Y473947D01*
X369750Y474023D01*
X369775Y474098D01*
X369803Y474172D01*
X369834Y474245D01*
X369870Y474316D01*
X369908Y474385D01*
X369950Y474452D01*
X369995Y474517D01*
X370043Y474580D01*
X370094Y474641D01*
X370148Y474698D01*
X370204Y474754D01*
X370263Y474806D01*
X370325Y474856D01*
X370389Y474902D01*
X370455Y474946D01*
X370523Y474986D01*
X370593Y475022D01*
X370665Y475056D01*
X370739Y475086D01*
X370813Y475112D01*
X370889Y475135D01*
X370966Y475153D01*
X371043Y475169D01*
X371122Y475180D01*
X371200Y475188D01*
X371279Y475192D01*
X371359Y475192D01*
X371438Y475188D01*
X371516Y475180D01*
X371595Y475169D01*
X371672Y475153D01*
X371749Y475135D01*
X371825Y475112D01*
X371899Y475086D01*
X371973Y475056D01*
X372045Y475022D01*
X372115Y474986D01*
X372183Y474946D01*
X372249Y474902D01*
X372313Y474856D01*
X372375Y474806D01*
X372434Y474754D01*
X372490Y474698D01*
X372544Y474641D01*
X372595Y474580D01*
X372643Y474517D01*
X372688Y474452D01*
X372730Y474385D01*
X372768Y474316D01*
X372804Y474245D01*
X372835Y474172D01*
X372863Y474098D01*
X372888Y474023D01*
X372908Y473947D01*
X372926Y473870D01*
X372939Y473792D01*
X372948Y473713D01*
X372954Y473634D01*
X372956Y473555D01*
X372956Y472736D01*
X369682Y472736D01*
X379255Y470281D02*
X379255Y477647D01*
X379255Y470281D02*
X377209Y470281D01*
X377140Y470283D01*
X377072Y470289D01*
X377003Y470298D01*
X376936Y470312D01*
X376869Y470329D01*
X376803Y470350D01*
X376739Y470374D01*
X376676Y470403D01*
X376615Y470434D01*
X376556Y470469D01*
X376498Y470507D01*
X376443Y470549D01*
X376391Y470593D01*
X376341Y470641D01*
X376293Y470691D01*
X376249Y470743D01*
X376207Y470798D01*
X376169Y470856D01*
X376134Y470915D01*
X376103Y470976D01*
X376074Y471039D01*
X376050Y471103D01*
X376029Y471169D01*
X376012Y471236D01*
X375998Y471303D01*
X375989Y471372D01*
X375983Y471440D01*
X375981Y471509D01*
X375981Y473964D01*
X375983Y474033D01*
X375989Y474101D01*
X375998Y474170D01*
X376012Y474237D01*
X376029Y474304D01*
X376050Y474370D01*
X376074Y474434D01*
X376103Y474497D01*
X376134Y474558D01*
X376169Y474617D01*
X376207Y474675D01*
X376249Y474730D01*
X376293Y474782D01*
X376341Y474832D01*
X376391Y474880D01*
X376443Y474924D01*
X376498Y474966D01*
X376556Y475004D01*
X376615Y475039D01*
X376676Y475070D01*
X376739Y475099D01*
X376803Y475123D01*
X376869Y475144D01*
X376936Y475161D01*
X377003Y475175D01*
X377072Y475184D01*
X377140Y475190D01*
X377209Y475192D01*
X379255Y475192D01*
X386881Y477647D02*
X386881Y470281D01*
X386881Y477647D02*
X388927Y477647D01*
X389016Y477645D01*
X389105Y477639D01*
X389194Y477629D01*
X389282Y477616D01*
X389370Y477599D01*
X389457Y477577D01*
X389542Y477552D01*
X389627Y477524D01*
X389710Y477491D01*
X389792Y477455D01*
X389872Y477416D01*
X389950Y477373D01*
X390026Y477327D01*
X390101Y477277D01*
X390173Y477224D01*
X390242Y477168D01*
X390309Y477109D01*
X390374Y477048D01*
X390435Y476983D01*
X390494Y476916D01*
X390550Y476847D01*
X390603Y476775D01*
X390653Y476700D01*
X390699Y476624D01*
X390742Y476546D01*
X390781Y476466D01*
X390817Y476384D01*
X390850Y476301D01*
X390878Y476216D01*
X390903Y476131D01*
X390925Y476044D01*
X390942Y475956D01*
X390955Y475868D01*
X390965Y475779D01*
X390971Y475690D01*
X390973Y475601D01*
X390971Y475512D01*
X390965Y475423D01*
X390955Y475334D01*
X390942Y475246D01*
X390925Y475158D01*
X390903Y475071D01*
X390878Y474986D01*
X390850Y474901D01*
X390817Y474818D01*
X390781Y474736D01*
X390742Y474656D01*
X390699Y474578D01*
X390653Y474502D01*
X390603Y474427D01*
X390550Y474355D01*
X390494Y474286D01*
X390435Y474219D01*
X390374Y474154D01*
X390309Y474093D01*
X390242Y474034D01*
X390173Y473978D01*
X390101Y473925D01*
X390026Y473875D01*
X389950Y473829D01*
X389872Y473786D01*
X389792Y473747D01*
X389710Y473711D01*
X389627Y473678D01*
X389542Y473650D01*
X389457Y473625D01*
X389370Y473603D01*
X389282Y473586D01*
X389194Y473573D01*
X389105Y473563D01*
X389016Y473557D01*
X388927Y473555D01*
X386881Y473555D01*
X389336Y473555D02*
X390973Y470281D01*
X395457Y473146D02*
X397299Y473146D01*
X395457Y473145D02*
X395382Y473143D01*
X395307Y473137D01*
X395233Y473127D01*
X395159Y473114D01*
X395086Y473096D01*
X395014Y473075D01*
X394944Y473050D01*
X394875Y473021D01*
X394807Y472989D01*
X394741Y472953D01*
X394677Y472914D01*
X394615Y472872D01*
X394556Y472826D01*
X394499Y472777D01*
X394444Y472726D01*
X394393Y472671D01*
X394344Y472614D01*
X394298Y472555D01*
X394256Y472493D01*
X394217Y472429D01*
X394181Y472363D01*
X394149Y472295D01*
X394120Y472226D01*
X394095Y472156D01*
X394074Y472084D01*
X394056Y472011D01*
X394043Y471937D01*
X394033Y471863D01*
X394027Y471788D01*
X394025Y471713D01*
X394027Y471638D01*
X394033Y471563D01*
X394043Y471489D01*
X394056Y471415D01*
X394074Y471342D01*
X394095Y471270D01*
X394120Y471200D01*
X394149Y471131D01*
X394181Y471063D01*
X394217Y470997D01*
X394256Y470933D01*
X394298Y470871D01*
X394344Y470812D01*
X394393Y470755D01*
X394444Y470700D01*
X394499Y470649D01*
X394556Y470600D01*
X394615Y470554D01*
X394677Y470512D01*
X394741Y470473D01*
X394807Y470437D01*
X394875Y470405D01*
X394944Y470376D01*
X395014Y470351D01*
X395086Y470330D01*
X395159Y470312D01*
X395233Y470299D01*
X395307Y470289D01*
X395382Y470283D01*
X395457Y470281D01*
X397299Y470281D01*
X397299Y473964D01*
X397297Y474033D01*
X397291Y474101D01*
X397282Y474170D01*
X397268Y474237D01*
X397251Y474304D01*
X397230Y474370D01*
X397206Y474434D01*
X397177Y474497D01*
X397146Y474558D01*
X397111Y474617D01*
X397073Y474675D01*
X397031Y474730D01*
X396987Y474782D01*
X396939Y474832D01*
X396889Y474880D01*
X396837Y474924D01*
X396782Y474966D01*
X396724Y475004D01*
X396665Y475039D01*
X396604Y475070D01*
X396541Y475099D01*
X396477Y475123D01*
X396411Y475144D01*
X396344Y475161D01*
X396277Y475175D01*
X396208Y475184D01*
X396140Y475190D01*
X396071Y475192D01*
X394434Y475192D01*
X403883Y477647D02*
X403883Y470281D01*
X401836Y470281D01*
X401767Y470283D01*
X401699Y470289D01*
X401630Y470298D01*
X401563Y470312D01*
X401496Y470329D01*
X401430Y470350D01*
X401366Y470374D01*
X401303Y470403D01*
X401242Y470434D01*
X401183Y470469D01*
X401125Y470507D01*
X401070Y470549D01*
X401018Y470593D01*
X400968Y470641D01*
X400920Y470691D01*
X400876Y470743D01*
X400834Y470798D01*
X400796Y470856D01*
X400761Y470915D01*
X400730Y470976D01*
X400701Y471039D01*
X400677Y471103D01*
X400656Y471169D01*
X400639Y471236D01*
X400625Y471303D01*
X400616Y471372D01*
X400610Y471440D01*
X400608Y471509D01*
X400609Y471509D02*
X400609Y473964D01*
X400608Y473964D02*
X400610Y474033D01*
X400616Y474101D01*
X400625Y474170D01*
X400639Y474237D01*
X400656Y474304D01*
X400677Y474370D01*
X400701Y474434D01*
X400730Y474497D01*
X400761Y474558D01*
X400796Y474617D01*
X400834Y474675D01*
X400876Y474730D01*
X400920Y474782D01*
X400968Y474832D01*
X401018Y474880D01*
X401070Y474924D01*
X401125Y474966D01*
X401183Y475004D01*
X401242Y475039D01*
X401303Y475070D01*
X401366Y475099D01*
X401430Y475123D01*
X401496Y475144D01*
X401563Y475161D01*
X401630Y475175D01*
X401699Y475184D01*
X401767Y475190D01*
X401836Y475192D01*
X403883Y475192D01*
X408625Y473146D02*
X410466Y473146D01*
X408625Y473145D02*
X408550Y473143D01*
X408475Y473137D01*
X408401Y473127D01*
X408327Y473114D01*
X408254Y473096D01*
X408182Y473075D01*
X408112Y473050D01*
X408043Y473021D01*
X407975Y472989D01*
X407909Y472953D01*
X407845Y472914D01*
X407783Y472872D01*
X407724Y472826D01*
X407667Y472777D01*
X407612Y472726D01*
X407561Y472671D01*
X407512Y472614D01*
X407466Y472555D01*
X407424Y472493D01*
X407385Y472429D01*
X407349Y472363D01*
X407317Y472295D01*
X407288Y472226D01*
X407263Y472156D01*
X407242Y472084D01*
X407224Y472011D01*
X407211Y471937D01*
X407201Y471863D01*
X407195Y471788D01*
X407193Y471713D01*
X407195Y471638D01*
X407201Y471563D01*
X407211Y471489D01*
X407224Y471415D01*
X407242Y471342D01*
X407263Y471270D01*
X407288Y471200D01*
X407317Y471131D01*
X407349Y471063D01*
X407385Y470997D01*
X407424Y470933D01*
X407466Y470871D01*
X407512Y470812D01*
X407561Y470755D01*
X407612Y470700D01*
X407667Y470649D01*
X407724Y470600D01*
X407783Y470554D01*
X407845Y470512D01*
X407909Y470473D01*
X407975Y470437D01*
X408043Y470405D01*
X408112Y470376D01*
X408182Y470351D01*
X408254Y470330D01*
X408327Y470312D01*
X408401Y470299D01*
X408475Y470289D01*
X408550Y470283D01*
X408625Y470281D01*
X410466Y470281D01*
X410466Y473964D01*
X410467Y473964D02*
X410465Y474033D01*
X410459Y474101D01*
X410450Y474170D01*
X410436Y474237D01*
X410419Y474304D01*
X410398Y474370D01*
X410374Y474434D01*
X410345Y474497D01*
X410314Y474558D01*
X410279Y474617D01*
X410241Y474675D01*
X410199Y474730D01*
X410155Y474782D01*
X410107Y474832D01*
X410057Y474880D01*
X410005Y474924D01*
X409950Y474966D01*
X409892Y475004D01*
X409833Y475039D01*
X409772Y475070D01*
X409709Y475099D01*
X409645Y475123D01*
X409579Y475144D01*
X409512Y475161D01*
X409445Y475175D01*
X409376Y475184D01*
X409308Y475190D01*
X409239Y475192D01*
X407602Y475192D01*
X414107Y475192D02*
X414107Y470281D01*
X414107Y475192D02*
X416562Y475192D01*
X416562Y474373D01*
X423213Y477647D02*
X423213Y470281D01*
X423213Y477647D02*
X425259Y477647D01*
X425348Y477645D01*
X425437Y477639D01*
X425526Y477629D01*
X425614Y477616D01*
X425702Y477599D01*
X425789Y477577D01*
X425874Y477552D01*
X425959Y477524D01*
X426042Y477491D01*
X426124Y477455D01*
X426204Y477416D01*
X426282Y477373D01*
X426358Y477327D01*
X426433Y477277D01*
X426505Y477224D01*
X426574Y477168D01*
X426641Y477109D01*
X426706Y477048D01*
X426767Y476983D01*
X426826Y476916D01*
X426882Y476847D01*
X426935Y476775D01*
X426985Y476700D01*
X427031Y476624D01*
X427074Y476546D01*
X427113Y476466D01*
X427149Y476384D01*
X427182Y476301D01*
X427210Y476216D01*
X427235Y476131D01*
X427257Y476044D01*
X427274Y475956D01*
X427287Y475868D01*
X427297Y475779D01*
X427303Y475690D01*
X427305Y475601D01*
X427303Y475512D01*
X427297Y475423D01*
X427287Y475334D01*
X427274Y475246D01*
X427257Y475158D01*
X427235Y475071D01*
X427210Y474986D01*
X427182Y474901D01*
X427149Y474818D01*
X427113Y474736D01*
X427074Y474656D01*
X427031Y474578D01*
X426985Y474502D01*
X426935Y474427D01*
X426882Y474355D01*
X426826Y474286D01*
X426767Y474219D01*
X426706Y474154D01*
X426641Y474093D01*
X426574Y474034D01*
X426505Y473978D01*
X426433Y473925D01*
X426358Y473875D01*
X426282Y473829D01*
X426204Y473786D01*
X426124Y473747D01*
X426042Y473711D01*
X425959Y473678D01*
X425874Y473650D01*
X425789Y473625D01*
X425702Y473603D01*
X425614Y473586D01*
X425526Y473573D01*
X425437Y473563D01*
X425348Y473557D01*
X425259Y473555D01*
X423213Y473555D01*
X425668Y473555D02*
X427305Y470281D01*
X431626Y470281D02*
X433672Y470281D01*
X431626Y470281D02*
X431557Y470283D01*
X431489Y470289D01*
X431420Y470298D01*
X431353Y470312D01*
X431286Y470329D01*
X431220Y470350D01*
X431156Y470374D01*
X431093Y470403D01*
X431032Y470434D01*
X430973Y470469D01*
X430915Y470507D01*
X430860Y470549D01*
X430808Y470593D01*
X430758Y470641D01*
X430710Y470691D01*
X430666Y470743D01*
X430624Y470798D01*
X430586Y470856D01*
X430551Y470915D01*
X430520Y470976D01*
X430491Y471039D01*
X430467Y471103D01*
X430446Y471169D01*
X430429Y471236D01*
X430415Y471303D01*
X430406Y471372D01*
X430400Y471440D01*
X430398Y471509D01*
X430398Y473555D01*
X430400Y473634D01*
X430406Y473713D01*
X430415Y473792D01*
X430428Y473870D01*
X430446Y473947D01*
X430466Y474023D01*
X430491Y474098D01*
X430519Y474172D01*
X430550Y474245D01*
X430586Y474316D01*
X430624Y474385D01*
X430666Y474452D01*
X430711Y474517D01*
X430759Y474580D01*
X430810Y474641D01*
X430864Y474698D01*
X430920Y474754D01*
X430979Y474806D01*
X431041Y474856D01*
X431105Y474902D01*
X431171Y474946D01*
X431239Y474986D01*
X431309Y475022D01*
X431381Y475056D01*
X431455Y475086D01*
X431529Y475112D01*
X431605Y475135D01*
X431682Y475153D01*
X431759Y475169D01*
X431838Y475180D01*
X431916Y475188D01*
X431995Y475192D01*
X432075Y475192D01*
X432154Y475188D01*
X432232Y475180D01*
X432311Y475169D01*
X432388Y475153D01*
X432465Y475135D01*
X432541Y475112D01*
X432615Y475086D01*
X432689Y475056D01*
X432761Y475022D01*
X432831Y474986D01*
X432899Y474946D01*
X432965Y474902D01*
X433029Y474856D01*
X433091Y474806D01*
X433150Y474754D01*
X433206Y474698D01*
X433260Y474641D01*
X433311Y474580D01*
X433359Y474517D01*
X433404Y474452D01*
X433446Y474385D01*
X433484Y474316D01*
X433520Y474245D01*
X433551Y474172D01*
X433579Y474098D01*
X433604Y474023D01*
X433624Y473947D01*
X433642Y473870D01*
X433655Y473792D01*
X433664Y473713D01*
X433670Y473634D01*
X433672Y473555D01*
X433672Y472736D01*
X430398Y472736D01*
X437352Y473146D02*
X439398Y472327D01*
X437352Y473146D02*
X437293Y473171D01*
X437236Y473200D01*
X437181Y473233D01*
X437128Y473269D01*
X437077Y473307D01*
X437029Y473349D01*
X436983Y473394D01*
X436940Y473441D01*
X436900Y473491D01*
X436863Y473543D01*
X436829Y473598D01*
X436798Y473654D01*
X436771Y473712D01*
X436748Y473772D01*
X436728Y473832D01*
X436712Y473894D01*
X436699Y473957D01*
X436691Y474021D01*
X436686Y474084D01*
X436685Y474148D01*
X436688Y474212D01*
X436695Y474276D01*
X436706Y474339D01*
X436720Y474401D01*
X436738Y474463D01*
X436760Y474523D01*
X436785Y474582D01*
X436814Y474639D01*
X436847Y474694D01*
X436882Y474747D01*
X436921Y474798D01*
X436963Y474847D01*
X437007Y474893D01*
X437055Y474936D01*
X437104Y474976D01*
X437157Y475013D01*
X437211Y475047D01*
X437267Y475078D01*
X437325Y475105D01*
X437384Y475129D01*
X437445Y475148D01*
X437507Y475165D01*
X437570Y475177D01*
X437633Y475186D01*
X437697Y475191D01*
X437761Y475192D01*
X437897Y475188D01*
X438032Y475180D01*
X438168Y475168D01*
X438302Y475152D01*
X438437Y475132D01*
X438570Y475109D01*
X438703Y475081D01*
X438835Y475050D01*
X438966Y475015D01*
X439096Y474976D01*
X439225Y474933D01*
X439352Y474886D01*
X439478Y474836D01*
X439603Y474782D01*
X439398Y472327D02*
X439457Y472302D01*
X439514Y472273D01*
X439569Y472240D01*
X439622Y472204D01*
X439673Y472166D01*
X439721Y472124D01*
X439767Y472079D01*
X439810Y472032D01*
X439850Y471982D01*
X439887Y471930D01*
X439921Y471875D01*
X439952Y471819D01*
X439979Y471761D01*
X440002Y471701D01*
X440022Y471641D01*
X440038Y471579D01*
X440051Y471516D01*
X440059Y471452D01*
X440064Y471389D01*
X440065Y471325D01*
X440062Y471261D01*
X440055Y471197D01*
X440044Y471134D01*
X440030Y471072D01*
X440012Y471010D01*
X439990Y470950D01*
X439965Y470891D01*
X439936Y470834D01*
X439903Y470779D01*
X439868Y470726D01*
X439829Y470675D01*
X439787Y470626D01*
X439743Y470580D01*
X439695Y470537D01*
X439646Y470497D01*
X439593Y470460D01*
X439539Y470426D01*
X439483Y470395D01*
X439425Y470368D01*
X439366Y470344D01*
X439305Y470325D01*
X439243Y470308D01*
X439180Y470296D01*
X439117Y470287D01*
X439053Y470282D01*
X438989Y470281D01*
X438825Y470285D01*
X438661Y470293D01*
X438497Y470305D01*
X438334Y470321D01*
X438171Y470341D01*
X438008Y470364D01*
X437847Y470392D01*
X437685Y470423D01*
X437525Y470458D01*
X437366Y470497D01*
X437207Y470540D01*
X437050Y470586D01*
X436893Y470636D01*
X436738Y470690D01*
X444305Y470281D02*
X446352Y470281D01*
X444305Y470281D02*
X444236Y470283D01*
X444168Y470289D01*
X444099Y470298D01*
X444032Y470312D01*
X443965Y470329D01*
X443899Y470350D01*
X443835Y470374D01*
X443772Y470403D01*
X443711Y470434D01*
X443652Y470469D01*
X443594Y470507D01*
X443539Y470549D01*
X443487Y470593D01*
X443437Y470641D01*
X443389Y470691D01*
X443345Y470743D01*
X443303Y470798D01*
X443265Y470856D01*
X443230Y470915D01*
X443199Y470976D01*
X443170Y471039D01*
X443146Y471103D01*
X443125Y471169D01*
X443108Y471236D01*
X443094Y471303D01*
X443085Y471372D01*
X443079Y471440D01*
X443077Y471509D01*
X443078Y471509D02*
X443078Y473555D01*
X443080Y473634D01*
X443086Y473713D01*
X443095Y473792D01*
X443108Y473870D01*
X443126Y473947D01*
X443146Y474023D01*
X443171Y474098D01*
X443199Y474172D01*
X443230Y474245D01*
X443266Y474316D01*
X443304Y474385D01*
X443346Y474452D01*
X443391Y474517D01*
X443439Y474580D01*
X443490Y474641D01*
X443544Y474698D01*
X443600Y474754D01*
X443659Y474806D01*
X443721Y474856D01*
X443785Y474902D01*
X443851Y474946D01*
X443919Y474986D01*
X443989Y475022D01*
X444061Y475056D01*
X444135Y475086D01*
X444209Y475112D01*
X444285Y475135D01*
X444362Y475153D01*
X444439Y475169D01*
X444518Y475180D01*
X444596Y475188D01*
X444675Y475192D01*
X444755Y475192D01*
X444834Y475188D01*
X444912Y475180D01*
X444991Y475169D01*
X445068Y475153D01*
X445145Y475135D01*
X445221Y475112D01*
X445295Y475086D01*
X445369Y475056D01*
X445441Y475022D01*
X445511Y474986D01*
X445579Y474946D01*
X445645Y474902D01*
X445709Y474856D01*
X445771Y474806D01*
X445830Y474754D01*
X445886Y474698D01*
X445940Y474641D01*
X445991Y474580D01*
X446039Y474517D01*
X446084Y474452D01*
X446126Y474385D01*
X446164Y474316D01*
X446200Y474245D01*
X446231Y474172D01*
X446259Y474098D01*
X446284Y474023D01*
X446304Y473947D01*
X446322Y473870D01*
X446335Y473792D01*
X446344Y473713D01*
X446350Y473634D01*
X446352Y473555D01*
X446352Y472736D01*
X443078Y472736D01*
X450809Y473146D02*
X452650Y473146D01*
X450809Y473145D02*
X450734Y473143D01*
X450659Y473137D01*
X450585Y473127D01*
X450511Y473114D01*
X450438Y473096D01*
X450366Y473075D01*
X450296Y473050D01*
X450227Y473021D01*
X450159Y472989D01*
X450093Y472953D01*
X450029Y472914D01*
X449967Y472872D01*
X449908Y472826D01*
X449851Y472777D01*
X449796Y472726D01*
X449745Y472671D01*
X449696Y472614D01*
X449650Y472555D01*
X449608Y472493D01*
X449569Y472429D01*
X449533Y472363D01*
X449501Y472295D01*
X449472Y472226D01*
X449447Y472156D01*
X449426Y472084D01*
X449408Y472011D01*
X449395Y471937D01*
X449385Y471863D01*
X449379Y471788D01*
X449377Y471713D01*
X449379Y471638D01*
X449385Y471563D01*
X449395Y471489D01*
X449408Y471415D01*
X449426Y471342D01*
X449447Y471270D01*
X449472Y471200D01*
X449501Y471131D01*
X449533Y471063D01*
X449569Y470997D01*
X449608Y470933D01*
X449650Y470871D01*
X449696Y470812D01*
X449745Y470755D01*
X449796Y470700D01*
X449851Y470649D01*
X449908Y470600D01*
X449967Y470554D01*
X450029Y470512D01*
X450093Y470473D01*
X450159Y470437D01*
X450227Y470405D01*
X450296Y470376D01*
X450366Y470351D01*
X450438Y470330D01*
X450511Y470312D01*
X450585Y470299D01*
X450659Y470289D01*
X450734Y470283D01*
X450809Y470281D01*
X452650Y470281D01*
X452650Y473964D01*
X452651Y473964D02*
X452649Y474033D01*
X452643Y474101D01*
X452634Y474170D01*
X452620Y474237D01*
X452603Y474304D01*
X452582Y474370D01*
X452558Y474434D01*
X452529Y474497D01*
X452498Y474558D01*
X452463Y474617D01*
X452425Y474675D01*
X452383Y474730D01*
X452339Y474782D01*
X452291Y474832D01*
X452241Y474880D01*
X452189Y474924D01*
X452134Y474966D01*
X452076Y475004D01*
X452017Y475039D01*
X451956Y475070D01*
X451893Y475099D01*
X451829Y475123D01*
X451763Y475144D01*
X451696Y475161D01*
X451629Y475175D01*
X451560Y475184D01*
X451492Y475190D01*
X451423Y475192D01*
X449786Y475192D01*
X456291Y475192D02*
X456291Y470281D01*
X456291Y475192D02*
X458747Y475192D01*
X458747Y474373D01*
X462359Y470281D02*
X463996Y470281D01*
X462359Y470281D02*
X462290Y470283D01*
X462222Y470289D01*
X462153Y470298D01*
X462086Y470312D01*
X462019Y470329D01*
X461953Y470350D01*
X461889Y470374D01*
X461826Y470403D01*
X461765Y470434D01*
X461706Y470469D01*
X461648Y470507D01*
X461593Y470549D01*
X461541Y470593D01*
X461491Y470641D01*
X461443Y470691D01*
X461399Y470743D01*
X461357Y470798D01*
X461319Y470856D01*
X461284Y470915D01*
X461253Y470976D01*
X461224Y471039D01*
X461200Y471103D01*
X461179Y471169D01*
X461162Y471236D01*
X461148Y471303D01*
X461139Y471372D01*
X461133Y471440D01*
X461131Y471509D01*
X461131Y473964D01*
X461133Y474033D01*
X461139Y474101D01*
X461148Y474170D01*
X461162Y474237D01*
X461179Y474304D01*
X461200Y474370D01*
X461224Y474434D01*
X461253Y474497D01*
X461284Y474558D01*
X461319Y474617D01*
X461357Y474675D01*
X461399Y474730D01*
X461443Y474782D01*
X461491Y474832D01*
X461541Y474880D01*
X461593Y474924D01*
X461648Y474966D01*
X461706Y475004D01*
X461765Y475039D01*
X461826Y475070D01*
X461889Y475099D01*
X461953Y475123D01*
X462019Y475144D01*
X462086Y475161D01*
X462153Y475175D01*
X462222Y475184D01*
X462290Y475190D01*
X462359Y475192D01*
X463996Y475192D01*
X466974Y477647D02*
X466974Y470281D01*
X466974Y475192D02*
X469020Y475192D01*
X469089Y475190D01*
X469157Y475184D01*
X469226Y475175D01*
X469293Y475161D01*
X469360Y475144D01*
X469426Y475123D01*
X469490Y475099D01*
X469553Y475070D01*
X469614Y475039D01*
X469673Y475004D01*
X469731Y474966D01*
X469786Y474924D01*
X469838Y474880D01*
X469888Y474832D01*
X469936Y474782D01*
X469980Y474730D01*
X470022Y474675D01*
X470060Y474617D01*
X470095Y474558D01*
X470126Y474497D01*
X470155Y474434D01*
X470179Y474370D01*
X470200Y474304D01*
X470217Y474237D01*
X470231Y474170D01*
X470240Y474101D01*
X470246Y474033D01*
X470248Y473964D01*
X470248Y470281D01*
X479151Y470281D02*
X480788Y470281D01*
X479151Y470281D02*
X479073Y470283D01*
X478995Y470288D01*
X478918Y470298D01*
X478841Y470311D01*
X478765Y470327D01*
X478690Y470347D01*
X478616Y470371D01*
X478543Y470398D01*
X478471Y470429D01*
X478401Y470463D01*
X478333Y470500D01*
X478266Y470541D01*
X478201Y470585D01*
X478139Y470631D01*
X478079Y470681D01*
X478021Y470733D01*
X477966Y470788D01*
X477914Y470846D01*
X477864Y470906D01*
X477818Y470968D01*
X477774Y471033D01*
X477733Y471100D01*
X477696Y471168D01*
X477662Y471238D01*
X477631Y471310D01*
X477604Y471383D01*
X477580Y471457D01*
X477560Y471532D01*
X477544Y471608D01*
X477531Y471685D01*
X477521Y471762D01*
X477516Y471840D01*
X477514Y471918D01*
X477514Y476010D01*
X477516Y476090D01*
X477522Y476170D01*
X477532Y476250D01*
X477545Y476329D01*
X477563Y476408D01*
X477584Y476485D01*
X477610Y476561D01*
X477639Y476636D01*
X477671Y476710D01*
X477707Y476782D01*
X477747Y476852D01*
X477790Y476919D01*
X477836Y476985D01*
X477886Y477048D01*
X477938Y477109D01*
X477993Y477168D01*
X478052Y477223D01*
X478112Y477275D01*
X478176Y477325D01*
X478242Y477371D01*
X478309Y477414D01*
X478379Y477454D01*
X478451Y477490D01*
X478525Y477522D01*
X478599Y477551D01*
X478676Y477577D01*
X478753Y477598D01*
X478832Y477616D01*
X478911Y477629D01*
X478991Y477639D01*
X479071Y477645D01*
X479151Y477647D01*
X480788Y477647D01*
X484783Y470281D02*
X486829Y470281D01*
X484783Y470281D02*
X484714Y470283D01*
X484646Y470289D01*
X484577Y470298D01*
X484510Y470312D01*
X484443Y470329D01*
X484377Y470350D01*
X484313Y470374D01*
X484250Y470403D01*
X484189Y470434D01*
X484130Y470469D01*
X484072Y470507D01*
X484017Y470549D01*
X483965Y470593D01*
X483915Y470641D01*
X483867Y470691D01*
X483823Y470743D01*
X483781Y470798D01*
X483743Y470856D01*
X483708Y470915D01*
X483677Y470976D01*
X483648Y471039D01*
X483624Y471103D01*
X483603Y471169D01*
X483586Y471236D01*
X483572Y471303D01*
X483563Y471372D01*
X483557Y471440D01*
X483555Y471509D01*
X483555Y473555D01*
X483557Y473634D01*
X483563Y473713D01*
X483572Y473792D01*
X483585Y473870D01*
X483603Y473947D01*
X483623Y474023D01*
X483648Y474098D01*
X483676Y474172D01*
X483707Y474245D01*
X483743Y474316D01*
X483781Y474385D01*
X483823Y474452D01*
X483868Y474517D01*
X483916Y474580D01*
X483967Y474641D01*
X484021Y474698D01*
X484077Y474754D01*
X484136Y474806D01*
X484198Y474856D01*
X484262Y474902D01*
X484328Y474946D01*
X484396Y474986D01*
X484466Y475022D01*
X484538Y475056D01*
X484612Y475086D01*
X484686Y475112D01*
X484762Y475135D01*
X484839Y475153D01*
X484916Y475169D01*
X484995Y475180D01*
X485073Y475188D01*
X485152Y475192D01*
X485232Y475192D01*
X485311Y475188D01*
X485389Y475180D01*
X485468Y475169D01*
X485545Y475153D01*
X485622Y475135D01*
X485698Y475112D01*
X485772Y475086D01*
X485846Y475056D01*
X485918Y475022D01*
X485988Y474986D01*
X486056Y474946D01*
X486122Y474902D01*
X486186Y474856D01*
X486248Y474806D01*
X486307Y474754D01*
X486363Y474698D01*
X486417Y474641D01*
X486468Y474580D01*
X486516Y474517D01*
X486561Y474452D01*
X486603Y474385D01*
X486641Y474316D01*
X486677Y474245D01*
X486708Y474172D01*
X486736Y474098D01*
X486761Y474023D01*
X486781Y473947D01*
X486799Y473870D01*
X486812Y473792D01*
X486821Y473713D01*
X486827Y473634D01*
X486829Y473555D01*
X486829Y472736D01*
X483555Y472736D01*
X490139Y470281D02*
X490139Y475192D01*
X492185Y475192D01*
X492254Y475190D01*
X492322Y475184D01*
X492391Y475175D01*
X492458Y475161D01*
X492525Y475144D01*
X492591Y475123D01*
X492655Y475099D01*
X492718Y475070D01*
X492779Y475039D01*
X492838Y475004D01*
X492896Y474966D01*
X492951Y474924D01*
X493003Y474880D01*
X493053Y474832D01*
X493101Y474782D01*
X493145Y474730D01*
X493187Y474675D01*
X493225Y474617D01*
X493260Y474558D01*
X493291Y474497D01*
X493320Y474434D01*
X493344Y474370D01*
X493365Y474304D01*
X493382Y474237D01*
X493396Y474170D01*
X493405Y474101D01*
X493411Y474033D01*
X493413Y473964D01*
X493412Y473964D02*
X493412Y470281D01*
X496092Y475192D02*
X498547Y475192D01*
X496910Y477647D02*
X496910Y471509D01*
X496912Y471440D01*
X496918Y471372D01*
X496927Y471303D01*
X496941Y471236D01*
X496958Y471169D01*
X496979Y471103D01*
X497003Y471039D01*
X497032Y470976D01*
X497063Y470915D01*
X497098Y470856D01*
X497136Y470798D01*
X497178Y470743D01*
X497222Y470691D01*
X497270Y470641D01*
X497320Y470593D01*
X497372Y470549D01*
X497427Y470507D01*
X497485Y470469D01*
X497544Y470434D01*
X497605Y470403D01*
X497668Y470374D01*
X497732Y470350D01*
X497798Y470329D01*
X497865Y470312D01*
X497932Y470298D01*
X498001Y470289D01*
X498069Y470283D01*
X498138Y470281D01*
X498547Y470281D01*
X502583Y470281D02*
X504629Y470281D01*
X502583Y470281D02*
X502514Y470283D01*
X502446Y470289D01*
X502377Y470298D01*
X502310Y470312D01*
X502243Y470329D01*
X502177Y470350D01*
X502113Y470374D01*
X502050Y470403D01*
X501989Y470434D01*
X501930Y470469D01*
X501872Y470507D01*
X501817Y470549D01*
X501765Y470593D01*
X501715Y470641D01*
X501667Y470691D01*
X501623Y470743D01*
X501581Y470798D01*
X501543Y470856D01*
X501508Y470915D01*
X501477Y470976D01*
X501448Y471039D01*
X501424Y471103D01*
X501403Y471169D01*
X501386Y471236D01*
X501372Y471303D01*
X501363Y471372D01*
X501357Y471440D01*
X501355Y471509D01*
X501355Y473555D01*
X501357Y473634D01*
X501363Y473713D01*
X501372Y473792D01*
X501385Y473870D01*
X501403Y473947D01*
X501423Y474023D01*
X501448Y474098D01*
X501476Y474172D01*
X501507Y474245D01*
X501543Y474316D01*
X501581Y474385D01*
X501623Y474452D01*
X501668Y474517D01*
X501716Y474580D01*
X501767Y474641D01*
X501821Y474698D01*
X501877Y474754D01*
X501936Y474806D01*
X501998Y474856D01*
X502062Y474902D01*
X502128Y474946D01*
X502196Y474986D01*
X502266Y475022D01*
X502338Y475056D01*
X502412Y475086D01*
X502486Y475112D01*
X502562Y475135D01*
X502639Y475153D01*
X502716Y475169D01*
X502795Y475180D01*
X502873Y475188D01*
X502952Y475192D01*
X503032Y475192D01*
X503111Y475188D01*
X503189Y475180D01*
X503268Y475169D01*
X503345Y475153D01*
X503422Y475135D01*
X503498Y475112D01*
X503572Y475086D01*
X503646Y475056D01*
X503718Y475022D01*
X503788Y474986D01*
X503856Y474946D01*
X503922Y474902D01*
X503986Y474856D01*
X504048Y474806D01*
X504107Y474754D01*
X504163Y474698D01*
X504217Y474641D01*
X504268Y474580D01*
X504316Y474517D01*
X504361Y474452D01*
X504403Y474385D01*
X504441Y474316D01*
X504477Y474245D01*
X504508Y474172D01*
X504536Y474098D01*
X504561Y474023D01*
X504581Y473947D01*
X504599Y473870D01*
X504612Y473792D01*
X504621Y473713D01*
X504627Y473634D01*
X504629Y473555D01*
X504629Y472736D01*
X501355Y472736D01*
X507985Y470281D02*
X507985Y475192D01*
X510440Y475192D01*
X510440Y474373D01*
X396536Y337947D02*
X394081Y330581D01*
X398992Y330581D02*
X396536Y337947D01*
X394695Y332423D02*
X398378Y332423D01*
X401657Y330581D02*
X401657Y335492D01*
X401452Y337538D02*
X401452Y337947D01*
X401862Y337947D01*
X401862Y337538D01*
X401452Y337538D01*
X404897Y335492D02*
X404897Y330581D01*
X404897Y335492D02*
X406943Y335492D01*
X407012Y335490D01*
X407080Y335484D01*
X407149Y335475D01*
X407216Y335461D01*
X407283Y335444D01*
X407349Y335423D01*
X407413Y335399D01*
X407476Y335370D01*
X407537Y335339D01*
X407596Y335304D01*
X407654Y335266D01*
X407709Y335224D01*
X407761Y335180D01*
X407811Y335132D01*
X407859Y335082D01*
X407903Y335030D01*
X407945Y334975D01*
X407983Y334917D01*
X408018Y334858D01*
X408049Y334797D01*
X408078Y334734D01*
X408102Y334670D01*
X408123Y334604D01*
X408140Y334537D01*
X408154Y334470D01*
X408163Y334401D01*
X408169Y334333D01*
X408171Y334264D01*
X408171Y330581D01*
X419723Y334673D02*
X421769Y334673D01*
X421858Y334671D01*
X421947Y334665D01*
X422036Y334655D01*
X422124Y334642D01*
X422212Y334625D01*
X422299Y334603D01*
X422384Y334578D01*
X422469Y334550D01*
X422552Y334517D01*
X422634Y334481D01*
X422714Y334442D01*
X422792Y334399D01*
X422868Y334353D01*
X422943Y334303D01*
X423015Y334250D01*
X423084Y334194D01*
X423151Y334135D01*
X423216Y334074D01*
X423277Y334009D01*
X423336Y333942D01*
X423392Y333873D01*
X423445Y333801D01*
X423495Y333726D01*
X423541Y333650D01*
X423584Y333572D01*
X423623Y333492D01*
X423659Y333410D01*
X423692Y333327D01*
X423720Y333242D01*
X423745Y333157D01*
X423767Y333070D01*
X423784Y332982D01*
X423797Y332894D01*
X423807Y332805D01*
X423813Y332716D01*
X423815Y332627D01*
X423813Y332538D01*
X423807Y332449D01*
X423797Y332360D01*
X423784Y332272D01*
X423767Y332184D01*
X423745Y332097D01*
X423720Y332012D01*
X423692Y331927D01*
X423659Y331844D01*
X423623Y331762D01*
X423584Y331682D01*
X423541Y331604D01*
X423495Y331528D01*
X423445Y331453D01*
X423392Y331381D01*
X423336Y331312D01*
X423277Y331245D01*
X423216Y331180D01*
X423151Y331119D01*
X423084Y331060D01*
X423015Y331004D01*
X422943Y330951D01*
X422868Y330901D01*
X422792Y330855D01*
X422714Y330812D01*
X422634Y330773D01*
X422552Y330737D01*
X422469Y330704D01*
X422384Y330676D01*
X422299Y330651D01*
X422212Y330629D01*
X422124Y330612D01*
X422036Y330599D01*
X421947Y330589D01*
X421858Y330583D01*
X421769Y330581D01*
X419723Y330581D01*
X419723Y337947D01*
X421769Y337947D01*
X421848Y337945D01*
X421927Y337939D01*
X422006Y337930D01*
X422084Y337917D01*
X422161Y337899D01*
X422237Y337879D01*
X422312Y337854D01*
X422386Y337826D01*
X422459Y337795D01*
X422530Y337759D01*
X422599Y337721D01*
X422666Y337679D01*
X422731Y337634D01*
X422794Y337586D01*
X422855Y337535D01*
X422912Y337481D01*
X422968Y337425D01*
X423020Y337366D01*
X423070Y337304D01*
X423116Y337240D01*
X423160Y337174D01*
X423200Y337106D01*
X423236Y337036D01*
X423270Y336964D01*
X423300Y336890D01*
X423326Y336816D01*
X423349Y336740D01*
X423367Y336663D01*
X423383Y336586D01*
X423394Y336507D01*
X423402Y336429D01*
X423406Y336350D01*
X423406Y336270D01*
X423402Y336191D01*
X423394Y336113D01*
X423383Y336034D01*
X423367Y335957D01*
X423349Y335880D01*
X423326Y335804D01*
X423300Y335730D01*
X423270Y335656D01*
X423236Y335584D01*
X423200Y335514D01*
X423160Y335446D01*
X423116Y335380D01*
X423070Y335316D01*
X423020Y335254D01*
X422968Y335195D01*
X422912Y335139D01*
X422855Y335085D01*
X422794Y335034D01*
X422731Y334986D01*
X422666Y334941D01*
X422599Y334899D01*
X422530Y334861D01*
X422459Y334825D01*
X422386Y334794D01*
X422312Y334766D01*
X422237Y334741D01*
X422161Y334721D01*
X422084Y334703D01*
X422006Y334690D01*
X421927Y334681D01*
X421848Y334675D01*
X421769Y334673D01*
X426529Y335492D02*
X426529Y330581D01*
X426324Y337538D02*
X426324Y337947D01*
X426733Y337947D01*
X426733Y337538D01*
X426324Y337538D01*
X429768Y335492D02*
X429768Y330581D01*
X429768Y335492D02*
X431815Y335492D01*
X431884Y335490D01*
X431952Y335484D01*
X432021Y335475D01*
X432088Y335461D01*
X432155Y335444D01*
X432221Y335423D01*
X432285Y335399D01*
X432348Y335370D01*
X432409Y335339D01*
X432468Y335304D01*
X432526Y335266D01*
X432581Y335224D01*
X432633Y335180D01*
X432683Y335132D01*
X432731Y335082D01*
X432775Y335030D01*
X432817Y334975D01*
X432855Y334917D01*
X432890Y334858D01*
X432921Y334797D01*
X432950Y334734D01*
X432974Y334670D01*
X432995Y334604D01*
X433012Y334537D01*
X433026Y334470D01*
X433035Y334401D01*
X433041Y334333D01*
X433043Y334264D01*
X433042Y334264D02*
X433042Y330581D01*
X445847Y330581D02*
X447484Y330581D01*
X445847Y330581D02*
X445769Y330583D01*
X445691Y330588D01*
X445614Y330598D01*
X445537Y330611D01*
X445461Y330627D01*
X445386Y330647D01*
X445312Y330671D01*
X445239Y330698D01*
X445167Y330729D01*
X445097Y330763D01*
X445029Y330800D01*
X444962Y330841D01*
X444897Y330885D01*
X444835Y330931D01*
X444775Y330981D01*
X444717Y331033D01*
X444662Y331088D01*
X444610Y331146D01*
X444560Y331206D01*
X444514Y331268D01*
X444470Y331333D01*
X444429Y331400D01*
X444392Y331468D01*
X444358Y331538D01*
X444327Y331610D01*
X444300Y331683D01*
X444276Y331757D01*
X444256Y331832D01*
X444240Y331908D01*
X444227Y331985D01*
X444217Y332062D01*
X444212Y332140D01*
X444210Y332218D01*
X444210Y336310D01*
X444212Y336390D01*
X444218Y336470D01*
X444228Y336550D01*
X444241Y336629D01*
X444259Y336708D01*
X444280Y336785D01*
X444306Y336861D01*
X444335Y336936D01*
X444367Y337010D01*
X444403Y337082D01*
X444443Y337152D01*
X444486Y337219D01*
X444532Y337285D01*
X444582Y337348D01*
X444634Y337409D01*
X444689Y337468D01*
X444748Y337523D01*
X444808Y337575D01*
X444872Y337625D01*
X444938Y337671D01*
X445005Y337714D01*
X445075Y337754D01*
X445147Y337790D01*
X445221Y337822D01*
X445295Y337851D01*
X445372Y337877D01*
X445449Y337898D01*
X445528Y337916D01*
X445607Y337929D01*
X445687Y337939D01*
X445767Y337945D01*
X445847Y337947D01*
X447484Y337947D01*
X450181Y335492D02*
X450181Y330581D01*
X449976Y337538D02*
X449976Y337947D01*
X450386Y337947D01*
X450386Y337538D01*
X449976Y337538D01*
X453421Y335492D02*
X453421Y330581D01*
X453421Y335492D02*
X455467Y335492D01*
X455536Y335490D01*
X455604Y335484D01*
X455673Y335475D01*
X455740Y335461D01*
X455807Y335444D01*
X455873Y335423D01*
X455937Y335399D01*
X456000Y335370D01*
X456061Y335339D01*
X456120Y335304D01*
X456178Y335266D01*
X456233Y335224D01*
X456285Y335180D01*
X456335Y335132D01*
X456383Y335082D01*
X456427Y335030D01*
X456469Y334975D01*
X456507Y334917D01*
X456542Y334858D01*
X456573Y334797D01*
X456602Y334734D01*
X456626Y334670D01*
X456647Y334604D01*
X456664Y334537D01*
X456678Y334470D01*
X456687Y334401D01*
X456693Y334333D01*
X456695Y334264D01*
X456695Y330581D01*
X468130Y330581D02*
X468130Y337947D01*
X470176Y337947D01*
X470265Y337945D01*
X470354Y337939D01*
X470443Y337929D01*
X470531Y337916D01*
X470619Y337899D01*
X470706Y337877D01*
X470791Y337852D01*
X470876Y337824D01*
X470959Y337791D01*
X471041Y337755D01*
X471121Y337716D01*
X471199Y337673D01*
X471275Y337627D01*
X471350Y337577D01*
X471422Y337524D01*
X471491Y337468D01*
X471558Y337409D01*
X471623Y337348D01*
X471684Y337283D01*
X471743Y337216D01*
X471799Y337147D01*
X471852Y337075D01*
X471902Y337000D01*
X471948Y336924D01*
X471991Y336846D01*
X472030Y336766D01*
X472066Y336684D01*
X472099Y336601D01*
X472127Y336516D01*
X472152Y336431D01*
X472174Y336344D01*
X472191Y336256D01*
X472204Y336168D01*
X472214Y336079D01*
X472220Y335990D01*
X472222Y335901D01*
X472222Y332627D01*
X472220Y332538D01*
X472214Y332449D01*
X472204Y332360D01*
X472191Y332272D01*
X472174Y332184D01*
X472152Y332097D01*
X472127Y332012D01*
X472099Y331927D01*
X472066Y331844D01*
X472030Y331762D01*
X471991Y331682D01*
X471948Y331604D01*
X471902Y331528D01*
X471852Y331453D01*
X471799Y331381D01*
X471743Y331312D01*
X471684Y331245D01*
X471623Y331180D01*
X471558Y331119D01*
X471491Y331060D01*
X471422Y331004D01*
X471350Y330951D01*
X471275Y330901D01*
X471199Y330855D01*
X471121Y330812D01*
X471041Y330773D01*
X470959Y330737D01*
X470876Y330704D01*
X470791Y330676D01*
X470706Y330651D01*
X470619Y330629D01*
X470531Y330612D01*
X470443Y330599D01*
X470354Y330589D01*
X470265Y330583D01*
X470176Y330581D01*
X468130Y330581D01*
X475540Y330581D02*
X475540Y335492D01*
X475336Y337538D02*
X475336Y337947D01*
X475745Y337947D01*
X475745Y337538D01*
X475336Y337538D01*
X478780Y335492D02*
X478780Y330581D01*
X478780Y335492D02*
X480826Y335492D01*
X480895Y335490D01*
X480963Y335484D01*
X481032Y335475D01*
X481099Y335461D01*
X481166Y335444D01*
X481232Y335423D01*
X481296Y335399D01*
X481359Y335370D01*
X481420Y335339D01*
X481479Y335304D01*
X481537Y335266D01*
X481592Y335224D01*
X481644Y335180D01*
X481694Y335132D01*
X481742Y335082D01*
X481786Y335030D01*
X481828Y334975D01*
X481866Y334917D01*
X481901Y334858D01*
X481932Y334797D01*
X481961Y334734D01*
X481985Y334670D01*
X482006Y334604D01*
X482023Y334537D01*
X482037Y334470D01*
X482046Y334401D01*
X482052Y334333D01*
X482054Y334264D01*
X482054Y330581D01*
X76581Y330581D02*
X76581Y337947D01*
X78627Y337947D01*
X78716Y337945D01*
X78805Y337939D01*
X78894Y337929D01*
X78982Y337916D01*
X79070Y337899D01*
X79157Y337877D01*
X79242Y337852D01*
X79327Y337824D01*
X79410Y337791D01*
X79492Y337755D01*
X79572Y337716D01*
X79650Y337673D01*
X79726Y337627D01*
X79801Y337577D01*
X79873Y337524D01*
X79942Y337468D01*
X80009Y337409D01*
X80074Y337348D01*
X80135Y337283D01*
X80194Y337216D01*
X80250Y337147D01*
X80303Y337075D01*
X80353Y337000D01*
X80399Y336924D01*
X80442Y336846D01*
X80481Y336766D01*
X80517Y336684D01*
X80550Y336601D01*
X80578Y336516D01*
X80603Y336431D01*
X80625Y336344D01*
X80642Y336256D01*
X80655Y336168D01*
X80665Y336079D01*
X80671Y335990D01*
X80673Y335901D01*
X80673Y332627D01*
X80671Y332538D01*
X80665Y332449D01*
X80655Y332360D01*
X80642Y332272D01*
X80625Y332184D01*
X80603Y332097D01*
X80578Y332012D01*
X80550Y331927D01*
X80517Y331844D01*
X80481Y331762D01*
X80442Y331682D01*
X80399Y331604D01*
X80353Y331528D01*
X80303Y331453D01*
X80250Y331381D01*
X80194Y331312D01*
X80135Y331245D01*
X80074Y331180D01*
X80009Y331119D01*
X79942Y331060D01*
X79873Y331004D01*
X79801Y330951D01*
X79726Y330901D01*
X79650Y330855D01*
X79572Y330812D01*
X79492Y330773D01*
X79410Y330737D01*
X79327Y330704D01*
X79242Y330676D01*
X79157Y330651D01*
X79070Y330629D01*
X78982Y330612D01*
X78894Y330599D01*
X78805Y330589D01*
X78716Y330583D01*
X78627Y330581D01*
X76581Y330581D01*
X84062Y332218D02*
X84062Y333855D01*
X84061Y333855D02*
X84063Y333934D01*
X84069Y334013D01*
X84078Y334092D01*
X84091Y334170D01*
X84109Y334247D01*
X84129Y334323D01*
X84154Y334398D01*
X84182Y334472D01*
X84213Y334545D01*
X84249Y334616D01*
X84287Y334685D01*
X84329Y334752D01*
X84374Y334817D01*
X84422Y334880D01*
X84473Y334941D01*
X84527Y334998D01*
X84583Y335054D01*
X84642Y335106D01*
X84704Y335156D01*
X84768Y335202D01*
X84834Y335246D01*
X84902Y335286D01*
X84972Y335322D01*
X85044Y335356D01*
X85118Y335386D01*
X85192Y335412D01*
X85268Y335435D01*
X85345Y335453D01*
X85422Y335469D01*
X85501Y335480D01*
X85579Y335488D01*
X85658Y335492D01*
X85738Y335492D01*
X85817Y335488D01*
X85895Y335480D01*
X85974Y335469D01*
X86051Y335453D01*
X86128Y335435D01*
X86204Y335412D01*
X86278Y335386D01*
X86352Y335356D01*
X86424Y335322D01*
X86494Y335286D01*
X86562Y335246D01*
X86628Y335202D01*
X86692Y335156D01*
X86754Y335106D01*
X86813Y335054D01*
X86869Y334998D01*
X86923Y334941D01*
X86974Y334880D01*
X87022Y334817D01*
X87067Y334752D01*
X87109Y334685D01*
X87147Y334616D01*
X87183Y334545D01*
X87214Y334472D01*
X87242Y334398D01*
X87267Y334323D01*
X87287Y334247D01*
X87305Y334170D01*
X87318Y334092D01*
X87327Y334013D01*
X87333Y333934D01*
X87335Y333855D01*
X87335Y332218D01*
X87333Y332139D01*
X87327Y332060D01*
X87318Y331981D01*
X87305Y331903D01*
X87287Y331826D01*
X87267Y331750D01*
X87242Y331675D01*
X87214Y331601D01*
X87183Y331528D01*
X87147Y331457D01*
X87109Y331388D01*
X87067Y331321D01*
X87022Y331256D01*
X86974Y331193D01*
X86923Y331132D01*
X86869Y331075D01*
X86813Y331019D01*
X86754Y330967D01*
X86692Y330917D01*
X86628Y330871D01*
X86562Y330827D01*
X86494Y330787D01*
X86424Y330751D01*
X86352Y330717D01*
X86278Y330687D01*
X86204Y330661D01*
X86128Y330638D01*
X86051Y330620D01*
X85974Y330604D01*
X85895Y330593D01*
X85817Y330585D01*
X85738Y330581D01*
X85658Y330581D01*
X85579Y330585D01*
X85501Y330593D01*
X85422Y330604D01*
X85345Y330620D01*
X85268Y330638D01*
X85192Y330661D01*
X85118Y330687D01*
X85044Y330717D01*
X84972Y330751D01*
X84902Y330787D01*
X84834Y330827D01*
X84768Y330871D01*
X84704Y330917D01*
X84642Y330967D01*
X84583Y331019D01*
X84527Y331075D01*
X84473Y331132D01*
X84422Y331193D01*
X84374Y331256D01*
X84329Y331321D01*
X84287Y331388D01*
X84249Y331457D01*
X84213Y331528D01*
X84182Y331601D01*
X84154Y331675D01*
X84129Y331750D01*
X84109Y331826D01*
X84091Y331903D01*
X84078Y331981D01*
X84069Y332060D01*
X84063Y332139D01*
X84061Y332218D01*
X90645Y331809D02*
X90645Y335492D01*
X90645Y331809D02*
X90647Y331740D01*
X90653Y331672D01*
X90662Y331603D01*
X90676Y331536D01*
X90693Y331469D01*
X90714Y331403D01*
X90738Y331339D01*
X90767Y331276D01*
X90798Y331215D01*
X90833Y331156D01*
X90871Y331098D01*
X90913Y331043D01*
X90957Y330991D01*
X91005Y330941D01*
X91055Y330893D01*
X91107Y330849D01*
X91162Y330807D01*
X91220Y330769D01*
X91279Y330734D01*
X91340Y330703D01*
X91403Y330674D01*
X91467Y330650D01*
X91533Y330629D01*
X91600Y330612D01*
X91667Y330598D01*
X91736Y330589D01*
X91804Y330583D01*
X91873Y330581D01*
X93919Y330581D01*
X93919Y335492D01*
X96599Y335492D02*
X99054Y335492D01*
X97417Y337947D02*
X97417Y331809D01*
X97419Y331740D01*
X97425Y331672D01*
X97434Y331603D01*
X97448Y331536D01*
X97465Y331469D01*
X97486Y331403D01*
X97510Y331339D01*
X97539Y331276D01*
X97570Y331215D01*
X97605Y331156D01*
X97643Y331098D01*
X97685Y331043D01*
X97729Y330991D01*
X97777Y330941D01*
X97827Y330893D01*
X97879Y330849D01*
X97934Y330807D01*
X97992Y330769D01*
X98051Y330734D01*
X98112Y330703D01*
X98175Y330674D01*
X98239Y330650D01*
X98305Y330629D01*
X98372Y330612D01*
X98439Y330598D01*
X98508Y330589D01*
X98576Y330583D01*
X98645Y330581D01*
X99054Y330581D01*
X107455Y330581D02*
X109092Y330581D01*
X107455Y330581D02*
X107377Y330583D01*
X107299Y330588D01*
X107222Y330598D01*
X107145Y330611D01*
X107069Y330627D01*
X106994Y330647D01*
X106920Y330671D01*
X106847Y330698D01*
X106775Y330729D01*
X106705Y330763D01*
X106637Y330800D01*
X106570Y330841D01*
X106505Y330885D01*
X106443Y330931D01*
X106383Y330981D01*
X106325Y331033D01*
X106270Y331088D01*
X106218Y331146D01*
X106168Y331206D01*
X106122Y331268D01*
X106078Y331333D01*
X106037Y331400D01*
X106000Y331468D01*
X105966Y331538D01*
X105935Y331610D01*
X105908Y331683D01*
X105884Y331757D01*
X105864Y331832D01*
X105848Y331908D01*
X105835Y331985D01*
X105825Y332062D01*
X105820Y332140D01*
X105818Y332218D01*
X105819Y332218D02*
X105819Y336310D01*
X105821Y336390D01*
X105827Y336470D01*
X105837Y336550D01*
X105850Y336629D01*
X105868Y336708D01*
X105889Y336785D01*
X105915Y336861D01*
X105944Y336936D01*
X105976Y337010D01*
X106012Y337082D01*
X106052Y337152D01*
X106095Y337219D01*
X106141Y337285D01*
X106191Y337348D01*
X106243Y337409D01*
X106298Y337468D01*
X106357Y337523D01*
X106417Y337575D01*
X106481Y337625D01*
X106547Y337671D01*
X106614Y337714D01*
X106684Y337754D01*
X106756Y337790D01*
X106830Y337822D01*
X106904Y337851D01*
X106981Y337877D01*
X107058Y337898D01*
X107137Y337916D01*
X107216Y337929D01*
X107296Y337939D01*
X107376Y337945D01*
X107456Y337947D01*
X107455Y337947D02*
X109092Y337947D01*
X111859Y333855D02*
X111859Y332218D01*
X111859Y333855D02*
X111861Y333934D01*
X111867Y334013D01*
X111876Y334092D01*
X111889Y334170D01*
X111907Y334247D01*
X111927Y334323D01*
X111952Y334398D01*
X111980Y334472D01*
X112011Y334545D01*
X112047Y334616D01*
X112085Y334685D01*
X112127Y334752D01*
X112172Y334817D01*
X112220Y334880D01*
X112271Y334941D01*
X112325Y334998D01*
X112381Y335054D01*
X112440Y335106D01*
X112502Y335156D01*
X112566Y335202D01*
X112632Y335246D01*
X112700Y335286D01*
X112770Y335322D01*
X112842Y335356D01*
X112916Y335386D01*
X112990Y335412D01*
X113066Y335435D01*
X113143Y335453D01*
X113220Y335469D01*
X113299Y335480D01*
X113377Y335488D01*
X113456Y335492D01*
X113536Y335492D01*
X113615Y335488D01*
X113693Y335480D01*
X113772Y335469D01*
X113849Y335453D01*
X113926Y335435D01*
X114002Y335412D01*
X114076Y335386D01*
X114150Y335356D01*
X114222Y335322D01*
X114292Y335286D01*
X114360Y335246D01*
X114426Y335202D01*
X114490Y335156D01*
X114552Y335106D01*
X114611Y335054D01*
X114667Y334998D01*
X114721Y334941D01*
X114772Y334880D01*
X114820Y334817D01*
X114865Y334752D01*
X114907Y334685D01*
X114945Y334616D01*
X114981Y334545D01*
X115012Y334472D01*
X115040Y334398D01*
X115065Y334323D01*
X115085Y334247D01*
X115103Y334170D01*
X115116Y334092D01*
X115125Y334013D01*
X115131Y333934D01*
X115133Y333855D01*
X115133Y332218D01*
X115131Y332139D01*
X115125Y332060D01*
X115116Y331981D01*
X115103Y331903D01*
X115085Y331826D01*
X115065Y331750D01*
X115040Y331675D01*
X115012Y331601D01*
X114981Y331528D01*
X114945Y331457D01*
X114907Y331388D01*
X114865Y331321D01*
X114820Y331256D01*
X114772Y331193D01*
X114721Y331132D01*
X114667Y331075D01*
X114611Y331019D01*
X114552Y330967D01*
X114490Y330917D01*
X114426Y330871D01*
X114360Y330827D01*
X114292Y330787D01*
X114222Y330751D01*
X114150Y330717D01*
X114076Y330687D01*
X114002Y330661D01*
X113926Y330638D01*
X113849Y330620D01*
X113772Y330604D01*
X113693Y330593D01*
X113615Y330585D01*
X113536Y330581D01*
X113456Y330581D01*
X113377Y330585D01*
X113299Y330593D01*
X113220Y330604D01*
X113143Y330620D01*
X113066Y330638D01*
X112990Y330661D01*
X112916Y330687D01*
X112842Y330717D01*
X112770Y330751D01*
X112700Y330787D01*
X112632Y330827D01*
X112566Y330871D01*
X112502Y330917D01*
X112440Y330967D01*
X112381Y331019D01*
X112325Y331075D01*
X112271Y331132D01*
X112220Y331193D01*
X112172Y331256D01*
X112127Y331321D01*
X112085Y331388D01*
X112047Y331457D01*
X112011Y331528D01*
X111980Y331601D01*
X111952Y331675D01*
X111927Y331750D01*
X111907Y331826D01*
X111889Y331903D01*
X111876Y331981D01*
X111867Y332060D01*
X111861Y332139D01*
X111859Y332218D01*
X118443Y331809D02*
X118443Y335492D01*
X118443Y331809D02*
X118445Y331740D01*
X118451Y331672D01*
X118460Y331603D01*
X118474Y331536D01*
X118491Y331469D01*
X118512Y331403D01*
X118536Y331339D01*
X118565Y331276D01*
X118596Y331215D01*
X118631Y331156D01*
X118669Y331098D01*
X118711Y331043D01*
X118755Y330991D01*
X118803Y330941D01*
X118853Y330893D01*
X118905Y330849D01*
X118960Y330807D01*
X119018Y330769D01*
X119077Y330734D01*
X119138Y330703D01*
X119201Y330674D01*
X119265Y330650D01*
X119331Y330629D01*
X119398Y330612D01*
X119465Y330598D01*
X119534Y330589D01*
X119602Y330583D01*
X119671Y330581D01*
X121717Y330581D01*
X121717Y335492D01*
X124396Y335492D02*
X126851Y335492D01*
X125215Y337947D02*
X125215Y331809D01*
X125214Y331809D02*
X125216Y331740D01*
X125222Y331672D01*
X125231Y331603D01*
X125245Y331536D01*
X125262Y331469D01*
X125283Y331403D01*
X125307Y331339D01*
X125336Y331276D01*
X125367Y331215D01*
X125402Y331156D01*
X125440Y331098D01*
X125482Y331043D01*
X125526Y330991D01*
X125574Y330941D01*
X125624Y330893D01*
X125676Y330849D01*
X125731Y330807D01*
X125789Y330769D01*
X125848Y330734D01*
X125909Y330703D01*
X125972Y330674D01*
X126036Y330650D01*
X126102Y330629D01*
X126169Y330612D01*
X126236Y330598D01*
X126305Y330589D01*
X126373Y330583D01*
X126442Y330581D01*
X126851Y330581D01*
X134001Y334673D02*
X136047Y334673D01*
X136136Y334671D01*
X136225Y334665D01*
X136314Y334655D01*
X136402Y334642D01*
X136490Y334625D01*
X136577Y334603D01*
X136662Y334578D01*
X136747Y334550D01*
X136830Y334517D01*
X136912Y334481D01*
X136992Y334442D01*
X137070Y334399D01*
X137146Y334353D01*
X137221Y334303D01*
X137293Y334250D01*
X137362Y334194D01*
X137429Y334135D01*
X137494Y334074D01*
X137555Y334009D01*
X137614Y333942D01*
X137670Y333873D01*
X137723Y333801D01*
X137773Y333726D01*
X137819Y333650D01*
X137862Y333572D01*
X137901Y333492D01*
X137937Y333410D01*
X137970Y333327D01*
X137998Y333242D01*
X138023Y333157D01*
X138045Y333070D01*
X138062Y332982D01*
X138075Y332894D01*
X138085Y332805D01*
X138091Y332716D01*
X138093Y332627D01*
X138091Y332538D01*
X138085Y332449D01*
X138075Y332360D01*
X138062Y332272D01*
X138045Y332184D01*
X138023Y332097D01*
X137998Y332012D01*
X137970Y331927D01*
X137937Y331844D01*
X137901Y331762D01*
X137862Y331682D01*
X137819Y331604D01*
X137773Y331528D01*
X137723Y331453D01*
X137670Y331381D01*
X137614Y331312D01*
X137555Y331245D01*
X137494Y331180D01*
X137429Y331119D01*
X137362Y331060D01*
X137293Y331004D01*
X137221Y330951D01*
X137146Y330901D01*
X137070Y330855D01*
X136992Y330812D01*
X136912Y330773D01*
X136830Y330737D01*
X136747Y330704D01*
X136662Y330676D01*
X136577Y330651D01*
X136490Y330629D01*
X136402Y330612D01*
X136314Y330599D01*
X136225Y330589D01*
X136136Y330583D01*
X136047Y330581D01*
X134001Y330581D01*
X134001Y337947D01*
X136047Y337947D01*
X136126Y337945D01*
X136205Y337939D01*
X136284Y337930D01*
X136362Y337917D01*
X136439Y337899D01*
X136515Y337879D01*
X136590Y337854D01*
X136664Y337826D01*
X136737Y337795D01*
X136808Y337759D01*
X136877Y337721D01*
X136944Y337679D01*
X137009Y337634D01*
X137072Y337586D01*
X137133Y337535D01*
X137190Y337481D01*
X137246Y337425D01*
X137298Y337366D01*
X137348Y337304D01*
X137394Y337240D01*
X137438Y337174D01*
X137478Y337106D01*
X137514Y337036D01*
X137548Y336964D01*
X137578Y336890D01*
X137604Y336816D01*
X137627Y336740D01*
X137645Y336663D01*
X137661Y336586D01*
X137672Y336507D01*
X137680Y336429D01*
X137684Y336350D01*
X137684Y336270D01*
X137680Y336191D01*
X137672Y336113D01*
X137661Y336034D01*
X137645Y335957D01*
X137627Y335880D01*
X137604Y335804D01*
X137578Y335730D01*
X137548Y335656D01*
X137514Y335584D01*
X137478Y335514D01*
X137438Y335446D01*
X137394Y335380D01*
X137348Y335316D01*
X137298Y335254D01*
X137246Y335195D01*
X137190Y335139D01*
X137133Y335085D01*
X137072Y335034D01*
X137009Y334986D01*
X136944Y334941D01*
X136877Y334899D01*
X136808Y334861D01*
X136737Y334825D01*
X136664Y334794D01*
X136590Y334766D01*
X136515Y334741D01*
X136439Y334721D01*
X136362Y334703D01*
X136284Y334690D01*
X136205Y334681D01*
X136126Y334675D01*
X136047Y334673D01*
X140876Y333855D02*
X140876Y332218D01*
X140876Y333855D02*
X140878Y333934D01*
X140884Y334013D01*
X140893Y334092D01*
X140906Y334170D01*
X140924Y334247D01*
X140944Y334323D01*
X140969Y334398D01*
X140997Y334472D01*
X141028Y334545D01*
X141064Y334616D01*
X141102Y334685D01*
X141144Y334752D01*
X141189Y334817D01*
X141237Y334880D01*
X141288Y334941D01*
X141342Y334998D01*
X141398Y335054D01*
X141457Y335106D01*
X141519Y335156D01*
X141583Y335202D01*
X141649Y335246D01*
X141717Y335286D01*
X141787Y335322D01*
X141859Y335356D01*
X141933Y335386D01*
X142007Y335412D01*
X142083Y335435D01*
X142160Y335453D01*
X142237Y335469D01*
X142316Y335480D01*
X142394Y335488D01*
X142473Y335492D01*
X142553Y335492D01*
X142632Y335488D01*
X142710Y335480D01*
X142789Y335469D01*
X142866Y335453D01*
X142943Y335435D01*
X143019Y335412D01*
X143093Y335386D01*
X143167Y335356D01*
X143239Y335322D01*
X143309Y335286D01*
X143377Y335246D01*
X143443Y335202D01*
X143507Y335156D01*
X143569Y335106D01*
X143628Y335054D01*
X143684Y334998D01*
X143738Y334941D01*
X143789Y334880D01*
X143837Y334817D01*
X143882Y334752D01*
X143924Y334685D01*
X143962Y334616D01*
X143998Y334545D01*
X144029Y334472D01*
X144057Y334398D01*
X144082Y334323D01*
X144102Y334247D01*
X144120Y334170D01*
X144133Y334092D01*
X144142Y334013D01*
X144148Y333934D01*
X144150Y333855D01*
X144150Y332218D01*
X144148Y332139D01*
X144142Y332060D01*
X144133Y331981D01*
X144120Y331903D01*
X144102Y331826D01*
X144082Y331750D01*
X144057Y331675D01*
X144029Y331601D01*
X143998Y331528D01*
X143962Y331457D01*
X143924Y331388D01*
X143882Y331321D01*
X143837Y331256D01*
X143789Y331193D01*
X143738Y331132D01*
X143684Y331075D01*
X143628Y331019D01*
X143569Y330967D01*
X143507Y330917D01*
X143443Y330871D01*
X143377Y330827D01*
X143309Y330787D01*
X143239Y330751D01*
X143167Y330717D01*
X143093Y330687D01*
X143019Y330661D01*
X142943Y330638D01*
X142866Y330620D01*
X142789Y330604D01*
X142710Y330593D01*
X142632Y330585D01*
X142553Y330581D01*
X142473Y330581D01*
X142394Y330585D01*
X142316Y330593D01*
X142237Y330604D01*
X142160Y330620D01*
X142083Y330638D01*
X142007Y330661D01*
X141933Y330687D01*
X141859Y330717D01*
X141787Y330751D01*
X141717Y330787D01*
X141649Y330827D01*
X141583Y330871D01*
X141519Y330917D01*
X141457Y330967D01*
X141398Y331019D01*
X141342Y331075D01*
X141288Y331132D01*
X141237Y331193D01*
X141189Y331256D01*
X141144Y331321D01*
X141102Y331388D01*
X141064Y331457D01*
X141028Y331528D01*
X140997Y331601D01*
X140969Y331675D01*
X140944Y331750D01*
X140924Y331826D01*
X140906Y331903D01*
X140893Y331981D01*
X140884Y332060D01*
X140878Y332139D01*
X140876Y332218D01*
X147460Y331809D02*
X147460Y335492D01*
X147459Y331809D02*
X147461Y331740D01*
X147467Y331672D01*
X147476Y331603D01*
X147490Y331536D01*
X147507Y331469D01*
X147528Y331403D01*
X147552Y331339D01*
X147581Y331276D01*
X147612Y331215D01*
X147647Y331156D01*
X147685Y331098D01*
X147727Y331043D01*
X147771Y330991D01*
X147819Y330941D01*
X147869Y330893D01*
X147921Y330849D01*
X147976Y330807D01*
X148034Y330769D01*
X148093Y330734D01*
X148154Y330703D01*
X148217Y330674D01*
X148281Y330650D01*
X148347Y330629D01*
X148414Y330612D01*
X148481Y330598D01*
X148550Y330589D01*
X148618Y330583D01*
X148687Y330581D01*
X150733Y330581D01*
X150733Y335492D01*
X153413Y335492D02*
X155868Y335492D01*
X154231Y337947D02*
X154231Y331809D01*
X154233Y331740D01*
X154239Y331672D01*
X154248Y331603D01*
X154262Y331536D01*
X154279Y331469D01*
X154300Y331403D01*
X154324Y331339D01*
X154353Y331276D01*
X154384Y331215D01*
X154419Y331156D01*
X154457Y331098D01*
X154499Y331043D01*
X154543Y330991D01*
X154591Y330941D01*
X154641Y330893D01*
X154693Y330849D01*
X154748Y330807D01*
X154806Y330769D01*
X154865Y330734D01*
X154926Y330703D01*
X154989Y330674D01*
X155053Y330650D01*
X155119Y330629D01*
X155186Y330612D01*
X155253Y330598D01*
X155322Y330589D01*
X155390Y330583D01*
X155459Y330581D01*
X155868Y330581D01*
X162247Y330581D02*
X164702Y337947D01*
X167158Y330581D01*
X166544Y332423D02*
X162861Y332423D01*
X169893Y332218D02*
X169893Y333855D01*
X169895Y333934D01*
X169901Y334013D01*
X169910Y334092D01*
X169923Y334170D01*
X169941Y334247D01*
X169961Y334323D01*
X169986Y334398D01*
X170014Y334472D01*
X170045Y334545D01*
X170081Y334616D01*
X170119Y334685D01*
X170161Y334752D01*
X170206Y334817D01*
X170254Y334880D01*
X170305Y334941D01*
X170359Y334998D01*
X170415Y335054D01*
X170474Y335106D01*
X170536Y335156D01*
X170600Y335202D01*
X170666Y335246D01*
X170734Y335286D01*
X170804Y335322D01*
X170876Y335356D01*
X170950Y335386D01*
X171024Y335412D01*
X171100Y335435D01*
X171177Y335453D01*
X171254Y335469D01*
X171333Y335480D01*
X171411Y335488D01*
X171490Y335492D01*
X171570Y335492D01*
X171649Y335488D01*
X171727Y335480D01*
X171806Y335469D01*
X171883Y335453D01*
X171960Y335435D01*
X172036Y335412D01*
X172110Y335386D01*
X172184Y335356D01*
X172256Y335322D01*
X172326Y335286D01*
X172394Y335246D01*
X172460Y335202D01*
X172524Y335156D01*
X172586Y335106D01*
X172645Y335054D01*
X172701Y334998D01*
X172755Y334941D01*
X172806Y334880D01*
X172854Y334817D01*
X172899Y334752D01*
X172941Y334685D01*
X172979Y334616D01*
X173015Y334545D01*
X173046Y334472D01*
X173074Y334398D01*
X173099Y334323D01*
X173119Y334247D01*
X173137Y334170D01*
X173150Y334092D01*
X173159Y334013D01*
X173165Y333934D01*
X173167Y333855D01*
X173167Y332218D01*
X173165Y332139D01*
X173159Y332060D01*
X173150Y331981D01*
X173137Y331903D01*
X173119Y331826D01*
X173099Y331750D01*
X173074Y331675D01*
X173046Y331601D01*
X173015Y331528D01*
X172979Y331457D01*
X172941Y331388D01*
X172899Y331321D01*
X172854Y331256D01*
X172806Y331193D01*
X172755Y331132D01*
X172701Y331075D01*
X172645Y331019D01*
X172586Y330967D01*
X172524Y330917D01*
X172460Y330871D01*
X172394Y330827D01*
X172326Y330787D01*
X172256Y330751D01*
X172184Y330717D01*
X172110Y330687D01*
X172036Y330661D01*
X171960Y330638D01*
X171883Y330620D01*
X171806Y330604D01*
X171727Y330593D01*
X171649Y330585D01*
X171570Y330581D01*
X171490Y330581D01*
X171411Y330585D01*
X171333Y330593D01*
X171254Y330604D01*
X171177Y330620D01*
X171100Y330638D01*
X171024Y330661D01*
X170950Y330687D01*
X170876Y330717D01*
X170804Y330751D01*
X170734Y330787D01*
X170666Y330827D01*
X170600Y330871D01*
X170536Y330917D01*
X170474Y330967D01*
X170415Y331019D01*
X170359Y331075D01*
X170305Y331132D01*
X170254Y331193D01*
X170206Y331256D01*
X170161Y331321D01*
X170119Y331388D01*
X170081Y331457D01*
X170045Y331528D01*
X170014Y331601D01*
X169986Y331675D01*
X169961Y331750D01*
X169941Y331826D01*
X169923Y331903D01*
X169910Y331981D01*
X169901Y332060D01*
X169895Y332139D01*
X169893Y332218D01*
X176477Y331809D02*
X176477Y335492D01*
X176476Y331809D02*
X176478Y331740D01*
X176484Y331672D01*
X176493Y331603D01*
X176507Y331536D01*
X176524Y331469D01*
X176545Y331403D01*
X176569Y331339D01*
X176598Y331276D01*
X176629Y331215D01*
X176664Y331156D01*
X176702Y331098D01*
X176744Y331043D01*
X176788Y330991D01*
X176836Y330941D01*
X176886Y330893D01*
X176938Y330849D01*
X176993Y330807D01*
X177051Y330769D01*
X177110Y330734D01*
X177171Y330703D01*
X177234Y330674D01*
X177298Y330650D01*
X177364Y330629D01*
X177431Y330612D01*
X177498Y330598D01*
X177567Y330589D01*
X177635Y330583D01*
X177704Y330581D01*
X179750Y330581D01*
X179750Y335492D01*
X182430Y335492D02*
X184885Y335492D01*
X183248Y337947D02*
X183248Y331809D01*
X183250Y331740D01*
X183256Y331672D01*
X183265Y331603D01*
X183279Y331536D01*
X183296Y331469D01*
X183317Y331403D01*
X183341Y331339D01*
X183370Y331276D01*
X183401Y331215D01*
X183436Y331156D01*
X183474Y331098D01*
X183516Y331043D01*
X183560Y330991D01*
X183608Y330941D01*
X183658Y330893D01*
X183710Y330849D01*
X183765Y330807D01*
X183823Y330769D01*
X183882Y330734D01*
X183943Y330703D01*
X184006Y330674D01*
X184070Y330650D01*
X184136Y330629D01*
X184203Y330612D01*
X184270Y330598D01*
X184339Y330589D01*
X184407Y330583D01*
X184476Y330581D01*
X184885Y330581D01*
X127381Y134747D02*
X129836Y127381D01*
X132292Y134747D01*
X136264Y127381D02*
X137901Y127381D01*
X136264Y127381D02*
X136195Y127383D01*
X136127Y127389D01*
X136058Y127398D01*
X135991Y127412D01*
X135924Y127429D01*
X135858Y127450D01*
X135794Y127474D01*
X135731Y127503D01*
X135670Y127534D01*
X135611Y127569D01*
X135553Y127607D01*
X135498Y127649D01*
X135446Y127693D01*
X135396Y127741D01*
X135348Y127791D01*
X135304Y127843D01*
X135262Y127898D01*
X135224Y127956D01*
X135189Y128015D01*
X135158Y128076D01*
X135129Y128139D01*
X135105Y128203D01*
X135084Y128269D01*
X135067Y128336D01*
X135053Y128403D01*
X135044Y128472D01*
X135038Y128540D01*
X135036Y128609D01*
X135036Y131064D01*
X135038Y131133D01*
X135044Y131201D01*
X135053Y131270D01*
X135067Y131337D01*
X135084Y131404D01*
X135105Y131470D01*
X135129Y131534D01*
X135158Y131597D01*
X135189Y131658D01*
X135224Y131717D01*
X135262Y131775D01*
X135304Y131830D01*
X135348Y131882D01*
X135396Y131932D01*
X135446Y131980D01*
X135498Y132024D01*
X135553Y132066D01*
X135611Y132104D01*
X135670Y132139D01*
X135731Y132170D01*
X135794Y132199D01*
X135858Y132223D01*
X135924Y132244D01*
X135991Y132261D01*
X136058Y132275D01*
X136127Y132284D01*
X136195Y132290D01*
X136264Y132292D01*
X137901Y132292D01*
X141872Y127381D02*
X143509Y127381D01*
X141872Y127381D02*
X141803Y127383D01*
X141735Y127389D01*
X141666Y127398D01*
X141599Y127412D01*
X141532Y127429D01*
X141466Y127450D01*
X141402Y127474D01*
X141339Y127503D01*
X141278Y127534D01*
X141219Y127569D01*
X141161Y127607D01*
X141106Y127649D01*
X141054Y127693D01*
X141004Y127741D01*
X140956Y127791D01*
X140912Y127843D01*
X140870Y127898D01*
X140832Y127956D01*
X140797Y128015D01*
X140766Y128076D01*
X140737Y128139D01*
X140713Y128203D01*
X140692Y128269D01*
X140675Y128336D01*
X140661Y128403D01*
X140652Y128472D01*
X140646Y128540D01*
X140644Y128609D01*
X140644Y131064D01*
X140646Y131133D01*
X140652Y131201D01*
X140661Y131270D01*
X140675Y131337D01*
X140692Y131404D01*
X140713Y131470D01*
X140737Y131534D01*
X140766Y131597D01*
X140797Y131658D01*
X140832Y131717D01*
X140870Y131775D01*
X140912Y131830D01*
X140956Y131882D01*
X141004Y131932D01*
X141054Y131980D01*
X141106Y132024D01*
X141161Y132066D01*
X141219Y132104D01*
X141278Y132139D01*
X141339Y132170D01*
X141402Y132199D01*
X141466Y132223D01*
X141532Y132244D01*
X141599Y132261D01*
X141666Y132275D01*
X141735Y132284D01*
X141803Y132290D01*
X141872Y132292D01*
X143509Y132292D01*
X150483Y134747D02*
X150483Y127381D01*
X153757Y127381D01*
X156823Y127381D02*
X160097Y127381D01*
X156823Y127381D02*
X156823Y134747D01*
X160097Y134747D01*
X159278Y131473D02*
X156823Y131473D01*
X163147Y134747D02*
X163147Y127381D01*
X163147Y134747D02*
X165193Y134747D01*
X165282Y134745D01*
X165371Y134739D01*
X165460Y134729D01*
X165548Y134716D01*
X165636Y134699D01*
X165723Y134677D01*
X165808Y134652D01*
X165893Y134624D01*
X165976Y134591D01*
X166058Y134555D01*
X166138Y134516D01*
X166216Y134473D01*
X166292Y134427D01*
X166367Y134377D01*
X166439Y134324D01*
X166508Y134268D01*
X166575Y134209D01*
X166640Y134148D01*
X166701Y134083D01*
X166760Y134016D01*
X166816Y133947D01*
X166869Y133875D01*
X166919Y133800D01*
X166965Y133724D01*
X167008Y133646D01*
X167047Y133566D01*
X167083Y133484D01*
X167116Y133401D01*
X167144Y133316D01*
X167169Y133231D01*
X167191Y133144D01*
X167208Y133056D01*
X167221Y132968D01*
X167231Y132879D01*
X167237Y132790D01*
X167239Y132701D01*
X167239Y129427D01*
X167237Y129338D01*
X167231Y129249D01*
X167221Y129160D01*
X167208Y129072D01*
X167191Y128984D01*
X167169Y128897D01*
X167144Y128812D01*
X167116Y128727D01*
X167083Y128644D01*
X167047Y128562D01*
X167008Y128482D01*
X166965Y128404D01*
X166919Y128328D01*
X166869Y128253D01*
X166816Y128181D01*
X166760Y128112D01*
X166701Y128045D01*
X166640Y127980D01*
X166575Y127919D01*
X166508Y127860D01*
X166439Y127804D01*
X166367Y127751D01*
X166292Y127701D01*
X166216Y127655D01*
X166138Y127612D01*
X166058Y127573D01*
X165976Y127537D01*
X165893Y127504D01*
X165808Y127476D01*
X165723Y127451D01*
X165636Y127429D01*
X165548Y127412D01*
X165460Y127399D01*
X165371Y127389D01*
X165282Y127383D01*
X165193Y127381D01*
X163147Y127381D01*
X394081Y134747D02*
X396536Y127381D01*
X398992Y134747D01*
X402955Y127381D02*
X405001Y127381D01*
X402955Y127381D02*
X402886Y127383D01*
X402818Y127389D01*
X402749Y127398D01*
X402682Y127412D01*
X402615Y127429D01*
X402549Y127450D01*
X402485Y127474D01*
X402422Y127503D01*
X402361Y127534D01*
X402302Y127569D01*
X402244Y127607D01*
X402189Y127649D01*
X402137Y127693D01*
X402087Y127741D01*
X402039Y127791D01*
X401995Y127843D01*
X401953Y127898D01*
X401915Y127956D01*
X401880Y128015D01*
X401849Y128076D01*
X401820Y128139D01*
X401796Y128203D01*
X401775Y128269D01*
X401758Y128336D01*
X401744Y128403D01*
X401735Y128472D01*
X401729Y128540D01*
X401727Y128609D01*
X401727Y130655D01*
X401729Y130734D01*
X401735Y130813D01*
X401744Y130892D01*
X401757Y130970D01*
X401775Y131047D01*
X401795Y131123D01*
X401820Y131198D01*
X401848Y131272D01*
X401879Y131345D01*
X401915Y131416D01*
X401953Y131485D01*
X401995Y131552D01*
X402040Y131617D01*
X402088Y131680D01*
X402139Y131741D01*
X402193Y131798D01*
X402249Y131854D01*
X402308Y131906D01*
X402370Y131956D01*
X402434Y132002D01*
X402500Y132046D01*
X402568Y132086D01*
X402638Y132122D01*
X402710Y132156D01*
X402784Y132186D01*
X402858Y132212D01*
X402934Y132235D01*
X403011Y132253D01*
X403088Y132269D01*
X403167Y132280D01*
X403245Y132288D01*
X403324Y132292D01*
X403404Y132292D01*
X403483Y132288D01*
X403561Y132280D01*
X403640Y132269D01*
X403717Y132253D01*
X403794Y132235D01*
X403870Y132212D01*
X403944Y132186D01*
X404018Y132156D01*
X404090Y132122D01*
X404160Y132086D01*
X404228Y132046D01*
X404294Y132002D01*
X404358Y131956D01*
X404420Y131906D01*
X404479Y131854D01*
X404535Y131798D01*
X404589Y131741D01*
X404640Y131680D01*
X404688Y131617D01*
X404733Y131552D01*
X404775Y131485D01*
X404813Y131416D01*
X404849Y131345D01*
X404880Y131272D01*
X404908Y131198D01*
X404933Y131123D01*
X404953Y131047D01*
X404971Y130970D01*
X404984Y130892D01*
X404993Y130813D01*
X404999Y130734D01*
X405001Y130655D01*
X405001Y129836D01*
X401727Y129836D01*
X409294Y127381D02*
X411341Y127381D01*
X409294Y127381D02*
X409225Y127383D01*
X409157Y127389D01*
X409088Y127398D01*
X409021Y127412D01*
X408954Y127429D01*
X408888Y127450D01*
X408824Y127474D01*
X408761Y127503D01*
X408700Y127534D01*
X408641Y127569D01*
X408583Y127607D01*
X408528Y127649D01*
X408476Y127693D01*
X408426Y127741D01*
X408378Y127791D01*
X408334Y127843D01*
X408292Y127898D01*
X408254Y127956D01*
X408219Y128015D01*
X408188Y128076D01*
X408159Y128139D01*
X408135Y128203D01*
X408114Y128269D01*
X408097Y128336D01*
X408083Y128403D01*
X408074Y128472D01*
X408068Y128540D01*
X408066Y128609D01*
X408067Y128609D02*
X408067Y130655D01*
X408069Y130734D01*
X408075Y130813D01*
X408084Y130892D01*
X408097Y130970D01*
X408115Y131047D01*
X408135Y131123D01*
X408160Y131198D01*
X408188Y131272D01*
X408219Y131345D01*
X408255Y131416D01*
X408293Y131485D01*
X408335Y131552D01*
X408380Y131617D01*
X408428Y131680D01*
X408479Y131741D01*
X408533Y131798D01*
X408589Y131854D01*
X408648Y131906D01*
X408710Y131956D01*
X408774Y132002D01*
X408840Y132046D01*
X408908Y132086D01*
X408978Y132122D01*
X409050Y132156D01*
X409124Y132186D01*
X409198Y132212D01*
X409274Y132235D01*
X409351Y132253D01*
X409428Y132269D01*
X409507Y132280D01*
X409585Y132288D01*
X409664Y132292D01*
X409744Y132292D01*
X409823Y132288D01*
X409901Y132280D01*
X409980Y132269D01*
X410057Y132253D01*
X410134Y132235D01*
X410210Y132212D01*
X410284Y132186D01*
X410358Y132156D01*
X410430Y132122D01*
X410500Y132086D01*
X410568Y132046D01*
X410634Y132002D01*
X410698Y131956D01*
X410760Y131906D01*
X410819Y131854D01*
X410875Y131798D01*
X410929Y131741D01*
X410980Y131680D01*
X411028Y131617D01*
X411073Y131552D01*
X411115Y131485D01*
X411153Y131416D01*
X411189Y131345D01*
X411220Y131272D01*
X411248Y131198D01*
X411273Y131123D01*
X411293Y131047D01*
X411311Y130970D01*
X411324Y130892D01*
X411333Y130813D01*
X411339Y130734D01*
X411341Y130655D01*
X411341Y129836D01*
X408067Y129836D01*
X418646Y127381D02*
X418646Y134747D01*
X418646Y127381D02*
X421920Y127381D01*
X424986Y127381D02*
X428260Y127381D01*
X424986Y127381D02*
X424986Y134747D01*
X428260Y134747D01*
X427441Y131473D02*
X424986Y131473D01*
X431310Y134747D02*
X431310Y127381D01*
X431310Y134747D02*
X433356Y134747D01*
X433445Y134745D01*
X433534Y134739D01*
X433623Y134729D01*
X433711Y134716D01*
X433799Y134699D01*
X433886Y134677D01*
X433971Y134652D01*
X434056Y134624D01*
X434139Y134591D01*
X434221Y134555D01*
X434301Y134516D01*
X434379Y134473D01*
X434455Y134427D01*
X434530Y134377D01*
X434602Y134324D01*
X434671Y134268D01*
X434738Y134209D01*
X434803Y134148D01*
X434864Y134083D01*
X434923Y134016D01*
X434979Y133947D01*
X435032Y133875D01*
X435082Y133800D01*
X435128Y133724D01*
X435171Y133646D01*
X435210Y133566D01*
X435246Y133484D01*
X435279Y133401D01*
X435307Y133316D01*
X435332Y133231D01*
X435354Y133144D01*
X435371Y133056D01*
X435384Y132968D01*
X435394Y132879D01*
X435400Y132790D01*
X435402Y132701D01*
X435402Y129427D01*
X435400Y129338D01*
X435394Y129249D01*
X435384Y129160D01*
X435371Y129072D01*
X435354Y128984D01*
X435332Y128897D01*
X435307Y128812D01*
X435279Y128727D01*
X435246Y128644D01*
X435210Y128562D01*
X435171Y128482D01*
X435128Y128404D01*
X435082Y128328D01*
X435032Y128253D01*
X434979Y128181D01*
X434923Y128112D01*
X434864Y128045D01*
X434803Y127980D01*
X434738Y127919D01*
X434671Y127860D01*
X434602Y127804D01*
X434530Y127751D01*
X434455Y127701D01*
X434379Y127655D01*
X434301Y127612D01*
X434221Y127573D01*
X434139Y127537D01*
X434056Y127504D01*
X433971Y127476D01*
X433886Y127451D01*
X433799Y127429D01*
X433711Y127412D01*
X433623Y127399D01*
X433534Y127389D01*
X433445Y127383D01*
X433356Y127381D01*
X431310Y127381D01*
X156055Y216281D02*
X154418Y216281D01*
X154340Y216283D01*
X154262Y216288D01*
X154185Y216298D01*
X154108Y216311D01*
X154032Y216327D01*
X153957Y216347D01*
X153883Y216371D01*
X153810Y216398D01*
X153738Y216429D01*
X153668Y216463D01*
X153600Y216500D01*
X153533Y216541D01*
X153468Y216585D01*
X153406Y216631D01*
X153346Y216681D01*
X153288Y216733D01*
X153233Y216788D01*
X153181Y216846D01*
X153131Y216906D01*
X153085Y216968D01*
X153041Y217033D01*
X153000Y217100D01*
X152963Y217168D01*
X152929Y217238D01*
X152898Y217310D01*
X152871Y217383D01*
X152847Y217457D01*
X152827Y217532D01*
X152811Y217608D01*
X152798Y217685D01*
X152788Y217762D01*
X152783Y217840D01*
X152781Y217918D01*
X152781Y222010D01*
X152783Y222090D01*
X152789Y222170D01*
X152799Y222250D01*
X152812Y222329D01*
X152830Y222408D01*
X152851Y222485D01*
X152877Y222561D01*
X152906Y222636D01*
X152938Y222710D01*
X152974Y222782D01*
X153014Y222852D01*
X153057Y222919D01*
X153103Y222985D01*
X153153Y223048D01*
X153205Y223109D01*
X153260Y223168D01*
X153319Y223223D01*
X153379Y223275D01*
X153443Y223325D01*
X153509Y223371D01*
X153576Y223414D01*
X153646Y223454D01*
X153718Y223490D01*
X153792Y223522D01*
X153866Y223551D01*
X153943Y223577D01*
X154020Y223598D01*
X154099Y223616D01*
X154178Y223629D01*
X154258Y223639D01*
X154338Y223645D01*
X154418Y223647D01*
X156055Y223647D01*
X158900Y222010D02*
X160946Y223647D01*
X160946Y216281D01*
X158900Y216281D02*
X162992Y216281D01*
X421118Y216281D02*
X422755Y216281D01*
X421118Y216281D02*
X421040Y216283D01*
X420962Y216288D01*
X420885Y216298D01*
X420808Y216311D01*
X420732Y216327D01*
X420657Y216347D01*
X420583Y216371D01*
X420510Y216398D01*
X420438Y216429D01*
X420368Y216463D01*
X420300Y216500D01*
X420233Y216541D01*
X420168Y216585D01*
X420106Y216631D01*
X420046Y216681D01*
X419988Y216733D01*
X419933Y216788D01*
X419881Y216846D01*
X419831Y216906D01*
X419785Y216968D01*
X419741Y217033D01*
X419700Y217100D01*
X419663Y217168D01*
X419629Y217238D01*
X419598Y217310D01*
X419571Y217383D01*
X419547Y217457D01*
X419527Y217532D01*
X419511Y217608D01*
X419498Y217685D01*
X419488Y217762D01*
X419483Y217840D01*
X419481Y217918D01*
X419481Y222010D01*
X419483Y222090D01*
X419489Y222170D01*
X419499Y222250D01*
X419512Y222329D01*
X419530Y222408D01*
X419551Y222485D01*
X419577Y222561D01*
X419606Y222636D01*
X419638Y222710D01*
X419674Y222782D01*
X419714Y222852D01*
X419757Y222919D01*
X419803Y222985D01*
X419853Y223048D01*
X419905Y223109D01*
X419960Y223168D01*
X420019Y223223D01*
X420079Y223275D01*
X420143Y223325D01*
X420209Y223371D01*
X420276Y223414D01*
X420346Y223454D01*
X420418Y223490D01*
X420492Y223522D01*
X420566Y223551D01*
X420643Y223577D01*
X420720Y223598D01*
X420799Y223616D01*
X420878Y223629D01*
X420958Y223639D01*
X421038Y223645D01*
X421118Y223647D01*
X422755Y223647D01*
X427851Y223648D02*
X427936Y223646D01*
X428021Y223640D01*
X428105Y223630D01*
X428189Y223617D01*
X428273Y223599D01*
X428355Y223578D01*
X428436Y223553D01*
X428516Y223524D01*
X428595Y223491D01*
X428672Y223455D01*
X428747Y223415D01*
X428821Y223372D01*
X428892Y223326D01*
X428961Y223276D01*
X429028Y223223D01*
X429092Y223167D01*
X429153Y223108D01*
X429212Y223047D01*
X429268Y222983D01*
X429321Y222916D01*
X429371Y222847D01*
X429417Y222776D01*
X429460Y222702D01*
X429500Y222627D01*
X429536Y222550D01*
X429569Y222471D01*
X429598Y222391D01*
X429623Y222310D01*
X429644Y222228D01*
X429662Y222144D01*
X429675Y222060D01*
X429685Y221976D01*
X429691Y221891D01*
X429693Y221806D01*
X427851Y223647D02*
X427755Y223645D01*
X427659Y223639D01*
X427564Y223629D01*
X427469Y223616D01*
X427374Y223598D01*
X427281Y223577D01*
X427188Y223552D01*
X427097Y223523D01*
X427006Y223491D01*
X426917Y223455D01*
X426830Y223415D01*
X426744Y223372D01*
X426660Y223326D01*
X426578Y223276D01*
X426498Y223222D01*
X426421Y223166D01*
X426346Y223106D01*
X426273Y223044D01*
X426203Y222978D01*
X426135Y222910D01*
X426070Y222839D01*
X426009Y222766D01*
X425950Y222690D01*
X425894Y222611D01*
X425842Y222531D01*
X425793Y222448D01*
X425747Y222364D01*
X425705Y222278D01*
X425667Y222190D01*
X425632Y222101D01*
X425600Y222010D01*
X429078Y220374D02*
X429138Y220433D01*
X429195Y220495D01*
X429250Y220559D01*
X429301Y220626D01*
X429350Y220695D01*
X429396Y220765D01*
X429439Y220838D01*
X429479Y220912D01*
X429515Y220988D01*
X429548Y221066D01*
X429578Y221145D01*
X429605Y221225D01*
X429628Y221306D01*
X429647Y221388D01*
X429663Y221470D01*
X429676Y221554D01*
X429685Y221638D01*
X429690Y221722D01*
X429692Y221806D01*
X429078Y220373D02*
X425600Y216281D01*
X429692Y216281D01*
D11*
X239282Y285000D02*
X239284Y285066D01*
X239290Y285132D01*
X239300Y285198D01*
X239313Y285263D01*
X239331Y285327D01*
X239352Y285389D01*
X239377Y285451D01*
X239405Y285511D01*
X239437Y285569D01*
X239473Y285625D01*
X239511Y285678D01*
X239553Y285730D01*
X239598Y285779D01*
X239645Y285825D01*
X239696Y285868D01*
X239748Y285908D01*
X239803Y285945D01*
X239860Y285979D01*
X239919Y286009D01*
X239980Y286036D01*
X240042Y286059D01*
X240105Y286078D01*
X240170Y286094D01*
X240235Y286106D01*
X240301Y286114D01*
X240367Y286118D01*
X240433Y286118D01*
X240499Y286114D01*
X240565Y286106D01*
X240630Y286094D01*
X240695Y286078D01*
X240758Y286059D01*
X240820Y286036D01*
X240881Y286009D01*
X240940Y285979D01*
X240997Y285945D01*
X241052Y285908D01*
X241104Y285868D01*
X241155Y285825D01*
X241202Y285779D01*
X241247Y285730D01*
X241289Y285678D01*
X241327Y285625D01*
X241363Y285569D01*
X241395Y285511D01*
X241423Y285451D01*
X241448Y285389D01*
X241469Y285327D01*
X241487Y285263D01*
X241500Y285198D01*
X241510Y285132D01*
X241516Y285066D01*
X241518Y285000D01*
X241516Y284934D01*
X241510Y284868D01*
X241500Y284802D01*
X241487Y284737D01*
X241469Y284673D01*
X241448Y284611D01*
X241423Y284549D01*
X241395Y284489D01*
X241363Y284431D01*
X241327Y284375D01*
X241289Y284322D01*
X241247Y284270D01*
X241202Y284221D01*
X241155Y284175D01*
X241104Y284132D01*
X241052Y284092D01*
X240997Y284055D01*
X240940Y284021D01*
X240881Y283991D01*
X240820Y283964D01*
X240758Y283941D01*
X240695Y283922D01*
X240630Y283906D01*
X240565Y283894D01*
X240499Y283886D01*
X240433Y283882D01*
X240367Y283882D01*
X240301Y283886D01*
X240235Y283894D01*
X240170Y283906D01*
X240105Y283922D01*
X240042Y283941D01*
X239980Y283964D01*
X239919Y283991D01*
X239860Y284021D01*
X239803Y284055D01*
X239748Y284092D01*
X239696Y284132D01*
X239645Y284175D01*
X239598Y284221D01*
X239553Y284270D01*
X239511Y284322D01*
X239473Y284375D01*
X239437Y284431D01*
X239405Y284489D01*
X239377Y284549D01*
X239352Y284611D01*
X239331Y284673D01*
X239313Y284737D01*
X239300Y284802D01*
X239290Y284868D01*
X239284Y284934D01*
X239282Y285000D01*
D12*
X239408Y357054D02*
X239408Y362246D01*
X239410Y362359D01*
X239416Y362472D01*
X239426Y362585D01*
X239440Y362698D01*
X239457Y362810D01*
X239479Y362921D01*
X239504Y363031D01*
X239534Y363141D01*
X239567Y363249D01*
X239604Y363356D01*
X239644Y363462D01*
X239689Y363566D01*
X239737Y363669D01*
X239788Y363770D01*
X239843Y363869D01*
X239901Y363966D01*
X239963Y364061D01*
X240028Y364154D01*
X240096Y364244D01*
X240167Y364332D01*
X240242Y364418D01*
X240319Y364501D01*
X240399Y364581D01*
X240482Y364658D01*
X240568Y364733D01*
X240656Y364804D01*
X240746Y364872D01*
X240839Y364937D01*
X240934Y364999D01*
X241031Y365057D01*
X241130Y365112D01*
X241231Y365163D01*
X241334Y365211D01*
X241438Y365256D01*
X241544Y365296D01*
X241651Y365333D01*
X241759Y365366D01*
X241869Y365396D01*
X241979Y365421D01*
X242090Y365443D01*
X242202Y365460D01*
X242315Y365474D01*
X242428Y365484D01*
X242541Y365490D01*
X242654Y365492D01*
X242767Y365490D01*
X242880Y365484D01*
X242993Y365474D01*
X243106Y365460D01*
X243218Y365443D01*
X243329Y365421D01*
X243439Y365396D01*
X243549Y365366D01*
X243657Y365333D01*
X243764Y365296D01*
X243870Y365256D01*
X243974Y365211D01*
X244077Y365163D01*
X244178Y365112D01*
X244277Y365057D01*
X244374Y364999D01*
X244469Y364937D01*
X244562Y364872D01*
X244652Y364804D01*
X244740Y364733D01*
X244826Y364658D01*
X244909Y364581D01*
X244989Y364501D01*
X245066Y364418D01*
X245141Y364332D01*
X245212Y364244D01*
X245280Y364154D01*
X245345Y364061D01*
X245407Y363966D01*
X245465Y363869D01*
X245520Y363770D01*
X245571Y363669D01*
X245619Y363566D01*
X245664Y363462D01*
X245704Y363356D01*
X245741Y363249D01*
X245774Y363141D01*
X245804Y363031D01*
X245829Y362921D01*
X245851Y362810D01*
X245868Y362698D01*
X245882Y362585D01*
X245892Y362472D01*
X245898Y362359D01*
X245900Y362246D01*
X245899Y362246D02*
X245899Y357054D01*
X245900Y357054D02*
X245898Y356941D01*
X245892Y356828D01*
X245882Y356715D01*
X245868Y356602D01*
X245851Y356490D01*
X245829Y356379D01*
X245804Y356269D01*
X245774Y356159D01*
X245741Y356051D01*
X245704Y355944D01*
X245664Y355838D01*
X245619Y355734D01*
X245571Y355631D01*
X245520Y355530D01*
X245465Y355431D01*
X245407Y355334D01*
X245345Y355239D01*
X245280Y355146D01*
X245212Y355056D01*
X245141Y354968D01*
X245066Y354882D01*
X244989Y354799D01*
X244909Y354719D01*
X244826Y354642D01*
X244740Y354567D01*
X244652Y354496D01*
X244562Y354428D01*
X244469Y354363D01*
X244374Y354301D01*
X244277Y354243D01*
X244178Y354188D01*
X244077Y354137D01*
X243974Y354089D01*
X243870Y354044D01*
X243764Y354004D01*
X243657Y353967D01*
X243549Y353934D01*
X243439Y353904D01*
X243329Y353879D01*
X243218Y353857D01*
X243106Y353840D01*
X242993Y353826D01*
X242880Y353816D01*
X242767Y353810D01*
X242654Y353808D01*
X242541Y353810D01*
X242428Y353816D01*
X242315Y353826D01*
X242202Y353840D01*
X242090Y353857D01*
X241979Y353879D01*
X241869Y353904D01*
X241759Y353934D01*
X241651Y353967D01*
X241544Y354004D01*
X241438Y354044D01*
X241334Y354089D01*
X241231Y354137D01*
X241130Y354188D01*
X241031Y354243D01*
X240934Y354301D01*
X240839Y354363D01*
X240746Y354428D01*
X240656Y354496D01*
X240568Y354567D01*
X240482Y354642D01*
X240399Y354719D01*
X240319Y354799D01*
X240242Y354882D01*
X240167Y354968D01*
X240096Y355056D01*
X240028Y355146D01*
X239963Y355239D01*
X239901Y355334D01*
X239843Y355431D01*
X239788Y355530D01*
X239737Y355631D01*
X239689Y355734D01*
X239644Y355838D01*
X239604Y355944D01*
X239567Y356051D01*
X239534Y356159D01*
X239504Y356269D01*
X239479Y356379D01*
X239457Y356490D01*
X239440Y356602D01*
X239426Y356715D01*
X239416Y356828D01*
X239410Y356941D01*
X239408Y357054D01*
X251388Y353808D02*
X251388Y365492D01*
X254634Y365492D01*
X254747Y365490D01*
X254860Y365484D01*
X254973Y365474D01*
X255086Y365460D01*
X255198Y365443D01*
X255309Y365421D01*
X255419Y365396D01*
X255529Y365366D01*
X255637Y365333D01*
X255744Y365296D01*
X255850Y365256D01*
X255954Y365211D01*
X256057Y365163D01*
X256158Y365112D01*
X256257Y365057D01*
X256354Y364999D01*
X256449Y364937D01*
X256542Y364872D01*
X256632Y364804D01*
X256720Y364733D01*
X256806Y364658D01*
X256889Y364581D01*
X256969Y364501D01*
X257046Y364418D01*
X257121Y364332D01*
X257192Y364244D01*
X257260Y364154D01*
X257325Y364061D01*
X257387Y363966D01*
X257445Y363869D01*
X257500Y363770D01*
X257551Y363669D01*
X257599Y363566D01*
X257644Y363462D01*
X257684Y363356D01*
X257721Y363249D01*
X257754Y363141D01*
X257784Y363031D01*
X257809Y362921D01*
X257831Y362810D01*
X257848Y362698D01*
X257862Y362585D01*
X257872Y362472D01*
X257878Y362359D01*
X257880Y362246D01*
X257878Y362133D01*
X257872Y362020D01*
X257862Y361907D01*
X257848Y361794D01*
X257831Y361682D01*
X257809Y361571D01*
X257784Y361461D01*
X257754Y361351D01*
X257721Y361243D01*
X257684Y361136D01*
X257644Y361030D01*
X257599Y360926D01*
X257551Y360823D01*
X257500Y360722D01*
X257445Y360623D01*
X257387Y360526D01*
X257325Y360431D01*
X257260Y360338D01*
X257192Y360248D01*
X257121Y360160D01*
X257046Y360074D01*
X256969Y359991D01*
X256889Y359911D01*
X256806Y359834D01*
X256720Y359759D01*
X256632Y359688D01*
X256542Y359620D01*
X256449Y359555D01*
X256354Y359493D01*
X256257Y359435D01*
X256158Y359380D01*
X256057Y359329D01*
X255954Y359281D01*
X255850Y359236D01*
X255744Y359196D01*
X255637Y359159D01*
X255529Y359126D01*
X255419Y359096D01*
X255309Y359071D01*
X255198Y359049D01*
X255086Y359032D01*
X254973Y359018D01*
X254860Y359008D01*
X254747Y359002D01*
X254634Y359000D01*
X254634Y359001D02*
X251388Y359001D01*
X262268Y362896D02*
X265513Y365492D01*
X265513Y353808D01*
X262268Y353808D02*
X268759Y353808D01*
D13*
X254000Y229870D02*
X254000Y227330D01*
D11*
X241681Y207899D02*
X230251Y207899D01*
X230251Y211074D01*
X230253Y211185D01*
X230259Y211295D01*
X230268Y211406D01*
X230282Y211516D01*
X230299Y211625D01*
X230320Y211734D01*
X230345Y211842D01*
X230374Y211949D01*
X230406Y212055D01*
X230442Y212160D01*
X230482Y212263D01*
X230525Y212365D01*
X230572Y212466D01*
X230623Y212565D01*
X230676Y212662D01*
X230733Y212756D01*
X230794Y212849D01*
X230857Y212940D01*
X230924Y213029D01*
X230994Y213115D01*
X231067Y213198D01*
X231142Y213280D01*
X231220Y213358D01*
X231302Y213433D01*
X231385Y213506D01*
X231471Y213576D01*
X231560Y213643D01*
X231651Y213706D01*
X231744Y213767D01*
X231839Y213824D01*
X231935Y213877D01*
X232034Y213928D01*
X232135Y213975D01*
X232237Y214018D01*
X232340Y214058D01*
X232445Y214094D01*
X232551Y214126D01*
X232658Y214155D01*
X232766Y214180D01*
X232875Y214201D01*
X232984Y214218D01*
X233094Y214232D01*
X233205Y214241D01*
X233315Y214247D01*
X233426Y214249D01*
X233537Y214247D01*
X233647Y214241D01*
X233758Y214232D01*
X233868Y214218D01*
X233977Y214201D01*
X234086Y214180D01*
X234194Y214155D01*
X234301Y214126D01*
X234407Y214094D01*
X234512Y214058D01*
X234615Y214018D01*
X234717Y213975D01*
X234818Y213928D01*
X234917Y213877D01*
X235014Y213824D01*
X235108Y213767D01*
X235201Y213706D01*
X235292Y213643D01*
X235381Y213576D01*
X235467Y213506D01*
X235550Y213433D01*
X235632Y213358D01*
X235710Y213280D01*
X235785Y213198D01*
X235858Y213115D01*
X235928Y213029D01*
X235995Y212940D01*
X236058Y212849D01*
X236119Y212756D01*
X236176Y212662D01*
X236229Y212565D01*
X236280Y212466D01*
X236327Y212365D01*
X236370Y212263D01*
X236410Y212160D01*
X236446Y212055D01*
X236478Y211949D01*
X236507Y211842D01*
X236532Y211734D01*
X236553Y211625D01*
X236570Y211516D01*
X236584Y211406D01*
X236593Y211295D01*
X236599Y211185D01*
X236601Y211074D01*
X236601Y207899D01*
X236601Y211709D02*
X241681Y214249D01*
X232791Y219246D02*
X230251Y222421D01*
X241681Y222421D01*
X241681Y219246D02*
X241681Y225596D01*
D13*
X228600Y227330D02*
X228600Y229870D01*
D11*
X216281Y207899D02*
X204851Y207899D01*
X204851Y211074D01*
X204853Y211185D01*
X204859Y211295D01*
X204868Y211406D01*
X204882Y211516D01*
X204899Y211625D01*
X204920Y211734D01*
X204945Y211842D01*
X204974Y211949D01*
X205006Y212055D01*
X205042Y212160D01*
X205082Y212263D01*
X205125Y212365D01*
X205172Y212466D01*
X205223Y212565D01*
X205276Y212662D01*
X205333Y212756D01*
X205394Y212849D01*
X205457Y212940D01*
X205524Y213029D01*
X205594Y213115D01*
X205667Y213198D01*
X205742Y213280D01*
X205820Y213358D01*
X205902Y213433D01*
X205985Y213506D01*
X206071Y213576D01*
X206160Y213643D01*
X206251Y213706D01*
X206344Y213767D01*
X206439Y213824D01*
X206535Y213877D01*
X206634Y213928D01*
X206735Y213975D01*
X206837Y214018D01*
X206940Y214058D01*
X207045Y214094D01*
X207151Y214126D01*
X207258Y214155D01*
X207366Y214180D01*
X207475Y214201D01*
X207584Y214218D01*
X207694Y214232D01*
X207805Y214241D01*
X207915Y214247D01*
X208026Y214249D01*
X208137Y214247D01*
X208247Y214241D01*
X208358Y214232D01*
X208468Y214218D01*
X208577Y214201D01*
X208686Y214180D01*
X208794Y214155D01*
X208901Y214126D01*
X209007Y214094D01*
X209112Y214058D01*
X209215Y214018D01*
X209317Y213975D01*
X209418Y213928D01*
X209517Y213877D01*
X209614Y213824D01*
X209708Y213767D01*
X209801Y213706D01*
X209892Y213643D01*
X209981Y213576D01*
X210067Y213506D01*
X210150Y213433D01*
X210232Y213358D01*
X210310Y213280D01*
X210385Y213198D01*
X210458Y213115D01*
X210528Y213029D01*
X210595Y212940D01*
X210658Y212849D01*
X210719Y212756D01*
X210776Y212662D01*
X210829Y212565D01*
X210880Y212466D01*
X210927Y212365D01*
X210970Y212263D01*
X211010Y212160D01*
X211046Y212055D01*
X211078Y211949D01*
X211107Y211842D01*
X211132Y211734D01*
X211153Y211625D01*
X211170Y211516D01*
X211184Y211406D01*
X211193Y211295D01*
X211199Y211185D01*
X211201Y211074D01*
X211201Y207899D01*
X211201Y211709D02*
X216281Y214249D01*
X207709Y225597D02*
X207605Y225595D01*
X207500Y225589D01*
X207396Y225580D01*
X207293Y225567D01*
X207190Y225549D01*
X207088Y225529D01*
X206986Y225504D01*
X206886Y225476D01*
X206786Y225444D01*
X206688Y225408D01*
X206591Y225369D01*
X206496Y225327D01*
X206402Y225281D01*
X206310Y225231D01*
X206220Y225179D01*
X206132Y225123D01*
X206046Y225063D01*
X205962Y225001D01*
X205881Y224936D01*
X205802Y224868D01*
X205725Y224796D01*
X205652Y224723D01*
X205580Y224646D01*
X205512Y224567D01*
X205447Y224486D01*
X205385Y224402D01*
X205325Y224316D01*
X205269Y224228D01*
X205217Y224138D01*
X205167Y224046D01*
X205121Y223952D01*
X205079Y223857D01*
X205040Y223760D01*
X205004Y223662D01*
X204972Y223562D01*
X204944Y223462D01*
X204919Y223360D01*
X204899Y223258D01*
X204881Y223155D01*
X204868Y223052D01*
X204859Y222948D01*
X204853Y222843D01*
X204851Y222739D01*
X204853Y222621D01*
X204859Y222502D01*
X204868Y222384D01*
X204881Y222267D01*
X204899Y222150D01*
X204919Y222033D01*
X204944Y221917D01*
X204972Y221802D01*
X205005Y221689D01*
X205040Y221576D01*
X205080Y221464D01*
X205122Y221354D01*
X205169Y221245D01*
X205219Y221137D01*
X205272Y221032D01*
X205329Y220928D01*
X205389Y220826D01*
X205452Y220726D01*
X205519Y220628D01*
X205588Y220532D01*
X205661Y220439D01*
X205737Y220348D01*
X205815Y220259D01*
X205897Y220173D01*
X205981Y220090D01*
X206067Y220009D01*
X206157Y219932D01*
X206248Y219857D01*
X206342Y219785D01*
X206439Y219716D01*
X206537Y219651D01*
X206638Y219588D01*
X206741Y219529D01*
X206845Y219473D01*
X206951Y219421D01*
X207059Y219372D01*
X207168Y219327D01*
X207279Y219285D01*
X207391Y219247D01*
X209931Y224644D02*
X209856Y224720D01*
X209777Y224795D01*
X209696Y224866D01*
X209612Y224935D01*
X209526Y225000D01*
X209438Y225062D01*
X209348Y225122D01*
X209256Y225178D01*
X209161Y225231D01*
X209065Y225280D01*
X208967Y225326D01*
X208868Y225369D01*
X208767Y225408D01*
X208665Y225443D01*
X208562Y225475D01*
X208458Y225503D01*
X208353Y225528D01*
X208246Y225549D01*
X208140Y225566D01*
X208033Y225579D01*
X207925Y225588D01*
X207817Y225594D01*
X207709Y225596D01*
X209931Y224644D02*
X216281Y219246D01*
X216281Y225596D01*
D13*
X254000Y392430D02*
X254000Y394970D01*
D11*
X241681Y372999D02*
X230251Y372999D01*
X230251Y376174D01*
X230253Y376285D01*
X230259Y376395D01*
X230268Y376506D01*
X230282Y376616D01*
X230299Y376725D01*
X230320Y376834D01*
X230345Y376942D01*
X230374Y377049D01*
X230406Y377155D01*
X230442Y377260D01*
X230482Y377363D01*
X230525Y377465D01*
X230572Y377566D01*
X230623Y377665D01*
X230676Y377762D01*
X230733Y377856D01*
X230794Y377949D01*
X230857Y378040D01*
X230924Y378129D01*
X230994Y378215D01*
X231067Y378298D01*
X231142Y378380D01*
X231220Y378458D01*
X231302Y378533D01*
X231385Y378606D01*
X231471Y378676D01*
X231560Y378743D01*
X231651Y378806D01*
X231744Y378867D01*
X231839Y378924D01*
X231935Y378977D01*
X232034Y379028D01*
X232135Y379075D01*
X232237Y379118D01*
X232340Y379158D01*
X232445Y379194D01*
X232551Y379226D01*
X232658Y379255D01*
X232766Y379280D01*
X232875Y379301D01*
X232984Y379318D01*
X233094Y379332D01*
X233205Y379341D01*
X233315Y379347D01*
X233426Y379349D01*
X233537Y379347D01*
X233647Y379341D01*
X233758Y379332D01*
X233868Y379318D01*
X233977Y379301D01*
X234086Y379280D01*
X234194Y379255D01*
X234301Y379226D01*
X234407Y379194D01*
X234512Y379158D01*
X234615Y379118D01*
X234717Y379075D01*
X234818Y379028D01*
X234917Y378977D01*
X235014Y378924D01*
X235108Y378867D01*
X235201Y378806D01*
X235292Y378743D01*
X235381Y378676D01*
X235467Y378606D01*
X235550Y378533D01*
X235632Y378458D01*
X235710Y378380D01*
X235785Y378298D01*
X235858Y378215D01*
X235928Y378129D01*
X235995Y378040D01*
X236058Y377949D01*
X236119Y377856D01*
X236176Y377762D01*
X236229Y377665D01*
X236280Y377566D01*
X236327Y377465D01*
X236370Y377363D01*
X236410Y377260D01*
X236446Y377155D01*
X236478Y377049D01*
X236507Y376942D01*
X236532Y376834D01*
X236553Y376725D01*
X236570Y376616D01*
X236584Y376506D01*
X236593Y376395D01*
X236599Y376285D01*
X236601Y376174D01*
X236601Y372999D01*
X236601Y376809D02*
X241681Y379349D01*
X241681Y384346D02*
X241681Y387521D01*
X241679Y387632D01*
X241673Y387742D01*
X241664Y387853D01*
X241650Y387963D01*
X241633Y388072D01*
X241612Y388181D01*
X241587Y388289D01*
X241558Y388396D01*
X241526Y388502D01*
X241490Y388607D01*
X241450Y388710D01*
X241407Y388812D01*
X241360Y388913D01*
X241309Y389012D01*
X241256Y389109D01*
X241199Y389203D01*
X241138Y389296D01*
X241075Y389387D01*
X241008Y389476D01*
X240938Y389562D01*
X240865Y389645D01*
X240790Y389727D01*
X240712Y389805D01*
X240630Y389880D01*
X240547Y389953D01*
X240461Y390023D01*
X240372Y390090D01*
X240281Y390153D01*
X240188Y390214D01*
X240094Y390271D01*
X239997Y390324D01*
X239898Y390375D01*
X239797Y390422D01*
X239695Y390465D01*
X239592Y390505D01*
X239487Y390541D01*
X239381Y390573D01*
X239274Y390602D01*
X239166Y390627D01*
X239057Y390648D01*
X238948Y390665D01*
X238838Y390679D01*
X238727Y390688D01*
X238617Y390694D01*
X238506Y390696D01*
X238395Y390694D01*
X238285Y390688D01*
X238174Y390679D01*
X238064Y390665D01*
X237955Y390648D01*
X237846Y390627D01*
X237738Y390602D01*
X237631Y390573D01*
X237525Y390541D01*
X237420Y390505D01*
X237317Y390465D01*
X237215Y390422D01*
X237114Y390375D01*
X237015Y390324D01*
X236919Y390271D01*
X236824Y390214D01*
X236731Y390153D01*
X236640Y390090D01*
X236551Y390023D01*
X236465Y389953D01*
X236382Y389880D01*
X236300Y389805D01*
X236222Y389727D01*
X236147Y389645D01*
X236074Y389562D01*
X236004Y389476D01*
X235937Y389387D01*
X235874Y389296D01*
X235813Y389203D01*
X235756Y389109D01*
X235703Y389012D01*
X235652Y388913D01*
X235605Y388812D01*
X235562Y388710D01*
X235522Y388607D01*
X235486Y388502D01*
X235454Y388396D01*
X235425Y388289D01*
X235400Y388181D01*
X235379Y388072D01*
X235362Y387963D01*
X235348Y387853D01*
X235339Y387742D01*
X235333Y387632D01*
X235331Y387521D01*
X230251Y388156D02*
X230251Y384346D01*
X230251Y388156D02*
X230253Y388256D01*
X230259Y388355D01*
X230269Y388455D01*
X230282Y388553D01*
X230300Y388652D01*
X230321Y388749D01*
X230346Y388845D01*
X230375Y388941D01*
X230408Y389035D01*
X230444Y389128D01*
X230484Y389219D01*
X230528Y389309D01*
X230575Y389397D01*
X230625Y389483D01*
X230679Y389567D01*
X230736Y389649D01*
X230796Y389728D01*
X230860Y389806D01*
X230926Y389880D01*
X230995Y389952D01*
X231067Y390021D01*
X231141Y390087D01*
X231219Y390151D01*
X231298Y390211D01*
X231380Y390268D01*
X231464Y390322D01*
X231550Y390372D01*
X231638Y390419D01*
X231728Y390463D01*
X231819Y390503D01*
X231912Y390539D01*
X232006Y390572D01*
X232102Y390601D01*
X232198Y390626D01*
X232295Y390647D01*
X232394Y390665D01*
X232492Y390678D01*
X232592Y390688D01*
X232691Y390694D01*
X232791Y390696D01*
X232891Y390694D01*
X232990Y390688D01*
X233090Y390678D01*
X233188Y390665D01*
X233287Y390647D01*
X233384Y390626D01*
X233480Y390601D01*
X233576Y390572D01*
X233670Y390539D01*
X233763Y390503D01*
X233854Y390463D01*
X233944Y390419D01*
X234032Y390372D01*
X234118Y390322D01*
X234202Y390268D01*
X234284Y390211D01*
X234363Y390151D01*
X234441Y390087D01*
X234515Y390021D01*
X234587Y389952D01*
X234656Y389880D01*
X234722Y389806D01*
X234786Y389728D01*
X234846Y389649D01*
X234903Y389567D01*
X234957Y389483D01*
X235007Y389397D01*
X235054Y389309D01*
X235098Y389219D01*
X235138Y389128D01*
X235174Y389035D01*
X235207Y388941D01*
X235236Y388845D01*
X235261Y388749D01*
X235282Y388652D01*
X235300Y388553D01*
X235313Y388455D01*
X235323Y388355D01*
X235329Y388256D01*
X235331Y388156D01*
X235331Y385616D01*
D13*
X215900Y392430D02*
X215900Y394970D01*
D11*
X228219Y396704D02*
X239649Y396704D01*
X228219Y396704D02*
X228219Y399879D01*
X228221Y399990D01*
X228227Y400100D01*
X228236Y400211D01*
X228250Y400321D01*
X228267Y400430D01*
X228288Y400539D01*
X228313Y400647D01*
X228342Y400754D01*
X228374Y400860D01*
X228410Y400965D01*
X228450Y401068D01*
X228493Y401170D01*
X228540Y401271D01*
X228591Y401370D01*
X228644Y401467D01*
X228701Y401561D01*
X228762Y401654D01*
X228825Y401745D01*
X228892Y401834D01*
X228962Y401920D01*
X229035Y402003D01*
X229110Y402085D01*
X229188Y402163D01*
X229270Y402238D01*
X229353Y402311D01*
X229439Y402381D01*
X229528Y402448D01*
X229619Y402511D01*
X229712Y402572D01*
X229807Y402629D01*
X229903Y402682D01*
X230002Y402733D01*
X230103Y402780D01*
X230205Y402823D01*
X230308Y402863D01*
X230413Y402899D01*
X230519Y402931D01*
X230626Y402960D01*
X230734Y402985D01*
X230843Y403006D01*
X230952Y403023D01*
X231062Y403037D01*
X231173Y403046D01*
X231283Y403052D01*
X231394Y403054D01*
X231505Y403052D01*
X231615Y403046D01*
X231726Y403037D01*
X231836Y403023D01*
X231945Y403006D01*
X232054Y402985D01*
X232162Y402960D01*
X232269Y402931D01*
X232375Y402899D01*
X232480Y402863D01*
X232583Y402823D01*
X232685Y402780D01*
X232786Y402733D01*
X232885Y402682D01*
X232982Y402629D01*
X233076Y402572D01*
X233169Y402511D01*
X233260Y402448D01*
X233349Y402381D01*
X233435Y402311D01*
X233518Y402238D01*
X233600Y402163D01*
X233678Y402085D01*
X233753Y402003D01*
X233826Y401920D01*
X233896Y401834D01*
X233963Y401745D01*
X234026Y401654D01*
X234087Y401561D01*
X234144Y401467D01*
X234197Y401370D01*
X234248Y401271D01*
X234295Y401170D01*
X234338Y401068D01*
X234378Y400965D01*
X234414Y400860D01*
X234446Y400754D01*
X234475Y400647D01*
X234500Y400539D01*
X234521Y400430D01*
X234538Y400321D01*
X234552Y400211D01*
X234561Y400100D01*
X234567Y399990D01*
X234569Y399879D01*
X234569Y396704D01*
X234569Y400514D02*
X239649Y403054D01*
X237109Y408051D02*
X228219Y410591D01*
X237109Y408051D02*
X237109Y414401D01*
X234569Y412496D02*
X239649Y412496D01*
D13*
X304800Y229870D02*
X304800Y227330D01*
D11*
X317119Y231604D02*
X328549Y231604D01*
X317119Y231604D02*
X317119Y234779D01*
X317121Y234890D01*
X317127Y235000D01*
X317136Y235111D01*
X317150Y235221D01*
X317167Y235330D01*
X317188Y235439D01*
X317213Y235547D01*
X317242Y235654D01*
X317274Y235760D01*
X317310Y235865D01*
X317350Y235968D01*
X317393Y236070D01*
X317440Y236171D01*
X317491Y236270D01*
X317544Y236367D01*
X317601Y236461D01*
X317662Y236554D01*
X317725Y236645D01*
X317792Y236734D01*
X317862Y236820D01*
X317935Y236903D01*
X318010Y236985D01*
X318088Y237063D01*
X318170Y237138D01*
X318253Y237211D01*
X318339Y237281D01*
X318428Y237348D01*
X318519Y237411D01*
X318612Y237472D01*
X318707Y237529D01*
X318803Y237582D01*
X318902Y237633D01*
X319003Y237680D01*
X319105Y237723D01*
X319208Y237763D01*
X319313Y237799D01*
X319419Y237831D01*
X319526Y237860D01*
X319634Y237885D01*
X319743Y237906D01*
X319852Y237923D01*
X319962Y237937D01*
X320073Y237946D01*
X320183Y237952D01*
X320294Y237954D01*
X320405Y237952D01*
X320515Y237946D01*
X320626Y237937D01*
X320736Y237923D01*
X320845Y237906D01*
X320954Y237885D01*
X321062Y237860D01*
X321169Y237831D01*
X321275Y237799D01*
X321380Y237763D01*
X321483Y237723D01*
X321585Y237680D01*
X321686Y237633D01*
X321785Y237582D01*
X321882Y237529D01*
X321976Y237472D01*
X322069Y237411D01*
X322160Y237348D01*
X322249Y237281D01*
X322335Y237211D01*
X322418Y237138D01*
X322500Y237063D01*
X322578Y236985D01*
X322653Y236903D01*
X322726Y236820D01*
X322796Y236734D01*
X322863Y236645D01*
X322926Y236554D01*
X322987Y236461D01*
X323044Y236367D01*
X323097Y236270D01*
X323148Y236171D01*
X323195Y236070D01*
X323238Y235968D01*
X323278Y235865D01*
X323314Y235760D01*
X323346Y235654D01*
X323375Y235547D01*
X323400Y235439D01*
X323421Y235330D01*
X323438Y235221D01*
X323452Y235111D01*
X323461Y235000D01*
X323467Y234890D01*
X323469Y234779D01*
X323469Y231604D01*
X323469Y235414D02*
X328549Y237954D01*
X328549Y242951D02*
X328549Y246761D01*
X328547Y246861D01*
X328541Y246960D01*
X328531Y247060D01*
X328518Y247158D01*
X328500Y247257D01*
X328479Y247354D01*
X328454Y247450D01*
X328425Y247546D01*
X328392Y247640D01*
X328356Y247733D01*
X328316Y247824D01*
X328272Y247914D01*
X328225Y248002D01*
X328175Y248088D01*
X328121Y248172D01*
X328064Y248254D01*
X328004Y248333D01*
X327940Y248411D01*
X327874Y248485D01*
X327805Y248557D01*
X327733Y248626D01*
X327659Y248692D01*
X327581Y248756D01*
X327502Y248816D01*
X327420Y248873D01*
X327336Y248927D01*
X327250Y248977D01*
X327162Y249024D01*
X327072Y249068D01*
X326981Y249108D01*
X326888Y249144D01*
X326794Y249177D01*
X326698Y249206D01*
X326602Y249231D01*
X326505Y249252D01*
X326406Y249270D01*
X326308Y249283D01*
X326208Y249293D01*
X326109Y249299D01*
X326009Y249301D01*
X324739Y249301D01*
X324639Y249299D01*
X324540Y249293D01*
X324440Y249283D01*
X324342Y249270D01*
X324243Y249252D01*
X324146Y249231D01*
X324050Y249206D01*
X323954Y249177D01*
X323860Y249144D01*
X323767Y249108D01*
X323676Y249068D01*
X323586Y249024D01*
X323498Y248977D01*
X323412Y248927D01*
X323328Y248873D01*
X323246Y248816D01*
X323167Y248756D01*
X323089Y248692D01*
X323015Y248626D01*
X322943Y248557D01*
X322874Y248485D01*
X322808Y248411D01*
X322744Y248333D01*
X322684Y248254D01*
X322627Y248172D01*
X322573Y248088D01*
X322523Y248002D01*
X322476Y247914D01*
X322432Y247824D01*
X322392Y247733D01*
X322356Y247640D01*
X322323Y247546D01*
X322294Y247450D01*
X322269Y247354D01*
X322248Y247257D01*
X322230Y247158D01*
X322217Y247060D01*
X322207Y246960D01*
X322201Y246861D01*
X322199Y246761D01*
X322199Y242951D01*
X317119Y242951D01*
X317119Y249301D01*
D13*
X330200Y229870D02*
X330200Y227330D01*
D11*
X317881Y207899D02*
X306451Y207899D01*
X306451Y211074D01*
X306453Y211185D01*
X306459Y211295D01*
X306468Y211406D01*
X306482Y211516D01*
X306499Y211625D01*
X306520Y211734D01*
X306545Y211842D01*
X306574Y211949D01*
X306606Y212055D01*
X306642Y212160D01*
X306682Y212263D01*
X306725Y212365D01*
X306772Y212466D01*
X306823Y212565D01*
X306876Y212662D01*
X306933Y212756D01*
X306994Y212849D01*
X307057Y212940D01*
X307124Y213029D01*
X307194Y213115D01*
X307267Y213198D01*
X307342Y213280D01*
X307420Y213358D01*
X307502Y213433D01*
X307585Y213506D01*
X307671Y213576D01*
X307760Y213643D01*
X307851Y213706D01*
X307944Y213767D01*
X308039Y213824D01*
X308135Y213877D01*
X308234Y213928D01*
X308335Y213975D01*
X308437Y214018D01*
X308540Y214058D01*
X308645Y214094D01*
X308751Y214126D01*
X308858Y214155D01*
X308966Y214180D01*
X309075Y214201D01*
X309184Y214218D01*
X309294Y214232D01*
X309405Y214241D01*
X309515Y214247D01*
X309626Y214249D01*
X309737Y214247D01*
X309847Y214241D01*
X309958Y214232D01*
X310068Y214218D01*
X310177Y214201D01*
X310286Y214180D01*
X310394Y214155D01*
X310501Y214126D01*
X310607Y214094D01*
X310712Y214058D01*
X310815Y214018D01*
X310917Y213975D01*
X311018Y213928D01*
X311117Y213877D01*
X311214Y213824D01*
X311308Y213767D01*
X311401Y213706D01*
X311492Y213643D01*
X311581Y213576D01*
X311667Y213506D01*
X311750Y213433D01*
X311832Y213358D01*
X311910Y213280D01*
X311985Y213198D01*
X312058Y213115D01*
X312128Y213029D01*
X312195Y212940D01*
X312258Y212849D01*
X312319Y212756D01*
X312376Y212662D01*
X312429Y212565D01*
X312480Y212466D01*
X312527Y212365D01*
X312570Y212263D01*
X312610Y212160D01*
X312646Y212055D01*
X312678Y211949D01*
X312707Y211842D01*
X312732Y211734D01*
X312753Y211625D01*
X312770Y211516D01*
X312784Y211406D01*
X312793Y211295D01*
X312799Y211185D01*
X312801Y211074D01*
X312801Y207899D01*
X312801Y211709D02*
X317881Y214249D01*
X311531Y219246D02*
X311531Y223056D01*
X311533Y223156D01*
X311539Y223255D01*
X311549Y223355D01*
X311562Y223453D01*
X311580Y223552D01*
X311601Y223649D01*
X311626Y223745D01*
X311655Y223841D01*
X311688Y223935D01*
X311724Y224028D01*
X311764Y224119D01*
X311808Y224209D01*
X311855Y224297D01*
X311905Y224383D01*
X311959Y224467D01*
X312016Y224549D01*
X312076Y224628D01*
X312140Y224706D01*
X312206Y224780D01*
X312275Y224852D01*
X312347Y224921D01*
X312421Y224987D01*
X312499Y225051D01*
X312578Y225111D01*
X312660Y225168D01*
X312744Y225222D01*
X312830Y225272D01*
X312918Y225319D01*
X313008Y225363D01*
X313099Y225403D01*
X313192Y225439D01*
X313286Y225472D01*
X313382Y225501D01*
X313478Y225526D01*
X313575Y225547D01*
X313674Y225565D01*
X313772Y225578D01*
X313872Y225588D01*
X313971Y225594D01*
X314071Y225596D01*
X314706Y225596D01*
X314817Y225594D01*
X314927Y225588D01*
X315038Y225579D01*
X315148Y225565D01*
X315257Y225548D01*
X315366Y225527D01*
X315474Y225502D01*
X315581Y225473D01*
X315687Y225441D01*
X315792Y225405D01*
X315895Y225365D01*
X315997Y225322D01*
X316098Y225275D01*
X316197Y225224D01*
X316294Y225171D01*
X316388Y225114D01*
X316481Y225053D01*
X316572Y224990D01*
X316661Y224923D01*
X316747Y224853D01*
X316830Y224780D01*
X316912Y224705D01*
X316990Y224627D01*
X317065Y224545D01*
X317138Y224462D01*
X317208Y224376D01*
X317275Y224287D01*
X317338Y224196D01*
X317399Y224103D01*
X317456Y224008D01*
X317509Y223912D01*
X317560Y223813D01*
X317607Y223712D01*
X317650Y223610D01*
X317690Y223507D01*
X317726Y223402D01*
X317758Y223296D01*
X317787Y223189D01*
X317812Y223081D01*
X317833Y222972D01*
X317850Y222863D01*
X317864Y222753D01*
X317873Y222642D01*
X317879Y222532D01*
X317881Y222421D01*
X317879Y222310D01*
X317873Y222200D01*
X317864Y222089D01*
X317850Y221979D01*
X317833Y221870D01*
X317812Y221761D01*
X317787Y221653D01*
X317758Y221546D01*
X317726Y221440D01*
X317690Y221335D01*
X317650Y221232D01*
X317607Y221130D01*
X317560Y221029D01*
X317509Y220930D01*
X317456Y220833D01*
X317399Y220739D01*
X317338Y220646D01*
X317275Y220555D01*
X317208Y220466D01*
X317138Y220380D01*
X317065Y220297D01*
X316990Y220215D01*
X316912Y220137D01*
X316830Y220062D01*
X316747Y219989D01*
X316661Y219919D01*
X316572Y219852D01*
X316481Y219789D01*
X316388Y219728D01*
X316294Y219671D01*
X316197Y219618D01*
X316098Y219567D01*
X315997Y219520D01*
X315895Y219477D01*
X315792Y219437D01*
X315687Y219401D01*
X315581Y219369D01*
X315474Y219340D01*
X315366Y219315D01*
X315257Y219294D01*
X315148Y219277D01*
X315038Y219263D01*
X314927Y219254D01*
X314817Y219248D01*
X314706Y219246D01*
X311531Y219246D01*
X311391Y219248D01*
X311251Y219254D01*
X311111Y219263D01*
X310972Y219277D01*
X310833Y219294D01*
X310695Y219315D01*
X310557Y219340D01*
X310420Y219369D01*
X310284Y219401D01*
X310149Y219438D01*
X310015Y219478D01*
X309882Y219521D01*
X309750Y219569D01*
X309619Y219619D01*
X309490Y219674D01*
X309363Y219732D01*
X309237Y219793D01*
X309113Y219858D01*
X308991Y219927D01*
X308871Y219998D01*
X308753Y220073D01*
X308636Y220151D01*
X308522Y220233D01*
X308411Y220317D01*
X308302Y220405D01*
X308195Y220495D01*
X308090Y220589D01*
X307989Y220685D01*
X307890Y220784D01*
X307794Y220885D01*
X307700Y220990D01*
X307610Y221097D01*
X307522Y221206D01*
X307438Y221317D01*
X307356Y221431D01*
X307278Y221548D01*
X307203Y221666D01*
X307132Y221786D01*
X307063Y221908D01*
X306998Y222032D01*
X306937Y222158D01*
X306879Y222285D01*
X306824Y222414D01*
X306774Y222545D01*
X306726Y222677D01*
X306683Y222810D01*
X306643Y222944D01*
X306606Y223079D01*
X306574Y223215D01*
X306545Y223352D01*
X306520Y223490D01*
X306499Y223628D01*
X306482Y223767D01*
X306468Y223906D01*
X306459Y224046D01*
X306453Y224186D01*
X306451Y224326D01*
D13*
X304800Y392430D02*
X304800Y394970D01*
D11*
X292481Y372999D02*
X281051Y372999D01*
X281051Y376174D01*
X281053Y376285D01*
X281059Y376395D01*
X281068Y376506D01*
X281082Y376616D01*
X281099Y376725D01*
X281120Y376834D01*
X281145Y376942D01*
X281174Y377049D01*
X281206Y377155D01*
X281242Y377260D01*
X281282Y377363D01*
X281325Y377465D01*
X281372Y377566D01*
X281423Y377665D01*
X281476Y377762D01*
X281533Y377856D01*
X281594Y377949D01*
X281657Y378040D01*
X281724Y378129D01*
X281794Y378215D01*
X281867Y378298D01*
X281942Y378380D01*
X282020Y378458D01*
X282102Y378533D01*
X282185Y378606D01*
X282271Y378676D01*
X282360Y378743D01*
X282451Y378806D01*
X282544Y378867D01*
X282639Y378924D01*
X282735Y378977D01*
X282834Y379028D01*
X282935Y379075D01*
X283037Y379118D01*
X283140Y379158D01*
X283245Y379194D01*
X283351Y379226D01*
X283458Y379255D01*
X283566Y379280D01*
X283675Y379301D01*
X283784Y379318D01*
X283894Y379332D01*
X284005Y379341D01*
X284115Y379347D01*
X284226Y379349D01*
X284337Y379347D01*
X284447Y379341D01*
X284558Y379332D01*
X284668Y379318D01*
X284777Y379301D01*
X284886Y379280D01*
X284994Y379255D01*
X285101Y379226D01*
X285207Y379194D01*
X285312Y379158D01*
X285415Y379118D01*
X285517Y379075D01*
X285618Y379028D01*
X285717Y378977D01*
X285814Y378924D01*
X285908Y378867D01*
X286001Y378806D01*
X286092Y378743D01*
X286181Y378676D01*
X286267Y378606D01*
X286350Y378533D01*
X286432Y378458D01*
X286510Y378380D01*
X286585Y378298D01*
X286658Y378215D01*
X286728Y378129D01*
X286795Y378040D01*
X286858Y377949D01*
X286919Y377856D01*
X286976Y377762D01*
X287029Y377665D01*
X287080Y377566D01*
X287127Y377465D01*
X287170Y377363D01*
X287210Y377260D01*
X287246Y377155D01*
X287278Y377049D01*
X287307Y376942D01*
X287332Y376834D01*
X287353Y376725D01*
X287370Y376616D01*
X287384Y376506D01*
X287393Y376395D01*
X287399Y376285D01*
X287401Y376174D01*
X287401Y372999D01*
X287401Y376809D02*
X292481Y379349D01*
X282321Y384346D02*
X281051Y384346D01*
X281051Y390696D01*
X292481Y387521D01*
D13*
X342900Y392430D02*
X342900Y394970D01*
D11*
X330581Y372999D02*
X319151Y372999D01*
X319151Y376174D01*
X319153Y376285D01*
X319159Y376395D01*
X319168Y376506D01*
X319182Y376616D01*
X319199Y376725D01*
X319220Y376834D01*
X319245Y376942D01*
X319274Y377049D01*
X319306Y377155D01*
X319342Y377260D01*
X319382Y377363D01*
X319425Y377465D01*
X319472Y377566D01*
X319523Y377665D01*
X319576Y377762D01*
X319633Y377856D01*
X319694Y377949D01*
X319757Y378040D01*
X319824Y378129D01*
X319894Y378215D01*
X319967Y378298D01*
X320042Y378380D01*
X320120Y378458D01*
X320202Y378533D01*
X320285Y378606D01*
X320371Y378676D01*
X320460Y378743D01*
X320551Y378806D01*
X320644Y378867D01*
X320739Y378924D01*
X320835Y378977D01*
X320934Y379028D01*
X321035Y379075D01*
X321137Y379118D01*
X321240Y379158D01*
X321345Y379194D01*
X321451Y379226D01*
X321558Y379255D01*
X321666Y379280D01*
X321775Y379301D01*
X321884Y379318D01*
X321994Y379332D01*
X322105Y379341D01*
X322215Y379347D01*
X322326Y379349D01*
X322437Y379347D01*
X322547Y379341D01*
X322658Y379332D01*
X322768Y379318D01*
X322877Y379301D01*
X322986Y379280D01*
X323094Y379255D01*
X323201Y379226D01*
X323307Y379194D01*
X323412Y379158D01*
X323515Y379118D01*
X323617Y379075D01*
X323718Y379028D01*
X323817Y378977D01*
X323914Y378924D01*
X324008Y378867D01*
X324101Y378806D01*
X324192Y378743D01*
X324281Y378676D01*
X324367Y378606D01*
X324450Y378533D01*
X324532Y378458D01*
X324610Y378380D01*
X324685Y378298D01*
X324758Y378215D01*
X324828Y378129D01*
X324895Y378040D01*
X324958Y377949D01*
X325019Y377856D01*
X325076Y377762D01*
X325129Y377665D01*
X325180Y377566D01*
X325227Y377465D01*
X325270Y377363D01*
X325310Y377260D01*
X325346Y377155D01*
X325378Y377049D01*
X325407Y376942D01*
X325432Y376834D01*
X325453Y376725D01*
X325470Y376616D01*
X325484Y376506D01*
X325493Y376395D01*
X325499Y376285D01*
X325501Y376174D01*
X325501Y372999D01*
X325501Y376809D02*
X330581Y379349D01*
X327406Y384346D02*
X327295Y384348D01*
X327185Y384354D01*
X327074Y384363D01*
X326964Y384377D01*
X326855Y384394D01*
X326746Y384415D01*
X326638Y384440D01*
X326531Y384469D01*
X326425Y384501D01*
X326320Y384537D01*
X326217Y384577D01*
X326115Y384620D01*
X326014Y384667D01*
X325915Y384718D01*
X325819Y384771D01*
X325724Y384828D01*
X325631Y384889D01*
X325540Y384952D01*
X325451Y385019D01*
X325365Y385089D01*
X325282Y385162D01*
X325200Y385237D01*
X325122Y385315D01*
X325047Y385397D01*
X324974Y385480D01*
X324904Y385566D01*
X324837Y385655D01*
X324774Y385746D01*
X324713Y385839D01*
X324656Y385934D01*
X324603Y386030D01*
X324552Y386129D01*
X324505Y386230D01*
X324462Y386332D01*
X324422Y386435D01*
X324386Y386540D01*
X324354Y386646D01*
X324325Y386753D01*
X324300Y386861D01*
X324279Y386970D01*
X324262Y387079D01*
X324248Y387189D01*
X324239Y387300D01*
X324233Y387410D01*
X324231Y387521D01*
X324233Y387632D01*
X324239Y387742D01*
X324248Y387853D01*
X324262Y387963D01*
X324279Y388072D01*
X324300Y388181D01*
X324325Y388289D01*
X324354Y388396D01*
X324386Y388502D01*
X324422Y388607D01*
X324462Y388710D01*
X324505Y388812D01*
X324552Y388913D01*
X324603Y389012D01*
X324656Y389109D01*
X324713Y389203D01*
X324774Y389296D01*
X324837Y389387D01*
X324904Y389476D01*
X324974Y389562D01*
X325047Y389645D01*
X325122Y389727D01*
X325200Y389805D01*
X325282Y389880D01*
X325365Y389953D01*
X325451Y390023D01*
X325540Y390090D01*
X325631Y390153D01*
X325724Y390214D01*
X325819Y390271D01*
X325915Y390324D01*
X326014Y390375D01*
X326115Y390422D01*
X326217Y390465D01*
X326320Y390505D01*
X326425Y390541D01*
X326531Y390573D01*
X326638Y390602D01*
X326746Y390627D01*
X326855Y390648D01*
X326964Y390665D01*
X327074Y390679D01*
X327185Y390688D01*
X327295Y390694D01*
X327406Y390696D01*
X327517Y390694D01*
X327627Y390688D01*
X327738Y390679D01*
X327848Y390665D01*
X327957Y390648D01*
X328066Y390627D01*
X328174Y390602D01*
X328281Y390573D01*
X328387Y390541D01*
X328492Y390505D01*
X328595Y390465D01*
X328697Y390422D01*
X328798Y390375D01*
X328897Y390324D01*
X328994Y390271D01*
X329088Y390214D01*
X329181Y390153D01*
X329272Y390090D01*
X329361Y390023D01*
X329447Y389953D01*
X329530Y389880D01*
X329612Y389805D01*
X329690Y389727D01*
X329765Y389645D01*
X329838Y389562D01*
X329908Y389476D01*
X329975Y389387D01*
X330038Y389296D01*
X330099Y389203D01*
X330156Y389108D01*
X330209Y389012D01*
X330260Y388913D01*
X330307Y388812D01*
X330350Y388710D01*
X330390Y388607D01*
X330426Y388502D01*
X330458Y388396D01*
X330487Y388289D01*
X330512Y388181D01*
X330533Y388072D01*
X330550Y387963D01*
X330564Y387853D01*
X330573Y387742D01*
X330579Y387632D01*
X330581Y387521D01*
X330579Y387410D01*
X330573Y387300D01*
X330564Y387189D01*
X330550Y387079D01*
X330533Y386970D01*
X330512Y386861D01*
X330487Y386753D01*
X330458Y386646D01*
X330426Y386540D01*
X330390Y386435D01*
X330350Y386332D01*
X330307Y386230D01*
X330260Y386129D01*
X330209Y386030D01*
X330156Y385933D01*
X330099Y385839D01*
X330038Y385746D01*
X329975Y385655D01*
X329908Y385566D01*
X329838Y385480D01*
X329765Y385397D01*
X329690Y385315D01*
X329612Y385237D01*
X329530Y385162D01*
X329447Y385089D01*
X329361Y385019D01*
X329272Y384952D01*
X329181Y384889D01*
X329088Y384828D01*
X328994Y384771D01*
X328897Y384718D01*
X328798Y384667D01*
X328697Y384620D01*
X328595Y384577D01*
X328492Y384537D01*
X328387Y384501D01*
X328281Y384469D01*
X328174Y384440D01*
X328066Y384415D01*
X327957Y384394D01*
X327848Y384377D01*
X327738Y384363D01*
X327627Y384354D01*
X327517Y384348D01*
X327406Y384346D01*
X321691Y384981D02*
X321591Y384983D01*
X321492Y384989D01*
X321392Y384999D01*
X321294Y385012D01*
X321195Y385030D01*
X321098Y385051D01*
X321002Y385076D01*
X320906Y385105D01*
X320812Y385138D01*
X320719Y385174D01*
X320628Y385214D01*
X320538Y385258D01*
X320450Y385305D01*
X320364Y385355D01*
X320280Y385409D01*
X320198Y385466D01*
X320119Y385526D01*
X320041Y385590D01*
X319967Y385656D01*
X319895Y385725D01*
X319826Y385797D01*
X319760Y385871D01*
X319696Y385949D01*
X319636Y386028D01*
X319579Y386110D01*
X319525Y386194D01*
X319475Y386280D01*
X319428Y386368D01*
X319384Y386458D01*
X319344Y386549D01*
X319308Y386642D01*
X319275Y386736D01*
X319246Y386832D01*
X319221Y386928D01*
X319200Y387025D01*
X319182Y387124D01*
X319169Y387222D01*
X319159Y387322D01*
X319153Y387421D01*
X319151Y387521D01*
X319153Y387621D01*
X319159Y387720D01*
X319169Y387820D01*
X319182Y387918D01*
X319200Y388017D01*
X319221Y388114D01*
X319246Y388210D01*
X319275Y388306D01*
X319308Y388400D01*
X319344Y388493D01*
X319384Y388584D01*
X319428Y388674D01*
X319475Y388762D01*
X319525Y388848D01*
X319579Y388932D01*
X319636Y389014D01*
X319696Y389093D01*
X319760Y389171D01*
X319826Y389245D01*
X319895Y389317D01*
X319967Y389386D01*
X320041Y389452D01*
X320119Y389516D01*
X320198Y389576D01*
X320280Y389633D01*
X320364Y389687D01*
X320450Y389737D01*
X320538Y389784D01*
X320628Y389828D01*
X320719Y389868D01*
X320812Y389904D01*
X320906Y389937D01*
X321002Y389966D01*
X321098Y389991D01*
X321195Y390012D01*
X321294Y390030D01*
X321392Y390043D01*
X321492Y390053D01*
X321591Y390059D01*
X321691Y390061D01*
X321791Y390059D01*
X321890Y390053D01*
X321990Y390043D01*
X322088Y390030D01*
X322187Y390012D01*
X322284Y389991D01*
X322380Y389966D01*
X322476Y389937D01*
X322570Y389904D01*
X322663Y389868D01*
X322754Y389828D01*
X322844Y389784D01*
X322932Y389737D01*
X323018Y389687D01*
X323102Y389633D01*
X323184Y389576D01*
X323263Y389516D01*
X323341Y389452D01*
X323415Y389386D01*
X323487Y389317D01*
X323556Y389245D01*
X323622Y389171D01*
X323686Y389093D01*
X323746Y389014D01*
X323803Y388932D01*
X323857Y388848D01*
X323907Y388762D01*
X323954Y388674D01*
X323998Y388584D01*
X324038Y388493D01*
X324074Y388400D01*
X324107Y388306D01*
X324136Y388210D01*
X324161Y388114D01*
X324182Y388017D01*
X324200Y387918D01*
X324213Y387820D01*
X324223Y387720D01*
X324229Y387621D01*
X324231Y387521D01*
X324229Y387421D01*
X324223Y387322D01*
X324213Y387222D01*
X324200Y387124D01*
X324182Y387025D01*
X324161Y386928D01*
X324136Y386832D01*
X324107Y386736D01*
X324074Y386642D01*
X324038Y386549D01*
X323998Y386458D01*
X323954Y386368D01*
X323907Y386280D01*
X323857Y386194D01*
X323803Y386110D01*
X323746Y386028D01*
X323686Y385949D01*
X323622Y385871D01*
X323556Y385797D01*
X323487Y385725D01*
X323415Y385656D01*
X323341Y385590D01*
X323263Y385526D01*
X323184Y385466D01*
X323102Y385409D01*
X323018Y385355D01*
X322932Y385305D01*
X322844Y385258D01*
X322754Y385214D01*
X322663Y385174D01*
X322570Y385138D01*
X322476Y385105D01*
X322380Y385076D01*
X322284Y385051D01*
X322187Y385030D01*
X322088Y385012D01*
X321990Y384999D01*
X321890Y384989D01*
X321791Y384983D01*
X321691Y384981D01*
D14*
X381000Y336550D02*
X482600Y336550D01*
X482600Y317500D01*
X482600Y273050D01*
X381000Y273050D01*
X381000Y317500D01*
X381000Y336550D01*
X381000Y317500D02*
X482600Y317500D01*
D12*
X387604Y352552D02*
X381508Y343408D01*
X387604Y343408D02*
X381508Y352552D01*
X391160Y350520D02*
X393700Y352552D01*
X393700Y343408D01*
X391160Y343408D02*
X396240Y343408D01*
D14*
X177800Y273050D02*
X76200Y273050D01*
X76200Y292100D01*
X76200Y336550D01*
X177800Y336550D01*
X177800Y292100D01*
X177800Y273050D01*
X177800Y292100D02*
X76200Y292100D01*
D12*
X162560Y257048D02*
X168656Y266192D01*
X162560Y266192D02*
X168656Y257048D01*
X177292Y263906D02*
X177290Y264000D01*
X177284Y264095D01*
X177274Y264189D01*
X177261Y264282D01*
X177243Y264375D01*
X177222Y264467D01*
X177197Y264558D01*
X177168Y264648D01*
X177136Y264737D01*
X177099Y264824D01*
X177060Y264910D01*
X177016Y264994D01*
X176970Y265076D01*
X176920Y265156D01*
X176866Y265234D01*
X176810Y265310D01*
X176750Y265383D01*
X176688Y265454D01*
X176622Y265522D01*
X176554Y265588D01*
X176483Y265650D01*
X176410Y265710D01*
X176334Y265766D01*
X176256Y265820D01*
X176176Y265870D01*
X176094Y265916D01*
X176010Y265960D01*
X175924Y265999D01*
X175837Y266036D01*
X175748Y266068D01*
X175658Y266097D01*
X175567Y266122D01*
X175475Y266143D01*
X175382Y266161D01*
X175289Y266174D01*
X175195Y266184D01*
X175100Y266190D01*
X175006Y266192D01*
X174900Y266190D01*
X174795Y266184D01*
X174690Y266175D01*
X174585Y266162D01*
X174481Y266145D01*
X174378Y266124D01*
X174275Y266100D01*
X174173Y266071D01*
X174073Y266040D01*
X173973Y266004D01*
X173875Y265966D01*
X173779Y265923D01*
X173683Y265877D01*
X173590Y265828D01*
X173499Y265776D01*
X173409Y265720D01*
X173321Y265661D01*
X173236Y265599D01*
X173153Y265534D01*
X173072Y265466D01*
X172994Y265395D01*
X172919Y265321D01*
X172846Y265245D01*
X172776Y265166D01*
X172709Y265085D01*
X172644Y265001D01*
X172583Y264915D01*
X172525Y264827D01*
X172470Y264737D01*
X172419Y264645D01*
X172370Y264551D01*
X172325Y264455D01*
X172284Y264358D01*
X172246Y264260D01*
X172212Y264160D01*
X176530Y262128D02*
X176597Y262195D01*
X176662Y262264D01*
X176724Y262336D01*
X176783Y262409D01*
X176839Y262486D01*
X176893Y262564D01*
X176943Y262644D01*
X176990Y262726D01*
X177034Y262810D01*
X177074Y262896D01*
X177112Y262983D01*
X177146Y263071D01*
X177176Y263161D01*
X177203Y263251D01*
X177227Y263343D01*
X177247Y263436D01*
X177263Y263529D01*
X177276Y263623D01*
X177285Y263717D01*
X177290Y263811D01*
X177292Y263906D01*
X176530Y262128D02*
X172212Y257048D01*
X177292Y257048D01*
D14*
X241300Y501650D02*
X292100Y501650D01*
X292100Y482600D01*
X292100Y438150D01*
X241300Y438150D01*
X241300Y482600D01*
X241300Y501650D01*
X241300Y482600D02*
X292100Y482600D01*
D12*
X247904Y517652D02*
X241808Y508508D01*
X247904Y508508D02*
X241808Y517652D01*
X251460Y508508D02*
X254000Y508508D01*
X254100Y508510D01*
X254199Y508516D01*
X254299Y508526D01*
X254397Y508539D01*
X254496Y508557D01*
X254593Y508578D01*
X254689Y508603D01*
X254785Y508632D01*
X254879Y508665D01*
X254972Y508701D01*
X255063Y508741D01*
X255153Y508785D01*
X255241Y508832D01*
X255327Y508882D01*
X255411Y508936D01*
X255493Y508993D01*
X255572Y509053D01*
X255650Y509117D01*
X255724Y509183D01*
X255796Y509252D01*
X255865Y509324D01*
X255931Y509398D01*
X255995Y509476D01*
X256055Y509555D01*
X256112Y509637D01*
X256166Y509721D01*
X256216Y509807D01*
X256263Y509895D01*
X256307Y509985D01*
X256347Y510076D01*
X256383Y510169D01*
X256416Y510263D01*
X256445Y510359D01*
X256470Y510455D01*
X256491Y510552D01*
X256509Y510651D01*
X256522Y510749D01*
X256532Y510849D01*
X256538Y510948D01*
X256540Y511048D01*
X256538Y511148D01*
X256532Y511247D01*
X256522Y511347D01*
X256509Y511445D01*
X256491Y511544D01*
X256470Y511641D01*
X256445Y511737D01*
X256416Y511833D01*
X256383Y511927D01*
X256347Y512020D01*
X256307Y512111D01*
X256263Y512201D01*
X256216Y512289D01*
X256166Y512375D01*
X256112Y512459D01*
X256055Y512541D01*
X255995Y512620D01*
X255931Y512698D01*
X255865Y512772D01*
X255796Y512844D01*
X255724Y512913D01*
X255650Y512979D01*
X255572Y513043D01*
X255493Y513103D01*
X255411Y513160D01*
X255327Y513214D01*
X255241Y513264D01*
X255153Y513311D01*
X255063Y513355D01*
X254972Y513395D01*
X254879Y513431D01*
X254785Y513464D01*
X254689Y513493D01*
X254593Y513518D01*
X254496Y513539D01*
X254397Y513557D01*
X254299Y513570D01*
X254199Y513580D01*
X254100Y513586D01*
X254000Y513588D01*
X254508Y517652D02*
X251460Y517652D01*
X254508Y517652D02*
X254597Y517650D01*
X254685Y517644D01*
X254773Y517635D01*
X254861Y517621D01*
X254948Y517604D01*
X255034Y517583D01*
X255119Y517558D01*
X255203Y517529D01*
X255286Y517497D01*
X255367Y517462D01*
X255446Y517422D01*
X255524Y517380D01*
X255600Y517334D01*
X255674Y517285D01*
X255745Y517232D01*
X255814Y517177D01*
X255881Y517118D01*
X255945Y517057D01*
X256006Y516993D01*
X256065Y516926D01*
X256120Y516857D01*
X256173Y516786D01*
X256222Y516712D01*
X256268Y516636D01*
X256310Y516558D01*
X256350Y516479D01*
X256385Y516398D01*
X256417Y516315D01*
X256446Y516231D01*
X256471Y516146D01*
X256492Y516060D01*
X256509Y515973D01*
X256523Y515885D01*
X256532Y515797D01*
X256538Y515709D01*
X256540Y515620D01*
X256538Y515531D01*
X256532Y515443D01*
X256523Y515355D01*
X256509Y515267D01*
X256492Y515180D01*
X256471Y515094D01*
X256446Y515009D01*
X256417Y514925D01*
X256385Y514842D01*
X256350Y514761D01*
X256310Y514682D01*
X256268Y514604D01*
X256222Y514528D01*
X256173Y514454D01*
X256120Y514383D01*
X256065Y514314D01*
X256006Y514247D01*
X255945Y514183D01*
X255881Y514122D01*
X255814Y514063D01*
X255745Y514008D01*
X255674Y513955D01*
X255600Y513906D01*
X255524Y513860D01*
X255446Y513818D01*
X255367Y513778D01*
X255286Y513743D01*
X255203Y513711D01*
X255119Y513682D01*
X255034Y513657D01*
X254948Y513636D01*
X254861Y513619D01*
X254773Y513605D01*
X254685Y513596D01*
X254597Y513590D01*
X254508Y513588D01*
X252476Y513588D01*
D14*
X254000Y171450D02*
X304800Y171450D01*
X304800Y152400D01*
X304800Y107950D01*
X254000Y107950D01*
X254000Y152400D01*
X254000Y171450D01*
X254000Y152400D02*
X304800Y152400D01*
D12*
X260604Y187452D02*
X254508Y178308D01*
X260604Y178308D02*
X254508Y187452D01*
X266192Y187452D02*
X264160Y180340D01*
X269240Y180340D01*
X267716Y182372D02*
X267716Y178308D01*
D13*
X153670Y203200D02*
X151130Y203200D01*
D11*
X131699Y215519D02*
X131699Y226949D01*
X134874Y226949D01*
X134985Y226947D01*
X135095Y226941D01*
X135206Y226932D01*
X135316Y226918D01*
X135425Y226901D01*
X135534Y226880D01*
X135642Y226855D01*
X135749Y226826D01*
X135855Y226794D01*
X135960Y226758D01*
X136063Y226718D01*
X136165Y226675D01*
X136266Y226628D01*
X136365Y226577D01*
X136462Y226524D01*
X136556Y226467D01*
X136649Y226406D01*
X136740Y226343D01*
X136829Y226276D01*
X136915Y226206D01*
X136998Y226133D01*
X137080Y226058D01*
X137158Y225980D01*
X137233Y225898D01*
X137306Y225815D01*
X137376Y225729D01*
X137443Y225640D01*
X137506Y225549D01*
X137567Y225456D01*
X137624Y225361D01*
X137677Y225265D01*
X137728Y225166D01*
X137775Y225065D01*
X137818Y224963D01*
X137858Y224860D01*
X137894Y224755D01*
X137926Y224649D01*
X137955Y224542D01*
X137980Y224434D01*
X138001Y224325D01*
X138018Y224216D01*
X138032Y224106D01*
X138041Y223995D01*
X138047Y223885D01*
X138049Y223774D01*
X138047Y223663D01*
X138041Y223553D01*
X138032Y223442D01*
X138018Y223332D01*
X138001Y223223D01*
X137980Y223114D01*
X137955Y223006D01*
X137926Y222899D01*
X137894Y222793D01*
X137858Y222688D01*
X137818Y222585D01*
X137775Y222483D01*
X137728Y222382D01*
X137677Y222283D01*
X137624Y222186D01*
X137567Y222092D01*
X137506Y221999D01*
X137443Y221908D01*
X137376Y221819D01*
X137306Y221733D01*
X137233Y221650D01*
X137158Y221568D01*
X137080Y221490D01*
X136998Y221415D01*
X136915Y221342D01*
X136829Y221272D01*
X136740Y221205D01*
X136649Y221142D01*
X136556Y221081D01*
X136461Y221024D01*
X136365Y220971D01*
X136266Y220920D01*
X136165Y220873D01*
X136063Y220830D01*
X135960Y220790D01*
X135855Y220754D01*
X135749Y220722D01*
X135642Y220693D01*
X135534Y220668D01*
X135425Y220647D01*
X135316Y220630D01*
X135206Y220616D01*
X135095Y220607D01*
X134985Y220601D01*
X134874Y220599D01*
X131699Y220599D01*
X135509Y220599D02*
X138049Y215519D01*
X145586Y220599D02*
X149396Y220599D01*
X145586Y220599D02*
X145486Y220601D01*
X145387Y220607D01*
X145287Y220617D01*
X145189Y220630D01*
X145090Y220648D01*
X144993Y220669D01*
X144897Y220694D01*
X144801Y220723D01*
X144707Y220756D01*
X144614Y220792D01*
X144523Y220832D01*
X144433Y220876D01*
X144345Y220923D01*
X144259Y220973D01*
X144175Y221027D01*
X144093Y221084D01*
X144014Y221144D01*
X143936Y221208D01*
X143862Y221274D01*
X143790Y221343D01*
X143721Y221415D01*
X143655Y221489D01*
X143591Y221567D01*
X143531Y221646D01*
X143474Y221728D01*
X143420Y221812D01*
X143370Y221898D01*
X143323Y221986D01*
X143279Y222076D01*
X143239Y222167D01*
X143203Y222260D01*
X143170Y222354D01*
X143141Y222450D01*
X143116Y222546D01*
X143095Y222643D01*
X143077Y222742D01*
X143064Y222840D01*
X143054Y222940D01*
X143048Y223039D01*
X143046Y223139D01*
X143046Y223774D01*
X143048Y223885D01*
X143054Y223995D01*
X143063Y224106D01*
X143077Y224216D01*
X143094Y224325D01*
X143115Y224434D01*
X143140Y224542D01*
X143169Y224649D01*
X143201Y224755D01*
X143237Y224860D01*
X143277Y224963D01*
X143320Y225065D01*
X143367Y225166D01*
X143418Y225265D01*
X143471Y225362D01*
X143528Y225456D01*
X143589Y225549D01*
X143652Y225640D01*
X143719Y225729D01*
X143789Y225815D01*
X143862Y225898D01*
X143937Y225980D01*
X144015Y226058D01*
X144097Y226133D01*
X144180Y226206D01*
X144266Y226276D01*
X144355Y226343D01*
X144446Y226406D01*
X144539Y226467D01*
X144634Y226524D01*
X144730Y226577D01*
X144829Y226628D01*
X144930Y226675D01*
X145032Y226718D01*
X145135Y226758D01*
X145240Y226794D01*
X145346Y226826D01*
X145453Y226855D01*
X145561Y226880D01*
X145670Y226901D01*
X145779Y226918D01*
X145889Y226932D01*
X146000Y226941D01*
X146110Y226947D01*
X146221Y226949D01*
X146332Y226947D01*
X146442Y226941D01*
X146553Y226932D01*
X146663Y226918D01*
X146772Y226901D01*
X146881Y226880D01*
X146989Y226855D01*
X147096Y226826D01*
X147202Y226794D01*
X147307Y226758D01*
X147410Y226718D01*
X147512Y226675D01*
X147613Y226628D01*
X147712Y226577D01*
X147809Y226524D01*
X147903Y226467D01*
X147996Y226406D01*
X148087Y226343D01*
X148176Y226276D01*
X148262Y226206D01*
X148345Y226133D01*
X148427Y226058D01*
X148505Y225980D01*
X148580Y225898D01*
X148653Y225815D01*
X148723Y225729D01*
X148790Y225640D01*
X148853Y225549D01*
X148914Y225456D01*
X148971Y225362D01*
X149024Y225265D01*
X149075Y225166D01*
X149122Y225065D01*
X149165Y224963D01*
X149205Y224860D01*
X149241Y224755D01*
X149273Y224649D01*
X149302Y224542D01*
X149327Y224434D01*
X149348Y224325D01*
X149365Y224216D01*
X149379Y224106D01*
X149388Y223995D01*
X149394Y223885D01*
X149396Y223774D01*
X149396Y220599D01*
X149394Y220459D01*
X149388Y220319D01*
X149379Y220179D01*
X149365Y220040D01*
X149348Y219901D01*
X149327Y219763D01*
X149302Y219625D01*
X149273Y219488D01*
X149241Y219352D01*
X149204Y219217D01*
X149164Y219083D01*
X149121Y218950D01*
X149073Y218818D01*
X149023Y218687D01*
X148968Y218558D01*
X148910Y218431D01*
X148849Y218305D01*
X148784Y218181D01*
X148715Y218059D01*
X148644Y217939D01*
X148569Y217821D01*
X148491Y217704D01*
X148409Y217590D01*
X148325Y217479D01*
X148237Y217370D01*
X148147Y217263D01*
X148053Y217158D01*
X147957Y217057D01*
X147858Y216958D01*
X147757Y216862D01*
X147652Y216768D01*
X147545Y216678D01*
X147436Y216590D01*
X147325Y216506D01*
X147211Y216424D01*
X147094Y216346D01*
X146976Y216271D01*
X146856Y216200D01*
X146734Y216131D01*
X146610Y216066D01*
X146484Y216005D01*
X146357Y215947D01*
X146228Y215892D01*
X146097Y215842D01*
X145965Y215794D01*
X145832Y215751D01*
X145698Y215711D01*
X145563Y215674D01*
X145427Y215642D01*
X145290Y215613D01*
X145152Y215588D01*
X145014Y215567D01*
X144875Y215550D01*
X144736Y215536D01*
X144596Y215527D01*
X144456Y215521D01*
X144316Y215519D01*
D13*
X151130Y152400D02*
X153670Y152400D01*
D11*
X131699Y164719D02*
X131699Y176149D01*
X134874Y176149D01*
X134985Y176147D01*
X135095Y176141D01*
X135206Y176132D01*
X135316Y176118D01*
X135425Y176101D01*
X135534Y176080D01*
X135642Y176055D01*
X135749Y176026D01*
X135855Y175994D01*
X135960Y175958D01*
X136063Y175918D01*
X136165Y175875D01*
X136266Y175828D01*
X136365Y175777D01*
X136462Y175724D01*
X136556Y175667D01*
X136649Y175606D01*
X136740Y175543D01*
X136829Y175476D01*
X136915Y175406D01*
X136998Y175333D01*
X137080Y175258D01*
X137158Y175180D01*
X137233Y175098D01*
X137306Y175015D01*
X137376Y174929D01*
X137443Y174840D01*
X137506Y174749D01*
X137567Y174656D01*
X137624Y174561D01*
X137677Y174465D01*
X137728Y174366D01*
X137775Y174265D01*
X137818Y174163D01*
X137858Y174060D01*
X137894Y173955D01*
X137926Y173849D01*
X137955Y173742D01*
X137980Y173634D01*
X138001Y173525D01*
X138018Y173416D01*
X138032Y173306D01*
X138041Y173195D01*
X138047Y173085D01*
X138049Y172974D01*
X138047Y172863D01*
X138041Y172753D01*
X138032Y172642D01*
X138018Y172532D01*
X138001Y172423D01*
X137980Y172314D01*
X137955Y172206D01*
X137926Y172099D01*
X137894Y171993D01*
X137858Y171888D01*
X137818Y171785D01*
X137775Y171683D01*
X137728Y171582D01*
X137677Y171483D01*
X137624Y171386D01*
X137567Y171292D01*
X137506Y171199D01*
X137443Y171108D01*
X137376Y171019D01*
X137306Y170933D01*
X137233Y170850D01*
X137158Y170768D01*
X137080Y170690D01*
X136998Y170615D01*
X136915Y170542D01*
X136829Y170472D01*
X136740Y170405D01*
X136649Y170342D01*
X136556Y170281D01*
X136461Y170224D01*
X136365Y170171D01*
X136266Y170120D01*
X136165Y170073D01*
X136063Y170030D01*
X135960Y169990D01*
X135855Y169954D01*
X135749Y169922D01*
X135642Y169893D01*
X135534Y169868D01*
X135425Y169847D01*
X135316Y169830D01*
X135206Y169816D01*
X135095Y169807D01*
X134985Y169801D01*
X134874Y169799D01*
X131699Y169799D01*
X135509Y169799D02*
X138049Y164719D01*
X143046Y173609D02*
X146221Y176149D01*
X146221Y164719D01*
X143046Y164719D02*
X149396Y164719D01*
X154476Y170434D02*
X154479Y170659D01*
X154487Y170884D01*
X154500Y171108D01*
X154519Y171332D01*
X154543Y171556D01*
X154572Y171779D01*
X154607Y172001D01*
X154647Y172222D01*
X154693Y172442D01*
X154743Y172661D01*
X154799Y172879D01*
X154860Y173096D01*
X154926Y173311D01*
X154997Y173524D01*
X155074Y173735D01*
X155155Y173945D01*
X155241Y174153D01*
X155332Y174358D01*
X155428Y174561D01*
X155428Y174562D02*
X155460Y174650D01*
X155496Y174737D01*
X155535Y174823D01*
X155578Y174907D01*
X155624Y174989D01*
X155673Y175069D01*
X155725Y175147D01*
X155781Y175223D01*
X155839Y175297D01*
X155901Y175368D01*
X155965Y175437D01*
X156032Y175503D01*
X156101Y175566D01*
X156173Y175627D01*
X156247Y175685D01*
X156324Y175739D01*
X156402Y175791D01*
X156483Y175839D01*
X156565Y175884D01*
X156650Y175926D01*
X156736Y175964D01*
X156823Y175999D01*
X156911Y176031D01*
X157001Y176058D01*
X157092Y176083D01*
X157184Y176103D01*
X157276Y176120D01*
X157370Y176133D01*
X157463Y176142D01*
X157557Y176148D01*
X157651Y176150D01*
X157745Y176148D01*
X157839Y176142D01*
X157932Y176133D01*
X158026Y176120D01*
X158118Y176103D01*
X158210Y176083D01*
X158301Y176058D01*
X158391Y176031D01*
X158479Y175999D01*
X158566Y175964D01*
X158652Y175926D01*
X158737Y175884D01*
X158819Y175839D01*
X158900Y175791D01*
X158978Y175739D01*
X159055Y175685D01*
X159129Y175627D01*
X159201Y175566D01*
X159270Y175503D01*
X159337Y175437D01*
X159401Y175368D01*
X159463Y175297D01*
X159521Y175223D01*
X159577Y175147D01*
X159629Y175069D01*
X159678Y174989D01*
X159724Y174907D01*
X159767Y174823D01*
X159806Y174737D01*
X159842Y174650D01*
X159874Y174562D01*
X159874Y174561D02*
X159970Y174358D01*
X160061Y174153D01*
X160147Y173945D01*
X160228Y173735D01*
X160305Y173524D01*
X160376Y173311D01*
X160442Y173096D01*
X160503Y172879D01*
X160559Y172661D01*
X160609Y172442D01*
X160655Y172222D01*
X160695Y172001D01*
X160730Y171779D01*
X160759Y171556D01*
X160783Y171332D01*
X160802Y171108D01*
X160815Y170884D01*
X160823Y170659D01*
X160826Y170434D01*
X154476Y170434D02*
X154479Y170209D01*
X154487Y169984D01*
X154500Y169760D01*
X154519Y169536D01*
X154543Y169312D01*
X154572Y169089D01*
X154607Y168867D01*
X154647Y168646D01*
X154693Y168426D01*
X154743Y168207D01*
X154799Y167989D01*
X154860Y167772D01*
X154926Y167557D01*
X154997Y167344D01*
X155074Y167133D01*
X155155Y166923D01*
X155241Y166715D01*
X155332Y166510D01*
X155428Y166307D01*
X155460Y166219D01*
X155496Y166132D01*
X155535Y166046D01*
X155578Y165962D01*
X155624Y165880D01*
X155673Y165800D01*
X155725Y165722D01*
X155781Y165646D01*
X155839Y165572D01*
X155901Y165501D01*
X155965Y165432D01*
X156032Y165366D01*
X156101Y165303D01*
X156173Y165242D01*
X156247Y165184D01*
X156324Y165130D01*
X156402Y165078D01*
X156483Y165030D01*
X156565Y164985D01*
X156650Y164943D01*
X156736Y164905D01*
X156823Y164870D01*
X156911Y164838D01*
X157001Y164811D01*
X157092Y164786D01*
X157184Y164766D01*
X157276Y164749D01*
X157370Y164736D01*
X157463Y164727D01*
X157557Y164721D01*
X157651Y164719D01*
X159874Y166307D02*
X159970Y166510D01*
X160061Y166715D01*
X160147Y166923D01*
X160228Y167133D01*
X160305Y167344D01*
X160376Y167557D01*
X160442Y167772D01*
X160503Y167989D01*
X160559Y168207D01*
X160609Y168426D01*
X160655Y168646D01*
X160695Y168867D01*
X160730Y169089D01*
X160759Y169312D01*
X160783Y169536D01*
X160802Y169760D01*
X160815Y169984D01*
X160823Y170209D01*
X160826Y170434D01*
X159874Y166307D02*
X159842Y166219D01*
X159806Y166132D01*
X159767Y166046D01*
X159724Y165962D01*
X159678Y165880D01*
X159629Y165800D01*
X159577Y165722D01*
X159521Y165646D01*
X159463Y165572D01*
X159401Y165501D01*
X159337Y165432D01*
X159270Y165366D01*
X159201Y165303D01*
X159129Y165242D01*
X159055Y165184D01*
X158978Y165130D01*
X158900Y165078D01*
X158819Y165030D01*
X158737Y164985D01*
X158652Y164943D01*
X158566Y164905D01*
X158479Y164870D01*
X158391Y164838D01*
X158301Y164811D01*
X158210Y164786D01*
X158118Y164766D01*
X158026Y164749D01*
X157932Y164736D01*
X157839Y164727D01*
X157745Y164721D01*
X157651Y164719D01*
X155111Y167259D02*
X160191Y173609D01*
D13*
X417830Y203200D02*
X420370Y203200D01*
D11*
X398399Y215519D02*
X398399Y226949D01*
X401574Y226949D01*
X401685Y226947D01*
X401795Y226941D01*
X401906Y226932D01*
X402016Y226918D01*
X402125Y226901D01*
X402234Y226880D01*
X402342Y226855D01*
X402449Y226826D01*
X402555Y226794D01*
X402660Y226758D01*
X402763Y226718D01*
X402865Y226675D01*
X402966Y226628D01*
X403065Y226577D01*
X403162Y226524D01*
X403256Y226467D01*
X403349Y226406D01*
X403440Y226343D01*
X403529Y226276D01*
X403615Y226206D01*
X403698Y226133D01*
X403780Y226058D01*
X403858Y225980D01*
X403933Y225898D01*
X404006Y225815D01*
X404076Y225729D01*
X404143Y225640D01*
X404206Y225549D01*
X404267Y225456D01*
X404324Y225361D01*
X404377Y225265D01*
X404428Y225166D01*
X404475Y225065D01*
X404518Y224963D01*
X404558Y224860D01*
X404594Y224755D01*
X404626Y224649D01*
X404655Y224542D01*
X404680Y224434D01*
X404701Y224325D01*
X404718Y224216D01*
X404732Y224106D01*
X404741Y223995D01*
X404747Y223885D01*
X404749Y223774D01*
X404747Y223663D01*
X404741Y223553D01*
X404732Y223442D01*
X404718Y223332D01*
X404701Y223223D01*
X404680Y223114D01*
X404655Y223006D01*
X404626Y222899D01*
X404594Y222793D01*
X404558Y222688D01*
X404518Y222585D01*
X404475Y222483D01*
X404428Y222382D01*
X404377Y222283D01*
X404324Y222186D01*
X404267Y222092D01*
X404206Y221999D01*
X404143Y221908D01*
X404076Y221819D01*
X404006Y221733D01*
X403933Y221650D01*
X403858Y221568D01*
X403780Y221490D01*
X403698Y221415D01*
X403615Y221342D01*
X403529Y221272D01*
X403440Y221205D01*
X403349Y221142D01*
X403256Y221081D01*
X403162Y221024D01*
X403065Y220971D01*
X402966Y220920D01*
X402865Y220873D01*
X402763Y220830D01*
X402660Y220790D01*
X402555Y220754D01*
X402449Y220722D01*
X402342Y220693D01*
X402234Y220668D01*
X402125Y220647D01*
X402016Y220630D01*
X401906Y220616D01*
X401795Y220607D01*
X401685Y220601D01*
X401574Y220599D01*
X398399Y220599D01*
X402209Y220599D02*
X404749Y215519D01*
X409746Y224409D02*
X412921Y226949D01*
X412921Y215519D01*
X409746Y215519D02*
X416096Y215519D01*
X421176Y224409D02*
X424351Y226949D01*
X424351Y215519D01*
X421176Y215519D02*
X427526Y215519D01*
D13*
X420370Y152400D02*
X417830Y152400D01*
D11*
X398399Y164719D02*
X398399Y176149D01*
X401574Y176149D01*
X401685Y176147D01*
X401795Y176141D01*
X401906Y176132D01*
X402016Y176118D01*
X402125Y176101D01*
X402234Y176080D01*
X402342Y176055D01*
X402449Y176026D01*
X402555Y175994D01*
X402660Y175958D01*
X402763Y175918D01*
X402865Y175875D01*
X402966Y175828D01*
X403065Y175777D01*
X403162Y175724D01*
X403256Y175667D01*
X403349Y175606D01*
X403440Y175543D01*
X403529Y175476D01*
X403615Y175406D01*
X403698Y175333D01*
X403780Y175258D01*
X403858Y175180D01*
X403933Y175098D01*
X404006Y175015D01*
X404076Y174929D01*
X404143Y174840D01*
X404206Y174749D01*
X404267Y174656D01*
X404324Y174561D01*
X404377Y174465D01*
X404428Y174366D01*
X404475Y174265D01*
X404518Y174163D01*
X404558Y174060D01*
X404594Y173955D01*
X404626Y173849D01*
X404655Y173742D01*
X404680Y173634D01*
X404701Y173525D01*
X404718Y173416D01*
X404732Y173306D01*
X404741Y173195D01*
X404747Y173085D01*
X404749Y172974D01*
X404747Y172863D01*
X404741Y172753D01*
X404732Y172642D01*
X404718Y172532D01*
X404701Y172423D01*
X404680Y172314D01*
X404655Y172206D01*
X404626Y172099D01*
X404594Y171993D01*
X404558Y171888D01*
X404518Y171785D01*
X404475Y171683D01*
X404428Y171582D01*
X404377Y171483D01*
X404324Y171386D01*
X404267Y171292D01*
X404206Y171199D01*
X404143Y171108D01*
X404076Y171019D01*
X404006Y170933D01*
X403933Y170850D01*
X403858Y170768D01*
X403780Y170690D01*
X403698Y170615D01*
X403615Y170542D01*
X403529Y170472D01*
X403440Y170405D01*
X403349Y170342D01*
X403256Y170281D01*
X403162Y170224D01*
X403065Y170171D01*
X402966Y170120D01*
X402865Y170073D01*
X402763Y170030D01*
X402660Y169990D01*
X402555Y169954D01*
X402449Y169922D01*
X402342Y169893D01*
X402234Y169868D01*
X402125Y169847D01*
X402016Y169830D01*
X401906Y169816D01*
X401795Y169807D01*
X401685Y169801D01*
X401574Y169799D01*
X398399Y169799D01*
X402209Y169799D02*
X404749Y164719D01*
X409746Y173609D02*
X412921Y176149D01*
X412921Y164719D01*
X409746Y164719D02*
X416096Y164719D01*
X427527Y173292D02*
X427525Y173396D01*
X427519Y173501D01*
X427510Y173605D01*
X427497Y173708D01*
X427479Y173811D01*
X427459Y173913D01*
X427434Y174015D01*
X427406Y174115D01*
X427374Y174215D01*
X427338Y174313D01*
X427299Y174410D01*
X427257Y174505D01*
X427211Y174599D01*
X427161Y174691D01*
X427109Y174781D01*
X427053Y174869D01*
X426993Y174955D01*
X426931Y175039D01*
X426866Y175120D01*
X426798Y175199D01*
X426726Y175276D01*
X426653Y175349D01*
X426576Y175421D01*
X426497Y175489D01*
X426416Y175554D01*
X426332Y175616D01*
X426246Y175676D01*
X426158Y175732D01*
X426068Y175784D01*
X425976Y175834D01*
X425882Y175880D01*
X425787Y175922D01*
X425690Y175961D01*
X425592Y175997D01*
X425492Y176029D01*
X425392Y176057D01*
X425290Y176082D01*
X425188Y176102D01*
X425085Y176120D01*
X424982Y176133D01*
X424878Y176142D01*
X424773Y176148D01*
X424669Y176150D01*
X424669Y176149D02*
X424551Y176147D01*
X424432Y176141D01*
X424314Y176132D01*
X424197Y176119D01*
X424080Y176101D01*
X423963Y176081D01*
X423847Y176056D01*
X423732Y176028D01*
X423619Y175995D01*
X423506Y175960D01*
X423394Y175920D01*
X423284Y175878D01*
X423175Y175831D01*
X423067Y175781D01*
X422962Y175728D01*
X422858Y175671D01*
X422756Y175611D01*
X422656Y175548D01*
X422558Y175481D01*
X422462Y175412D01*
X422369Y175339D01*
X422278Y175263D01*
X422189Y175185D01*
X422103Y175103D01*
X422020Y175019D01*
X421939Y174933D01*
X421862Y174843D01*
X421787Y174752D01*
X421715Y174658D01*
X421646Y174561D01*
X421581Y174463D01*
X421518Y174362D01*
X421459Y174259D01*
X421403Y174155D01*
X421351Y174049D01*
X421302Y173941D01*
X421257Y173832D01*
X421215Y173721D01*
X421177Y173609D01*
X426574Y171070D02*
X426650Y171145D01*
X426725Y171224D01*
X426796Y171305D01*
X426865Y171389D01*
X426930Y171475D01*
X426992Y171563D01*
X427052Y171653D01*
X427108Y171745D01*
X427161Y171840D01*
X427210Y171936D01*
X427256Y172034D01*
X427299Y172133D01*
X427338Y172234D01*
X427373Y172336D01*
X427405Y172439D01*
X427433Y172543D01*
X427458Y172648D01*
X427479Y172755D01*
X427496Y172861D01*
X427509Y172968D01*
X427518Y173076D01*
X427524Y173184D01*
X427526Y173292D01*
X426574Y171069D02*
X421176Y164719D01*
X427526Y164719D01*
M02*
